<mxfile host="app.diagrams.net" modified="2023-11-11T12:55:14.729Z" agent="Mozilla/5.0 (X11; Linux x86_64) AppleWebKit/537.36 (KHTML, like Gecko) Chrome/119.0.0.0 Safari/537.36" etag="8xCUfCn2DiGKSLlxQEOC" version="22.1.0" type="github">
  <diagram name="Page-1" id="dP_ZAHJdCr0z68pXt4BY">
    <mxGraphModel dx="2261" dy="803" grid="1" gridSize="10" guides="1" tooltips="1" connect="1" arrows="1" fold="1" page="1" pageScale="1" pageWidth="827" pageHeight="1169" background="#FFFFFF" math="0" shadow="0">
      <root>
        <mxCell id="0" />
        <mxCell id="1" parent="0" />
        <mxCell id="_jPTGavj7HlBa1q7HC59-1" value="" style="shape=image;verticalLabelPosition=bottom;labelBackgroundColor=default;verticalAlign=top;aspect=fixed;imageAspect=0;image=data:image/png,iVBORw0KGgoAAAANSUhEUgAAAyAAAAMgCAYAAADbcAZoAAAABGdBTUEAALGPC/xhBQAAACBjSFJNAAB6JgAAgIQAAPoAAACA6AAAdTAAAOpgAAA6mAAAF3CculE8AAAABmJLR0QA/wD/AP+gvaeTAACAAElEQVR42uz9ebwteVnfi3+eqlrjnvcZ+5wegaYZNIKAAwJNKwiIRKKBGIlmlORe41WTGDU05ERAozExGjVGTX6amxsV1NyrERyAbprBqVEZRVHoiZ7OOfvseQ01PL8/1tp71/Cdaq2qtYfzvM9rd69Vw7dq1apV9XzqmQBBEARBEARBEARBEARBEARBEARBEARBEARBEARBEARBEARBEARBEARBEARBEARBEARBEARBEARBEARBEARBEARBEARBEARBEARBEARBEARBEARBEARBEARBEARBEARBEARBEARBEARBEARBEARBEARBEARBEARBEARBEARBEARBEARBEARBEARBEARBEARBEARBEARBEARBEARBEARBEARBEARBEARBEARBEARBEARBEARBEARBEARBEARBEARBEARBEARBEARBEARBEARBEARBEARBEARBEARBEARBEARBEARBEARBEARBEARBEARBEARBEARBEARBEARBEARBEARBEARBEARBEARBEARBEARBEARBEARBEARBEARBEARBEARBEARBEARBEARBEARBEARBEARBEARBEARBEAThZEJyCARBEAQX7rl0azvoX+sAALW9BUYSRGAviGkJfmMLCKMkAnsR1gGg054bPP/So7ty5ARBEAQRIIIgCNcpfAnevVi94IW4mX0+5TGfYvZOgfg0mM8w0SkCTgE4BfApgNoAlirY9DaAPgNXiXAVjKvEdIWJr4JxBR5doSS5GjNd8Sj5fBJsPHzXJUTyjQmCIIgAEQRBEI44H/jepRU08JSY/KdQwk8B4SkMXCDQDQA/A8DcMfko1wD6LIE/y4TPgumzCdNngyD67GOf3Hjw9e9ELN+2IAiCCBBBEARhRvz+pdXFMI5vT0DPBrznEZJnMei5GHkwTjohgM8Q4yMMfJI9fIq94I/uunT5cTkzBEEQRIAIgiAIU/LeN5266Pv8Qo/5OQx8IUZ/t8qRKfAYgI8z4aMe42OxH//+XZc2/1IOiyAIgggQQRAEQcM7Xgf/wjNWnxEjeR5AXwHgRQCeJUdmUvgJBv0RMT6YMD6ExtL9d116oC/HRRAEQQSIIAjCdcm7vh2t+ZWlF3FCLwLRCwF8OYAFOTK10QPhjxj4kAd8KPaC99916fK2HBZBEAQRIIIgCCeW99+9dBvIfzmBX8bAKwAsylE5NCIAfwDGb3iUvOdFb934YwJYDosgCIIIEEEQhGPLPZdubSPaepHnJS8D08sAfp4claMKP0FMv5N49BvsJb9716X1dTkmgiAIIkAEQRCOgehYXvZjvJZBfxPAVwLoyFE5doQEfAjAr8Z+8CtSZUsQBEEEiCAIwpHi/ksXuttJ76s8xjcz8NcBtOSonBgSAL8H5ncmQeOXRYwIgiCIABEEQTgU7rl0Zt6Po69NgL9FwCsBtOWonHgigO8Beb/c8KL/9cJLm2tySARBEESACIIg1AYD9IG3LH1lwt4/IuDrIOFV1zMhgN9h4v/K3vpv3HUJkRwSQRAEESCCIAiVcM+lM+e9KPq7RPhWBp4qR0TI8TgIv5B48c9JA0RBEAQRIIIgCBPBl+DdG536Sp+SNzLwWgANOSqCwy32IwB+prHd/b9f+KOP9OR4CIIgiAARBEEwMvJ2hP8YRP8AwM1yRIQJuULg/x77yX8Wr4ggCIIIEEEQhALvv3vxdlDwTwH+Vkhuh1AdCQPvYvZ+7K63XX2PHA5BEESACIIgXOfc86aVF5GH7yHg1XJ9FGq+/X4ESH488df/pyStC4IgAkQQBOE64v43orF9fvW1hORfgOlL5IgIM+ZzYP6xfr/1c6/4kSd25HAIgiACRBAE4YTy4e+6sRPN7f4TJv5nAG6UIyIcMlcJ9JOxn/zoXZfW1+VwCIIgAkQQBOGEcP8b0dg5t/r3AX4LgItyRIQjxhYIPzUc4Adf/kPXNuRwCIIgAkQQBOEYC4/dc6t/l8FvhlS00t8UiOD7Pjzfh+/78MkH+R4ABnkeaHzb8MjbX548AnMCThgAwMxgTgAASTL+PzM4jhHHMeIkQZzE+8sLSq4w8O/m/c5PPP/So7tyOARBEAEiCIJwTHjH6+Cfe8byGwj0luu6cSABgR8gaDQQ+I3R/xsNBEFjJDg8H77nY6wrRvC+Khn/zwPIG00eTwMTiGgsOMYr7L1mBifx/uvR/JToSJKRGIkTJEmEMIoRxRHiMEIUx4jCCHEcg3E9CxV+AowfTILl/3LXpQf68osWBEEEiCAIwhHm3resvo6Yvx/AM66Xz+x5HprNFhrNFpqtFhqN1lhoBCMBAQZAID8AqAHyGiAvAMgDeT5AHuD5IPIB8kfT9oUFFOpENTkvGHhfcDBHQBKNhAnHYI6BOBpNj0NwMv7jZCRgwIjjCFEYI4wihOEQw2GEMAz3vSvXCZ8n4G2xf+3npGqWIAgiQARBEI4Y911a+mKOvf8I4MUn+XMGjSaarRaazfb+/xtBc3RlJw/kN0F+C+QFIL8JeMHotRdoLv86T4NGUHBZMZJ6zWwYD+AkApIhkngIjocjURIPwFF/5GFhRhzFGIYhwijEcDj6C6MTbpszPkFe8p0v+f6N98ovXRAEESCCIAiHzHu+b+FUI2i8BeBvA+CfqIs1EYJGE+1OF+12F+3OHIJGYzTPC0ZCw2+BgibIb4P8huISz2ad4SQ+3AWJkxgxTj+Ylh7xQIwMwGHvQJiAwXGC/jDEcDjAYDhEfxCC+eSFcBH4PfC973jJpbVPyS9fEAQRIIIgCDPmXd+OVnd55TsIeBOAxZMiODrd+bHY6KLV6oI8AsiHF7RBQQfU6ICCdolLOdvn8SRjsLsYYc06EwiRbD4Jg6MekmgXHI7/kgjgBMMwQn8wxGAYoj8YIDk5ye8DAn6s6dPbv+zS2qZcCQRBEAEiCIIwA+59y8prPMaPnoQE86DRRLc7j878ArrdhXGFqWAkNvZER9CecHS2iAueUJSwoxhRhGlpRceEQiTn6eAkBA93wdEOknB3JFASIIyG6PdD9PoDDMIQJyDH/SqY3/rEn6//xOvfiViuCoIgiAARBEGogXsuLd/qxfTTAF5xXD+D53nodObRmVtAd24BQaMJkAcv6ICa8/AaXcBrVLAlts/nEqKEJxQjRq+ITbhMLkT23ycRknAHSbiNZLAFTkLESYJ+f4Bef4j+YHjMvSP8Rx7wrS9+6/pH5QohCIIIEEEQhKpMrEvw7otX/xHAPwJg4dhddInQmVvA3PwS5uaX4HkeyG+MBcc8KOhUe2XmKRZitguMqcSIzSviIkRYMYpFiIznJ1EfyXALPNxGEu6AE8ZwOMRuf4id3uC4VtmKAPqpfq/xr17xI0/syBVDEAQRIIIgCFNwz6WVL/Bi/ByALz2WomNhCXPzy/A8H9TowBuLDnh+jZdjnnA2VyhI2CJEDqZPL0QsIiQnfnjvPUdIhttI+hsjUcKM4TDETm+A3f7xyxsh4K9AyT+WalmCIIgAEQRBmIB3fTtac8urdwP8PQAax2Gf90TH/MIyuvNLI9ERjEVHc2EsOjSX5GmvzOwoPkzLuIRkMVckRooCwyxE2LCdkmFZ4+aInN4Ox0gGW0gGG0iG22BO0B+MxEivPzxOVbUYwM8Oh/iXL/+haxtyJREEQQSIIAiCA+9/0+oL4fHPAnjWcdhfP2hgYWkFi0unETSaoKANr7kwFh2Bw1W3qsuyi+eD3dflKcQIO1bOygiKMkJkQm9Ibn1WjcfhyDMy2EAy3EHCCXZ7A2xt949Tz5HHienbX/K2tV+RK4ogCCJABEEQNLzr29GaW1l+O5i+C4B3tK+khLm5JSwsraI7vwBQA357EV5rEfCb2ksu1XZpZsepXEKYsLsgYZeQK9W6EwiRKsKymFEIyVKFfSUh4v41JP11cBJiMAixvTvAbr+PY+EUYfw/wxDfJt4QQRBEgAiCIOS479Lqszji/weE5xzl/QwaDSwuncbC8mn4wahcrtdagNdcBMgrLTtmbY26vrN6MCYRI8YxXYSIKandFJY1QUiWQphxuDMSI4NNJJxgZ7eP7Z0+wujIV8F9IEnwzXe9/doH5UojCIIIEEEQBADvf/PytwD0UwDmjuo+tlodLK6excLiCshvwGsujb0djdRFtYrLa9kxqngMz8ZXavHgIkbY0oRwAiFSeVhWbhspz4hKhAAYeUUG6yOvSDzEYBBiY6eH/mB4lPuLJAD9xGl/7buffQlDueoIgiACRBCE65L7vm/+DAeN/wrgNUd1H9udOSydOoe5ueWR8Ggvw2/teTvKXE6pxFW4ii7nKHgEJhElrBUc7CBGbF4RFyHC6vK7trCszC4xKgvJylv1wy0kvatIwh0MowhbWz3s9Ic4uvFZ/Efg5A13vm3zM3IFEgRBBIggCNcV975l9eXE/AsAbjh6V0kPCwvLWD51Ho1WG17Qgd9eATXn3S+xVMWllyYTHi7rTFA1qxIxMrUQ0YVlTeANMYRklREhAMBRD3HvKpLBJuIkwfZOD1s7vaNayncXzP/qzret/5hciQRBEAEiCMKJ5/43orFzbvWHAf6OI3c9Ig+Ly6dGwiNojsrndlZAfruE2CD3y+/M2oCw28LOooSVskSf+wGL6JhSiDh7QxxCsoyleh2OTRIi7l0d5YrEMbZ2etjc7h3NMr6MX06C4B/ddenytlyZBEEQASIIwolkFHLV/CWAv/KoXRbnF5aweuYiGs0OvPYi/M4qQIH6EmoVHLpwq8O6/JqqWRkSw50ESQkxMrEQMXlNVGFZLt6QafJCHMQER4h7a6O/OMT2Th+bOz3wEfOIMPDnnk9f/5JLa5+SK5QgCCJABEE4UdzzpqXne573qwBuPpLCozVqGOh3TgFeo3jJJN0lVCU2aLKL8DRXZ3aapF9CKzYsCdm5ZQthWlaviEGIaBPfq/aGVJScbhEiSRxic3sUmnXEHCJbxPQPpGeIIAgiQARBODG8/+6VbwPhPwBoHpWr4Pz8MlZOX0Sz3R4Lj9Mp4WHycriHXZHbm5ph20v18jZB4tDUkLXL1ydEnHJDjCFZOe9LOjl9UhGyJ0R2ryLuryGOImxs7WJ7d4AjVDaLCfjBxz997S2vfydiuWoJgiACRBCEY8k9l25te/H6TwL0D47KPrVaXZw6fxM63flRt/LOKZDXgNnTYfOCqGaVyAUpc9UuZa865H5YRYlJcLiJEX14lkGIsKkallmEZHdJlXTOuf9ZqmQVRIjrZ1eQhIh7VxD3riGMIqxv7qDXPzpVcQm41/fDv/UVl7aflCuYIAgiQARBOFa8/+6l20DerwJ47lHYHz8IsHr2IhaXToGCLvzu6XFyOTmIDpvgILfL7cy9IGxQFmkDOwFzAiTR6HUSAxyDOQFz6mH43uuEASTjY7d3nGj0DB0A0Xg6eSDyAfJB5IE9f1y+mCcXImW9IdqQrJJ5IROW6dV+M8kQ8fbjSIZb6PWHuLaxgyg+Mo6HB8hPvuEllzb+WK5kgiCIABEE4VjwgTef+tIE/OsAnz38K56HpZXTWD1zAX7Qhtc5Ne5aXk502AWHSmxU6AWZWHwwOImAJAIn4fh1CE5CII5GYkPZBDBtsCuSzLXGt8N0zwe8ADT+G71ugDx/HAZHys+hFyIuIVkp4TFpXsgUZXq131K4jWj7cXDUx9ZOHxvbu0eldG8fRH/vzu9f+2W5ogmCIAJEEIQjzX13r/5NJv7vADqHvS9zCys4fe4igmYHXmsZfnsV8LzcpXBS0UEOYsN2ua34cswROA7B8QAc98FRCI6HMCaWK8SGejnOLabrbK5P5C4II81y5PkgvzUSJUEL5LcAv1GiWlZaPDiGZB2iCAEYSX8d8e4TiMIIG1vb2O4NjkJ6SELgf/6St67/R7myCYIgAkQQhCPJ++9e/g4Q/QcA3mHuhx8EOHPuFswtrowTzM8AfoCCt0PhBdGLjkkFR02XXI6RRH1w1B8LjiHAiUFgmIQGYPJ+TCZGygoRQ7I68yicy2+AgjY8vwUKOoAXFAVC6ZCsoyJCME5Uv4y4dw2D4RBr69sIo8MPyyLGz8bBtf/zrkuI5ConCIIIEEEQjgTveB38c89c+TEwvu2wr24Li6dw+txN8Bsd+HNnQY2uRngovB2lRYftvcOFmNzW4Xg49mr0wdFgFEKlXJAtEmQS70fRQFdNZ6tXxFzulpXL6JPSiQJQ0AaCUbd68lu5/XeskqXMC7F0Tq9LhGDUVT3afgwc7mJzp4/1rV0cgbq9v+0P/Ne96IevbMkVTxAEESCCIBwq91w6M09x9IsEfO1h7kej2cKZ87egM7c4CreaO42sI6YoPLJvyUF0lBcc5CQySKU4kEQ9cNRHEu4AicuTcJe+FKxYqoz3wy5GioZ7jUKEU4nhRPCCLqjRhdeYG+WXpMWItkqWPjm9UCFrRiIEYCS9NUS7TyIcDnF1YxvD4SE7IBgfSwJ69V2X1h6RK58gCCJABEE4FD546fSFOIp/E4TnHN4VjbB86jxWT1+AF3Tgz58dV7dyER4uCejkfPnUiw2Xyy6BkwGScBcc7YKjobsB69SxXD+f2ZIjomsmWFaIFAxz1oRc5YSItZxuSoSk3pPfhNecAwVz8ILW+LvhrJeoVhEyvdeCkyHirUcRD3ewvdvDxtbhJqkT8KAHevWL3rr2SbkCCoIgAkQQhJkyLrP7HgBPOax9aDbbOHvxNrQ6C/A7K/Daq8h4MkoJj/KiQy04SCuUdAZmMtwBD3f0YVXlVIhhNjutZxQkpcSIKjyrjBCZxBuiEy4evGZ31PtlPyyPiyIkP+4RECEAkAzWEe88jjAc4uq1LQwO1xtyNUmSV9719o375UooCIIIEEEQZsIH7z59R0zxewDceFj7sLB0CqfP3wK/2YU/dy4V/+8iPCb3dpCL4LB4QTgeIBlug8OdUVlcq3ixaQwXI5cdRUnR+8GlxIjGK5L3Ujglq/OU3hCVGOBR+d/mHLzGIrxG2zk53VmEMKO6UKy0CgkRbT+KeLiFre1Dzw3ZBidfd+fbNt4nV0RBEESACIJQK/ddWn0Wx/y7AC4cxvZ9P8CZC7dibn5l5PXonBpf1iYVHtOKDlKsVhyHkwg83EYSbls8HWUv0ew42837AYv3g5XrmkVHOSGi9244e0OUIVnqpHOiAF5rAdRaAnnNCkRIumN6DSIEQNK7imj3SQwHQ1y5tnWYDQx3wfQ37nzb2u/IlVEQBBEggiDUwgfevPS8BN5vATh9GNvvzi3gzA1PRaPdgT93flSKtSbhQWSY7+QFGdueUR/JYBNJuFvDZZonX84lJGsSMWIQHer1DULE6g0pEZKVmcfq3I+gDb+5BK+1cNCx/YiKEI4HiLYeQTLs4drmDrZ3+4d1WRiC+W/f+bb1X5MrpCAIIkAEQaiUe9608iLPw28CWJz5RcvzcOrMRSytnIfXnoffPTc2ELPio5zwIPXFUSc8iJwEBzDydiTDHSTDTUX1KlL9b4LLtaXQLrssyxZBYpqfkh8lRAcUooOtYVglvCFTihAGAM+D31iE114C+c0jK0KABPHOk4h7V7HbG2BtfRvJ4YRkhQR8y0veeu2X5EopCIIIEEEQqhEfdy+/1CP6DQDzs9520Gjg3MXb0Z5bgN89C6+5AKXXYxrhMYnoUIRdcTxEMthAMtzJLEeHegnOZXC4hmQZBIcuEZ1Z3WiwvBAp4w0xez/S89jk/ciLlbGo8Jrz8Nor8IKOQYTomhXOQoQAHG4j2vo8wnCAy2tbCMNDSVCPQfSP7/z+tf8qV0xBEESACIIwpfg49TKPkt8A0J71tjvdRZy78SkIml348xdGT6NdvB5TCQ91h/Ti21RSedRHPNgER7uOYsMmZirTG7B5P1hrFE8hRlThWY5ChK3Cw+ANcc4LUQsPnQgBRiV9/fbqKDwrdUzsHdO5+Lnq8FJwhGjzEUSDbaxtbGO3NziMywWD6FtFhAiCIAJEEISJuffNq19O4N/BIXg+FpfP4MwNt8BrLcLvngXIdwy3KiM8HLwdpL98JsNt8HADHIeaS6vbOHXag+q3XFKQOIiRiYWI2rtRzhuiqpJVvQjZT1pvr8BvLyNTytdYxre+8rz57zDeeRxxbw3bu32sbewcRpWshAl/56Xff+0X5QoqCIIIEEEQSnHPpeXneDG9D8DKLLfreR7O3HAb5pdOwe+sHvT2KIgPm/AoXu7MwkPnlShWvOLhDpL+tVwJ3fS+uFxuqbqrc+nyvOwgSthBjKhER04cuAqRUmFZJtFiywvJjasQHgURwop8D8+D3z61L0ScREjNoVj7CmCwgWj7UQwGA1xZ20Q8+8aFMTF940vetvYrciUVBEEEiCAIjuJj5Qu8GPcCODXL7Taabdxw49PQ6MwjmDsPasxVEm7lLDyUXgra30wy3EHSX0+V0XURHIflBWGDDikTbuUgRgzdzNVCxBCGZRILtpAsU16IMnRrEhGSE0KeD7+1Cr+zDIaXWuZw8kH2Nxn3EW0+jHDYx5VrmxjOvnHhgIle89LvX/tduaIKgiACRBAEi/hYfJoX+/cBuGGW22135nD+ptsRtBYQzN8AeI0JvB464WFaB1pvx96iyXAXyeBaNtSKVJdT25izvBxbvB/sIEh0YmRKIcKO3g91bogpJMuSF1KXCGGAvAB+dxXUXBqfY4cvQsAxoq1HEA+2sLa+jZ3Z54XsIuFX3fn29fvkyioIgggQQRCUvP9NqzfB4/sA3DrL7c4vrODsxafCby/CnzsHwMuKj5JeD+cQLZVIINqXPBwPEO9eBcdDu+hw9YIolq0+B50NGkST/6EVJDpDmdUdxLXTimOyYx+P9D66h2TZktMnESG6baaT1RvwOqfhtRYNImQGSempYx3vPIF49yo2tnexsbU768vKZpIkX3XX2zfulyusIIgAEQRByHDPpTPn/Tj6IANPneV2V05fwOqZi/A6K/A7p8dCwRRyVTLcykl4UKr4FY36ePSvjcrpWkWHmxeEZnpJ5hLCxOT9UIiRwnRO2dBlhIguLEuXrK0QDKVESGq50iJEl0yuFiEMhhd04c+dBQUtQ1L6DLwgY5LeVUQ7T2B7pzdKTsdM80Ku+qA7X/TWtU/KlVYQRIAIgiAAAD78XTd2wvmdewB86cwuREQ4fe5mLK6eg989A6+1bA65snk9VMKEVIIhuwylp3GCZLCNeHhtbBxSOdFBOrlBhqtx1Zdkdk5KZ+Xybt4P3fRJhQg75IK4h2RVJUJ0zQrVwuPg9YF3yGsvIuieHTfOzH6umYVi7YmQ4Sairc+j3x/gyrVNJLNNTv984tOX3XVp7RG54gqCCBBBEK5z+BK898crv0rAa2e1Tc/zce7iU9FdXEYwdwOoMe8oPib0etiEB8YJ5oO9ylZkER1UEBHG/h9WoVHVZdliUDJbBElZ7wcUAsAkROwdz9kgUowhWcwwJacrmxBOLUL0oieTN+J5CNqn4XVWCtuctQjhaBfR5sMYDvp4cm0TcZzM8GKDP06C4M67Ll3eliuvIFx/+HIIBEHY466XrPwYAX93Zhcgv4ELt92B7vwqgoWLoKBbzPegfMiVWnwQ0Vh80MGy+eUz4mU0n1LTOImR9K4gGWymvB50IHwov+1xuNZ423v/8tvI/MHyt7edaf8Aw3ZU28guv/dfUs6HYr3Ud0R5gUfq3B0yvyftfLWwpMy+ISdaU+PqxCSp8n9yyyleU17YKiqcUUr4JeE2kuE2vEYH5AW5zc/uuSB5DfitJVC8i24rQK8/RDKrXiGEG4iTL/yac/13vPNTYLn6CoIIEEEQrkPuu3v1uwC8ZWYXnyDAhVufgXZnGcHCjSC/lTHoSCEWikb1gfjIGqMKrwVl5xMhIxaS4Tbi3cvj6lYoioeCcDkQHUYBoRICJpGBKv4wgTjR73dWjKAoArUCxVGIaN+PxZ3uu1V9r9ALD7VYMYkQzXKF13rhoZ3PEZLeOgCG1+igvKesKiHgw28vAlEP3ZaP/iBEkszME3LH/OnO+Z+/r/+/5QosCNcXEoIlCAI+cPfK1yaE/3dWDyUajSZuuOUONDtLCBYuANTYN/yyyeaqfA9VhStbknk+3OrgPSch4t5VcNTXGsFaA1dltKoureRQDUs1v+wV2ilsp2zlK6irVhXWY8VYhlK6mXHdGhIya5r7KZLV7cnphnCsTGiWabky5XlTnddzn4OC5ij8MGgrPqfLd1oFCaKNhxANtvHk2sZMe4UQ+Lte8tb1/yhXYkEQASIIwnXCPW9aer7nefcCmJuJ+Gi2ceGWO9BoLyBYuAhQkBMfbvkebrkeeuEBjLpEx4P1g3ArlfCgfFaHSy6Ia+I5WS7Mk1yiWSsz9MasSXDk5ivFyBRChM3zzQnqqipZ+cTuSUVIcR9U4sFenteQD5Kb77dX4c+dSR1mnqEAGYuQzYcRD7Zw+eom+sMQM9sw8+vufNv6r8kVWRBEgAiCcML54KWVm+OY/xCgc7PYXrPVwYVb7hg1GFy4AHgBJkk2V4uPEl4PjkY9PaKeo/DQiYvJvSDuXT/KXKbt3g92EiVmwaETGOwoOvLbZW1/Ds17ZYK6ToTohYdahJiSyU0ixJaUnhMqmvnkNUe/Db+F2XtBRtuJth5B1NvAlWub6A9mJkJ2PSQvefFbNz4iV2ZBEAEiCMIJ5Z5Lt7a9ZPMDYH7+LLbXas/hhluejqC1OO5u7hvEh2OJXWOFK43XI9pFvHsV4EQtKFTCg9T7YhQdRA5igxyvxC6XanaYzXZRwhOIkbyXwlWIOHtDJhEhB+tWK0LsndCLvT3Sy1qEDDNANCpH3V7FbBoUKkTI9qOIe+u4sraJ3mA4K4PkwdiPnn/Xpa0rcoUWhJONJ4dAEK7TH3+0/hOzEh/NVmckPtrjnA9n8ZFtRFiocqUUCTrxkSDuXUG88+RIfCgqbBWSyjOVrxTJ2vn9TCVxp/8ZK0+RY1K5cR4wUXWtg/Tyg3+mZHXSVRdTjKeorFVYN79efrv546P4vpResHwSvTKnqPiaVOdgofJWfnuqMQFt9bVCuGFeABPA447lWw8DSXwIzwsJwfxF+J1lnFldQKfVnJHswS1e3Pild7xOCuQIwklHfuSCcB3y/jevvhE0m4pXjUYbF299xoH4gGfI+SiTbK4y8JAzTPfK64aIt58ARwN9VSub8CBo11WLDsBYSUspEkx/yIkIuJXsNYmYQsWuve9lT0ToxJZqenHavmgsUfmKCuIRhiaUaY+YarnUuI5VrEi1fkYjmMrzIies9dtB/gwvRPYROB4iGWzAC9ogv4lZBy14zUVwMkSnAQzCcFZ9Qp4yd6bT+Pn3998rV2pBOLlICJYgXHfiY/m5AH0IQKfubQWNJi7c8oxxtauLAPnlxYcp38Ml5CrcQdy7MopkUYxVNAJ1ye1qo5iMuR7mLumzvRSz4iVbluHUW33Ileu0QodzS9I5WxLSi038VMtlQ6TYkmhe7Jiuz/eYKh+kMF8RirX/2QC/ewp+98yMQ7FG+xhtfR5xfx1PXN3EcDaJ6UxMr3/J29Z+Ra7YgiACRBCEY857vm/hVCMI7gdwa+3iIwhw4ZZnotldcqh25SI+SN+LQSM+4v61UVNBxRN3gq2KlroM78E7h8T0jLAxXXap+iuzqayug+DQz0tJEVVOiEVkcE442HJDWNHJXNe9nC0J5OVFiCHJ3SkpXbFMYduqqliqyloMr7mAYP4CQLOOnmZEmw8jGmziycsbGEYzKdG7RT592UsurX1KrtyCIAJEEIRjyjteB//cM1beBeCr696W7we4eMsz0OwuIli8UdHno0LxkWlUR2O7LUG8++Q45Co3tqmxnULY6IVHMczHTXC4eUEmvTizk9BQLekqRhReERchok1Ut5XKBYyJ5Lmx3UWIOdF8b9zSZXXTy5cpzavch5SnZDyN/AaChZvHIVmzJEG08SCiwTaeuLKBMIpnIHvw522fvuTLLq1tyhVcEE4WkoQuCNcJ55658vZZiA/P83HDzXeg2V1IiQ9MLj5ILz6KncgBjgeIth8Fx4NConCmqzZB4/Uo5mRkksnJ1PlbkXity+/IJ39DkbhOJf+0IxnGtO2rbl56XGM+iCbhHJRLwqZisjapPFz5HB3kltOcXzkvFSmbW2pyZjL5G7qk9OJ5nP5OtGMox1X9JkbTOA4Rrn8OyXDWNrmHYPFm+M05nD21BN+v33wg4I5BxD8jV29BOHmIB0QQrgPue/PynQx6X90PHYgI5258KuaXziBYuBHwmvvGVLHDuaP4gF58KPM9dq8CxDnD1ub1cPB4qLqsm7wgmUn5oC3SXIXruCSbvR+FVzrvh3a6ySPiGJZlyO0w5nDkx3b2hCg6phs6mLNxnEnyQSYMxcqN6c+dhd85PduLCUcI1x/AcLCLJ66sI0lmkZNC//DOt679N7mSC4IIEEEQjgkf+N6llaTh/SmAm+ve1unzN2Pp1HkE8zeCgnbqCXCV4kOTbD7cRNy7Vnh6TGSqvqTu7eEuPMwd0skiSOq/JFtyPwqNBCcRI1MIkbRgsHQ1V4sQnTDQiRB1Tgdbe4RYktKd+oPoQrF0IgOahPRsjonXXh7lhczydp6ECNc/i93dHi6vbWIGTRJ3PN//4hdfuvIXckUXhJOBhGAJwgknaXg/PQvxsXzqPJZWzyGYuyEjPlAQH6hIfBysH/fXxuKjGHKVFT2mPiK5crymfheF0KGDsKB02JOxd4Yy5Anlw64cQ7NcwsK0IWC68r3G0Cw4e5qUIVmFEC6DANWcO2Tt4YHcd645T/PV0lS9O0yhWNCEYtnGUu17bsykv45o8yGA49ldVLwGgsWb0em0sLo8P4stziVx8j/vfyMackUXhJOB9AERhBPM+9+y+g8BfF/d25lfWMGZG26FP3cGXnMxYwhqm8ClDNHJxAcAMKLdy+Bwp9ikDprGdKrmdqo8D0OjPd26etEB2PJBqv+DZntQN1c0CSlS5F3ANg0HBjep5x+8BzJ9Q5TfP4oheMpeHdnXRHlDXvU6VRVN1//DNp9IUVeAFKurwu8ceoMUhPrBwhwPkYTb8JsLo1LXM4C8BihoI0h2wcwYDGuvjHUhnO/Sz9/Xu0eu7IJw/JEQLEE4obz37qWnBuT9CYCFOrfT6szh4s3PgN9dgd89C3W3ZwCqpGO4Vrsqig/mGPHOk+BkCG2+hypRPGMN2sKtdE3z0qakqnpW7jWpLrdkuCJXVIeXNdONy7FmHmdDtJRhWLlphXK6e+9NIVma5dm0nD3fgy35GdryvKpcD2MoVj4fxLUqlq5sr6rqlmr/RqIgWLoF5Ldmdp1JelcRbT+Oq+tb2OkNat9cwvxVd71t/V65wgvC8UZCsAThBHL/G9EIPPqfdYuPoNHCDTfdDr+9MGqSln+SaxMfGcu7pPjYfiIlPvaWS4sP0osPa7gVaao47QmPXNgOaSonGStNweoJKftP7dGgiSp06Tu9w3DMoPV2kMH7pKpCRsqQqGIIFZmqXVE+F0hR7Sx9nuXPx9x5mO2UrgufQnG93DRSeldywt0wJkHVjBPgJES08Tlw3J+dEdE5Bb+7itXlBbSaQe2b84l+/p5Ly8tylRcEESCCIBwxds6v/GswfUmd2yCPcP7GpyBozsOfv0EjIBRGFGxlTC3iI4kQbz8O5hDFfI/89tRGb8bcJFW4EqDygmTLzsJorFsFh0lk7H2ekn9E43VN4sQoeqA4BmrhZhYi6veZ4wdoBEE+LwSKcU0iBPrlHMrmki1vqRBqVdw2acrxQpcDYhAjZjFTnM5JjGjjAXDUm9n1xp87D7+1gNOrS/C9es0KBm6hGD8rV3lBON5ICJYgnDDuubT8HC+mPwJQ6+PIsxduxcLyOTSWbhqV23XK+8gnnZNBiKjER4ho54lxwm36qbTB05EzdMkaXqUSHqr5gLF5YWF6eizd/Cou0YaKRMy5JdkwXxWKpZ6WqaHlWPlK32V8b9nc+IYqVsoKUel5ZSpaKUOtcss7hWKpqmKpO5xDuZyuLG+xOWF2P/efEKCxeDOoMTebCw/HCNc/i35vF09c3SjuT9XGC9HffMn3r/2qXPEFQQSIIAiHLj4QePHKHwJ4bp3bWVo9h9PnbkKwcHFs4OSMdTpM8aHzbJi8HhbhoRMZZBMjqqRjh1yQ9DzXqzRbxIdqnqp0bmHeBELEkAtSKJWb39ZUIsTQMb1Ued7UOM79QYpihTU5IJn1FcJD2TdEm0uiKlucFiE3gRozqVQFjvsI1z+Hre0dXNvYqXtzj3th8qwX/9uNa3LlF4Tjh4RgCcJJeqIQr/zLusVHuzOH02cvwu+ePni6WhAfyBr46SlkD8FSio/tCcUHqcQHuYsPXd4CaSpNQRFuVLIcrjVnwzWnxLhtGErwwp4TgmJ+T7Ezui43JH2cYPBaUa6XTEnhquk9Qw7dzKkwv2woFhShWNnvM6tHi9uhwvmK3O9NnQtyoAgShBsPgcPt2Vx//DaC+RuwMNfBXLdd9+bOc+D9kFz1BeGY2ityCAThZPD+uxdvB/kfBdCpaxt+EOCm256NRmcF/sINyMflk6XZYNY7og59ync45yRCtPN4SfGhqnKlSmQuzlOHW5k8HgpvBxm8HEQTXIpt87n8fGb9MpwOqsp7MlTTiu/t3hBFSJbG+3GwnMkT4lDRytjUrzg/68WYLBTL7AUZf3JlKBVrO6CX8oIAMw/HinceR7R7FU9cWccwrLU8LxMlL3/J92+8V+4AgnC8EA+IIJwAGCCQ/7N1ig8Q4fyNT0PQ7MKfP4f80/SioZ8VH1lxoCpri8KTdeYIcemwK4X4IF0ys6P4IBg9HsUn/4A+OT03z+oFsXk3MH0TQs3+phPa1cnpeg+J9pgo11dUs9IknRc9ISqBme7/QdpqbKT0LujGVnj2CIYGhdAkpKt+F6p9heF3g1xfETLrVE4Qbj48s8R0f+4c/GYXp1cX4FGtzzmJ2f/PH/6uGztyFxAEESCCIMyY++5eeSOAO+vcxqkzF9DuLsCfv3DQ7ExZchew533kraVU6dV98TEutcvRhOJD44nJe0HIFDpkDkHKdPwuUxEL7qFWxTpW+Wn5ErwOwqaMQNI1aiwcR4Vog6YssjIkC7lu6PrvmAzCIytCNOV5S3QzJ9U5batklSvR6xRKpfKaUX4foM2rUqiZnAiJEW0+OKMSvYRg4UY0Gi2srizUvC2+fbiw82a5CwjC8UJCsAThuIuPf3X6BvbjTwJYqWsbne48brj5DgRz5+G1F1F4em0LvdL1A9HE7jMniLcfAyeRInbfVXxA3aXb6vXQNy0EgGJ+QO5Saiw5rL70FpPdq7DLDl6wfqY6qXz/JSunGateacKuWBVWpWkiqG9aqKoilVpOEXbFiuRudVK6upLVwWc2NSjUJaTn1jdWzNKFeRkqYqnCyXRhWHvnmucjWLptJs0KOdxGuPEgrl7bxk6vVuETkZ986Usubfyx3BEE4XggHhBBOOawn/xEneLD8wOcvXAb/OZ8TnzkjWd16JWtqVpBwCBBvPO4RnxgMvFBBvFhTZhG5gm92uOBUl6Qfc/FuHeHtq/INH+F/iCk9pZkGibC8pmQCc0yNiTMCb9sDxBdzxZNE8LC9wnomxWqzj91EvnB6eTuEdGFZ6kT0nVeEBR+B1oviMnToR3PcL1IYkQbDwJJWPu1iRrz8DunsLo0h0bg17mpgBP/v7zjdfDljiAIIkAEQaiZ99+99JUAf32d2zhz/uZR3sfcOYUBCGvolbpjdFp8pNdhRLtXwHGoER80mfjIGcdmY9jSQK+M8MgHTmUEh7uAKPWnaiyYC53SChLdGJrPWGjo6JpnQ6StiqUVFwWjP7+cTrCQxkOHXDNDk0im7CZcGwgahYItjCrrEdMK+fRwRsGSFiEhws2HxrlV9eLPnYPX7ODUyoKmAENVT2L4+WefufoP5K4gCCJABEGokXe8Dj7I+491bmNh8RTmF1cRzJ0DPF9rHOmNIpMQQcFYivvXwGFPM6652zXZQrNAudwQhXGeFkiZvASoQ7KUwiNrtB6IDpQTGhV4PlzzUIgM3dJNQoRyx1QlEBWihJTfbQlxkXtNcC3PqxMEunNL0+FcKTwUCemkCLWzeUGUoXiESRLUjfZ61Ee09QjsFdSmZZQP0mw2sTRfb644Md72u9+zsiR3B0EQASIIQk2cu2PlnwD4wrrGbzRaOH3DTfDaywfNBoEKQ6+yRmEy2EAy2CwYouQgRMghLyRbFSu372TpaQGXxPS08Eh5OrSGP+weC0zq+dB7P5R9PJDyjCBfuliXGA7kK4459VopfBeq5UgTmqQ/D8hYGUslkgn2UCyVoAG0yefKaTrRYxMPmr4gxvHUwl5HMtxGvP1Y7dcq8lsIumextNBFq9mocUt8ttnE3XJ3EISjjyShC8Ix5APfu7SSNLzPADhV16Xh4i13oLOwimDxJoA82BPPs0apMmFcE3qVRDuIdy5nx8rkGagMRnIXHy5P3VOGNbkkpReEFxRP7AF95S8YDM9KjDHFS03vD10iOqcT2DVJ54r3B0nq6l4e+8uzql+ILZkc0PXdUHcWh6FTuq7nRn4b2bHsCemqz2BJKE8n6yu7o6uS6g09RSzJ6Gn8uXPwO6drv25Fmw9huLuOxy6vp45z5QzB8Rfc+bbNz8idQhCOLuIBEYRjSNLwL9UnPoCl1TNod+fhz50fXyZcEs/z4gJFMaCYxnEf8e4VFJ5Gq57kF8QHphAfqsRzMpSCBXShRVqPR8HTAZg9Evo+IaZ/bt4Pg7dE6xXZC89SiU3Ve+S8ITRZSJzCa0GGfh7a8rzafBBAl69BpO9cXhSKpnApxfM+Q/hVtlmnajxSbMqQ80HuYjbeeQLJcLP261YwfwMazSaWF7p1bqYJ8v+93CUEQQSIIAgV8v67Tz0T4P+jNiMhaGL1zEX4nVWQ31QKDKWBBF3ybdHQ2pvKnCDavTx6UKszDI3x+ua8ELP4QMHwpYLYMPcFKQoPQJ/MbRYB6SR11Z8p/Eq7nk6U6IQR6UPMiAyNGfPhZJT2YMGpKIDN01UUIdBXxtLOVwkPVSgWAEMDQbKEZJXLBXELv9IJeOUsxxCsNNHW58HxoGaLowF/7jwW5jtoNYM6t/Sa+96y+gq5WwiCCBBBECqCKPkPAGoLpD59/ib4QQtee0URnw/F0/D8/qmESGrNvdcMxLuXgSTOGWu6ikT5sqY6j0Fe6NhyCHINBU3N9tJbVjbfIwejHkrB4eIFcftDQTioBQlZxFJRLJA24VzlKaJSZZHJmLOR8wBoS+Smz0F9N3OzB09Xxc3VMwJM5wUhjfOCjMJj0mT0fThBNIPKWF5rGV5zHqvLC4prRXUw84/e/0Y05I4hCCJABEGYknvuXn0lA6+sa/z5xVXMLSyPQ68U4SkZIzNvtLkYSwfT4sEaOOpDG3qlq1rkGLbjJj7yVa70hnTm6bdzYrpedChDnqYtwetQ9Yr2+niQY2K8qqdHPqGfbCFZtuR094IDRtFpESZZMWUWDGQRCsWUnUm8ILCIBsO6VkFTXoVwPES09fnar2PB/AU0Gg0s1FsV65nb51a+Ve4agiACRBCEKWCAPEq+v67xfT/A6XMX4bWWQEEb5jAQk/fDYLSNZyXhLpLBVkE4kCU0JmvMYkJDVhXSowkRomz/CiJTSJbGIIfOy2EQGxN7QaAZVz0W5ZsK6rwf2j4gtjLGKtFICqOfHIRjruyuJWTPKRTLJnYL61fhBYFT+BXp1jWW5M2J+AkKGiTDLcS9KzVbHg343TNYmu/U2qCQgLvvv3ShK3cPQRABIgjChLz/LcuvBegFdY1/6uyNCBrdg2o4OWPK5v1QJ8cWhQjHYc7AcTECTUnnefHhGspDBk8HDF4PQO0ZUOWHKDwNsJTDndYT4tIfROsZMXgoVEKEoGkSqWsUCbUIQd741s/LGNmWYgdE5uRxt4T0KrwgJnGjEDI60aEsyWsZY4Iop3jnCXC4Xev1zO+cgtfoYnV5oc7N3LAd9/+J3D0EQQSIIAgTwJfgEdO/qWv87twCFpZW4c+dzZbcLeH9gIuxxgni3SfHJUJ1oVeuCehmIeKezKzL90hV9MqPZ01MhzrcqIwXhMp6QaAZS2Gc6hoNQiFESB2GVcwNAaANZzN5OOBW0UpZGct0jpDeONd1Rnc6vyfxgqi9FWSsYAXDuAph4jJGCaKtR4AkrPGqRgjmb0Cr2cB8t13jVvA991w6My93EUEQASIIQknuS1Zfh5qaDhIRVs/eCK8xP244CIfKV1nDxub92Es8j/vr4CQqGkg2I5DInHRO+bCVsuVc88ZiKuTKkg+RNd7hlh8CR69FvnmfrjJWme7osHQ3TwsRo/dD15NFE8qWWU4vPMzfpy4sS3XOAMVQrOK5YS6qMIkXJLsNchEyGkFDxt+dLrwr/bknT/LmJEa0/Wit1zUKOvA7q1he7MKrLSGdz3px9E/lLiIIIkAEQSjBO14HH8z/uq7xF5ZPo9Xqwp87UxAWrpWvXJ4OJ2Ev1Wsguw2yGJVkMCCLxpo+Qd0uPlLGGxmM9LzXQxm+pBlf692AoZwulBWsKBfqpRQormJElYNClCrrCmhDz1QhcAfKE5M1kDQLyYNvVOdN0UwrVa3K9Ty3CQN9BSt7SV5Yfpeq35tqI+VJhttI+mu1Xt/87hn4QQOL9fYG+Z57Li0vy91EEESACILgyNlnLn8TgGfWcgHwfaycvgFeexnwGhqDCiW8H8WFiUZPU0d5H8V4fFIZbWXCagjFnAEyiQoX8QHom+cBhT4gVuFhz70gKptwbk9Wp5yoKX6vGjGkS6LXej9y34fB+5H+jslBeLjlg8CYPE4WoTC9F6Rk+JVJlBRyryxhWFRfGBYARNuPg+N+fRc48uF3z2Jxro2gvoT0ZYrxf8ndRBBEgAiC4MDI+0Fvqmv8lVM3wA9a8DurReunQu9H3LuS6i9Q4mk0KUJJyBbLrwgnMiWla8WHpqdHuqKXqTmfQYw49eVQ5XKkPSj5TuoOyehasVPYTyjHIYv3I+/N0QkPa4lebSiSe8GC/DSCuRIWVeIFURv75DQuNOcvzGFYGm0DYOowrBGMaPMRAEl9hkh7BdToYHVxrj6dA/pnH760uCp3FUEQASIIgoWzz1z+FgLuqGPsRrONpZXTCLqnAPKVwsFs/KiMnqL3IxlsgsOeUmAoE88LCcvQ9EsguJZkVe+3TXzohQSpqkNZ8j7S4VTahHBNuVxjt3mXvA/SixG1YNI3DSzmhkAvHHQ5G1oRMuH3DEVVLOX5oDiHHb0WZPRWqISy27ggQ9lcU5PEGVTD2pcg8QDxzpM1XukIwdw5tNtNtFu19Q5cCuPgu+SuIggiQARBMN30ASKm765r/FNnL4KCDrzmkkZMmDpG24yy0XROYsT9tSni7k2eFVWzt+JYpDB4y4mP9JHIhyLB4gWB2eNAJQRE6VK8eZEEpUfGTYiYckPMXiOyVLvSf9cuVatMHc51CemTeEFKlM51KslrWF8xBtm6mzuFYU2nQuLeVXC4U58EaczDay5gZWneELY29VX126QiliCIABEEwcAH7155NWrK/ejMLaA7v4ige9rQkwFmMaA0gLKT4t0rAKtFB1nKoNJEZVRL9IooJT7SSd15w9QxbwJwLMMLt8pWU3g/TB6arALV5cPkQ7JMeTPQVDDLf98W4WEUnJppFZfOpRIVrPT2vq2CFeDmwXANw3L5bbsRbT+GOkOx/PnzaAQBFrqtujaxQnH4D+TuIggiQARB0JAQ/kVdY6+eugCvMQdqdM3GD+ktGyKzEZYMt8FRr6T3g/TCRlv1CrBXR6ISvSZU4gMo5j4Auq7hduEBt7CriZsQAm6Vr+AgnFQVwaARIXpPEzn0aHEJxVJVQHNLSE+dF9pz3ta53DRPV5LXZfwKw7BcBcoEcDwYPVSoCfKa8DsrWJzv1uYEIdB33XMJgdxhBEEEiCAIOT7w5qXnAbizjrG780todbvwOqdgCtmwJp+bhAPHiHvXtGKGLEntpBUiqspIrknJKlFjb2SozvfIbysVbpU5iG75Ifl56ST1Uv+0PUJgFB06IYL8Z9HkfpDjMSVbWV2HogOkFck2EeuWC0IWA55MosQiFsr3BMkJaq3AsRwD63ruxLtXwPGgtmuf3zkNPwgw3+3UtYlbvXj16+UuIwgiQARByN/k4dXj/SBg5fR5eM15eEFbbywpjRVN6d3M8mPvR+/qqOrVND0SbOEzBs+KuUM29sUCLBWYKP8kXldeFroytbqO4nmPCTKCo3jMXD0f2cpfBEPDQqNHBNCW34VKqOWPp1rMFXu+6Ix5czdzs/cLxT4uufOHbOFXpgIM5Jj3Yf0d2USCy1guDwnSsyqqirX1+Rqtkgb89gqWFjpqL2s118HvhiAIIkAEQTjgnkurNxLwDXWMPT+/PGo62D6lMXqA7BNzlE56TaJdJOGu1nAq7/1QiB9DDgg5GLfqjt0whBZB4TlJG+lQztt/r/CipEWHVWyUzfnIe2byYiQfTmbMZ1GU1NWEXZFDOJtLN3Nz9TOT0T1lA8GCwW4x8BV5H8bO6MbflGsYllp0u4mZauCoV2uDQr97Gp4fYGGuXc8GmJ///jctv0TuNoIgAkQQhD1TIUn+GYBaalEunzoPr7UABC3Yw6/UxpnaANu/s4N7a1rjbPqO07rxXEqwasq5KoRIwfOh8YIoq0dZyvNaRYdDg8HJE9FhECIw5rboPyuK/VEM3egLlbGUVatMoVi6hHRFqJSTtwJmUaI7PZ2rTlFOZGiEhFMHc/1+zaIcb5po50mAo5ouggH8zikszNfoBfHon8vdRhBEgAiCAOD3L60uElMtVVrmF1fQbHXgd1YVUe2uoR7m5PNksAVOdEaJput5SiyQpdypvaM1oWwX9byhWHgKTTqRoguvQlFM7Hk8VJ4HZZ7GpH+w5pfohYhJRAHmvBCYvUcKY5yMVats04DyIX2Kc8lJ3JYVC7aeIHnhZLXG1fuMkvtXNRwj3r1c2/B+5xR8v4GF+dpyQV7z/rtPPROCIIgAEYTrnX6c/D0AS1WPS0RYOXUeXnMB8JsawwlwCr9SGJN7BkkyWNeKA7XxNWm4DEqUYM0eB6sQcUhYJ004lroPRk7UuIiOab0gJkFiFCKA2huSFyGuyfswLktawUAlihHozydyEg3qc03pBdSWznX1Nth+F3nPjYtXxFHMVNQPJE3cuwaO+/VcDMmH31nF4nwHXj1eEGIv+T/kriMIIkAEQUA93o+5+UU0mi343VNWw2ay8CsaVb3ixCAOzJW0yGLY2b0fmn0mVTM33ZN7sgoRffJ6MddBn5gOODUkrNT7AasQMXk/zJ3goRRNpE3yB9xzOMhYjlnrBXEoq0u2zuUGIU6lmv9ZqmEZRPM0Yib7u67DO8KItx+v7Wrod07B8wLM15QLQoxvvv/Sha7cdwRBBIggXLfc++bVLyfgi+oYe3HlLLzmPOA3NEaMydABbOFXHA+RDHdgCuUirYGpMTQLY+i9H6TpfG3qop434khpGJOD+ICymhTl8yu0id+Aqlv5QVUslC7FCypRiSu1HO0dByLLsdB4OBwaPxaqkVkbUkJ/zhI04YSopIKVc2d0h7GqKZ1rFkbOeSAVkoQ7SIZbNT2P8eG3lzE/16mrO/ryTtL7G3L3EQQRIIJw/f4YGd9ax7jt7hzanS689rLGSCkjRNTLxr2rIGJnQ6lg2BdmKxKOS5X0zRphZOmiTnkRoBjLLj6AQsiVIhdEFxKV7/tRzguSE1Mp4aIXHXlRhMz62n4nymRyk8cIcO5cbq1uRYbz0VGcTnTuW4x4ZS6RTdCbS+fqktndzHDX/a2GeOdxAFzLddHvnELg+5jr1NQdvabrriAIIkAE4cjzwX95eoGJX1fH2MsrZ0BBGxR0rZaHNWY+Z9gDAId9cNR3M95KlvSd3MAkRbdz3b4US/kaqzYZhAgp+4kojPiUt8MqOFxzQTSeD0ofI1svEGVIFgzCzHRs0oLGLB7JIkbKCVSgTM4GWY1+QxiW6fdCEwgD199hJaKmQhs+HiLpX6vJSmnAay1ica5d1/7fKcnogiACRBCuS5JW/AYA81WP22i20J1fhN9eNT+SdfB26GyeuH8NtpATMhifOsOwYPdax7AltUPpRSFtJ21THoRCfGi8CdAkeFO+KhgpGv25eEJclk+3OFR6RIBiBS9FXog1MV0jKEvlcExS3cp8brgb9C5hWI7GPvRjVpcHYhFb2tWrD8saVcRKark++p1TaDQCtJu1VCcHe8nfl7uQIIgAEYTrDq4pDGBp+TTIa4Aa886GEUoYRkm4C44H6sZtjuVMycUYLGV45bwfhf3XJK5rKmhRwWAji/jQJWeTQnhoEtCdhQYcloVCiJgbCmaPod77UaabOVn6uNhLNLsJVjgLVlRewSo/JpUJa5w0Ad1Vo9ScD8JJhKRXjxeEgg68xhwW5+vJFyfG33/Xt6MFQRBEgAjC9cIH3rz8RSB8ceU/bt/H/OIqvPaKvnJt4Y2t/G7W0CyEXZQOv3I1AB2ebE/S0NDSEE9bthd5w1lnnOfDrQBlmVs4ejW0010aG5JeiGjyWYr9VfTCgwDNfKBcU8nJvlMqI4Bz+0TTnMOmz2lVBVQyudoWNlZin2og7l0GOK7HWOmcQrvVQDMI6hj+9PzK6tfK3UgQRIAIwnUDE/3jOsZdXFyFFwTwWstwjzt3N1iScAcch1bx4B5+VTQeqYxhmjP8yWKIaQ1mg5Ft7HWhrRyFotdDKQoAtxK86cUcPCWF6ch4Pwodw0kddkWG6mD7MoXIKBTI0Hdj8kaVmvNW2Ydw8tK5ej0+Ya6Gy+9xqo7ms01EBwBO4nFIZg3GSnMB5LcwP19PSV5mlmR0QRABIgjXB/dcQsBM31D5wAQsLK3Cay4qYv5dDRFz/sd+08HSlbRcwq9cDEpL2ApsHbTNlZaUTfK03b71XpBCnkd6OTI3Iyz7z+hJMXQ9L4gQTdgV6coYG0OxkEuKV4lCW7W0SQWrwYC3jJXRayg5psvytXguJvGqVEvSu1KbF8Rvr2Cu0wJ5tXy+l33o0vxZuSsJgggQQTjx+MnqVwFc+U2v05kfNR5sL5U0znWLZw2oJNwGx8PpjDPL091yITUu3dNVicVk75iuMqytXdQpF3JlaPAHnegAyjYj1IqRjDWteq8RIYrXZPzsurwbi3GtrIhFpc8ZlDlnbGLY9rtx6jru4h10+G06i3rHj+D0o5+MkRdkrR6Dpb0EIg9z7WYtl+M4bny93JUEQQSIIJx4mJPX1zHuwuIKKGgDfrO8sePwZDYZbDoZRlSqNKjLU2K3pGKy5RbAUi3LKGzSHb71xjipREl+TG2VKkuHdG3uB9RixNiPxCBCSomu1Ldeygvi8L2WLVqgOX/MYXfTihm1QColbGhK4eHUEb2kYJmApLeGWvqCUACvtYi5bqee6zHwegiCIAJEEE4y978RDYBeW/mP2vcxt7AMr7XkbMyUMUo46oHjAcrHpk/WeM2+v45N5khnhOq8H+qkaVKJk5xxrhQfSqMfReFRpgSvcR1kK1kVPDEoKUJ0SelmMWL3ghQN+8nyhhyN9crEcMnfz5QldMsID3Jdr64HK0mEZLBRy9h+ewWtZoBGo5Zk9Ds/eOn0Bbk7CYIIEEE4seycXXk5gNWqx11YXAF5PrzWAqoI58gvEisNi/JChJxKjpataESWTu9kCeHSjWswnJEXH5a8EDgIg3SZXCpZ9Urb8BAHJXWprAgpGvDmCmS5hHTrMdWcSxNUTnPvG+MoZoync0WeC8Bx/bKeFcy8Etb+daJ3tZZxqTEH8puY79ZSNddL4ljCsARBBIggnGSonvCrpRV4zQWAvCkNkHzOAMBJCA53HYxHV+NKvbw1mXiqJ+J6o9Hu/SjfRV2V76H2esDBq2ESG4DK+1FMONcLj6IIgV5sGTqXu3zP9fSOcRQxruPa9oXK/p5KhEzBoTLdtJWwaoSjPjjcrsdwaS9jrtuuJddewrAEQQSIIJxY3vXtaIH466oet93uotlsw2stOpk1ZQ2ZpL+ut/mnNtJKlCetrKv1JCFCBHPeh8FoL3hINH1DXDwbJbwfB9tALofFLEJs3czJ0pmeXDuXK84jpzCsCcTvZHkgExj05LaOMT9+YgHhWAmrZm0S716pZVy/tQyPPHTbtXhBvuK9bzp1Ue5SgiACRBBOHHNLy68AsFz1uPMLSyC/CQpsSZqTGDYxknAHZdJqs8Z33Um/tkaL5jFtxjIZG+bpyvaSRnwAxr4bmfwNOBXgdSm3q+zerm1ECE0oFjBZA0GDSJj4+y/jQZvkXLQLJRfhYffYlPx90iGqihKMegX1a7BcGvCa8+jWFIbV8OLXyV1KEESACMLJg2ro/QFgbmFpFH7lbJK4V8BKhtsAs94oK2FY0STGX8nqQxOP6VrS12Z45wx3Uiasq3pvKDqVu5TgJU35XtV2TSIkJ6S0DfFUVZUsoVPKQ60zui3Cwy2HqCgUS/xIS53fTo08XX4fE8cVlfiMM9QoSV2NCVuL6DQb8GroCcKgvyk3KUEQASIIJwq+BA/gV1Q9bqczDz9oKAWIXXPYPSLJcNNi0DsaOGQxSqcxsEqFX2mEg2I/yfK0n0xGpLFsr6YcLymqZsE9GT0rRKAXIcgb8vl9xwRiLCc2qdz3ZK+i5mrcl81HsgsIs+NhmnwLx3WnDQtTDlOvGon7GwCS6o2X5gLg+ejW0xPkyz58aXEVgiCIABGEk8K94dIXA3Su6nHnFhZBfgvwW1PYFOoKWBz1wXHoaPCVtYLcBYw1/0O5vt3ANYowJ4PboSytoWxvOtRKKTqM3g+oQ67yXdiN2zbsa1qHGL0gDqKklKfKsY+Mi0FeSyJ6ifOeHNalSX+vJbXKFMJlsicusbpv0LSQD68xh26nXcde+2EcvEzuVoIgAkQQTgw+0asqvxcTYW5+Mef9qC6OfN/74Wz6TGJUTeNJcU1fdzkmmkZyxtyPvOigrBFtbOiXbxaIouhw9n4A+ZAuNxGSFx7QihG9IetWwcrtPCrruSgXEuiciO5yPtEU606sMyYRWRMvPDX1hWEtodUK4HnVmzLEeKXcrQRBBIggnBjYo8pvbO1OF74fjHt/VGhsEAHM4+Rzd1umVLflSjwpZgNUafY6hfM4Gt+a0rOkNeaREx954WDucm4UJ4rcDzIKD7LvK/KJ3a6hU4YwrNLH2ixAy53101SJmtZzMK1woCl/2bNPUk/C3XHz0qoFyAKI6gnDYuJX8VHK6BcEESCCIEzKB753aQWML6l63O7CEihoA17DYNxNZo+Mks+nMVwmfcpcpgSrxUA0fXxyKemrMJAdvB9ZQ74Y4lQIbSp4QWDxgsBcglcrQnTfS4myxFqRV0Hzv8qLGVQhHsr18NCfP5PKhWkeJFQhnKYUIbV4QbxRNaxOLXkg5++9tPxFctcSBBEggnDsSRr+ywEEVY5JRJibW7Ann09oxCTDrUqEzORGI0oatBrBYNuGyUiboJIWOXVR11WpKgoKGnsSaK/iFaWL8KbFCBxEiKpHia7B32TizO04U8kzdloxiwmrRE1ruNNkcyv53VWx/xVc+wbrGD/JqNaIaS6i1WzWEoblR9WHywqCIAJEEGYOA5Xf0Fqt9ij8qjFXiTGU2d8kVIROTPEklczbd8/jKPvxJsspIKcn865J19kxSCcE9oTE3lJj0VH0gqBQghe2fA9nUefaX6OsV8CSBzKt54KmO9+nOm+0H2jSXiCzET8zu/YlMdgUyjmxAJkHEaHTalS/z57kgQiCCBBBOP7igwj81VWP25mbB3kNwC8ThuAW9sLDnZoMm/K9ErJ27xQdoqsI6dJOMXkLcpWWdKFQ+XK8qrAr1faIFD05iqFfZKrklclJsRnVVPKYT/IUf5oqUROcI1T2RDTNqsLwPxniY494sFH9oOTDa3TRrqMcL+OFv/s9K0ty9xIEESCCcGy5780rXwDgQuUCpLsAr9GtZZ+TcNtiz7iEK9VvYM2mdKp7bgNZqzKpxso3/9Mkl5sS0Wkv4Vudc6I2sl2MfJpANGY/X/lOFZNWiaIpz0vC0TD8acpNHMGmhIMt1BGGRc35WjwgAIJWg++Su5cgiAARhGMLAy+uekzfD9Bqt+E15ys3dEbhV8N6LJgZGoxTN4+btLN26UpaqVlkyOvQleBNjUU5QZPfHyrd/M/t2JSqfmYUeYcraGtdwkkUnNDiS1xfGJbneWg2g+p32cOL5O4lCCJABOHYQsBXVD1mpzs3MiiDTuUmGQ+3Z2j4VSVkyg1LjiLGKn7IvSkiweKN0DYE1Hk/UBQh6YTy0tWmzJ/Jqf/LRMLhsL0OZD8sMxEOR2WMeqgjDIv8NshroNOqoxoWfQUEQRABIggiQNICZB7U6ALkTRluUZxRCL86FoYTTbnaNEnDZRs/WjqK54WIzguiFCH5bZQQHq4ftTLxQBWsOmWVqBMlHI6296S+MKw5tFu15IE87/5LF7oQBEEEiCAcNz546fQFBm6pXoDMlah+ZTNVDt6Nwq/CSoTMsREhJcYwf/yyBrkptySb47GXmL73pxYepuaI+ZclSxXXIvimHfq4tOMTRheXusKwFtBsBPCrL8fb2I57z5MvThBEgAjCsSNKksq9H612Z1x+t1u5OcXR7mx0RG1W4OEJIWtYl1NyvKLGlqIULxEZRYxzuNREwoGmPGzidbheSYbblY/pNeZARGjVkIxeh/daEESACIJQO8TVJzK22x2AfJDfqt5ACHeP0MGbdJljbJwam/Vlw67IufmfZX9OoA1NsrfXjQAB+aCgjVYdiegiQARBBIggHFNq8YB4jU4d5gE46p08Y+wI2HdUxZr5MC+a9UGQp/0iYqY06OMBOBlWPq7X6NbmAeFLYi8JgggQQThG/Pa/ODcH8BdVPW673TVWv5rYOIj6APMhHzU+FkPOZhc4uybnpvGsDwLLj/romvbHZ0+H1eeBUNBBww/geZULsZX7olN3yPklCCJABOHY0OkMng+g0riAIGjCDwJQ0K58f49U+JWrTcVH2djmCVdhzbqcEogMdhEi7LA/MxcyYo5fz8IuGW5Vb9A0uiACmo3qw7Dg8QvlbiYIIkAE4Tjx3KoHbLc7GPX/aFduvHBVAoQrWuY4CYfMWhoBwba11esx7wmPgz9OCZH9P3bZFE8hjKoSMnysv+frWTxUIkDCneqPm9cAeQ20mo0arijVe7EFQQSIIAi1wcAX1iFAKGiBpoz55vy7JDKX37XaW0fBmKt/H8wfv6xxrxYP+/NSooPHomPvL7tMbjw2ix/WCZ5ZeELYYf2ahQyLgDjkC2NS3cOOFNTo1iJAPK7+Oi4IIkAEQaiTym9crU4HXtDNGk9TeRxGM5Kof6QN/9kYxKweiV0GKWNQF/M4uCA89t5yTtywQmioRIfGo8Lm/edSh5mn/N4Yhy5kKtEf4o0pS1JDsQuv0R1Xwqq4NDnw1+RWJggiQAThWDCqnELPrvRH63loNlughlv+R6ln8RMLkMPMlbCs72SbTmoEG7wNmn1kbQI5q4VHXmzk/wriY/SateLK5u0wfybnsC6u6Ps7BPE6cUoRiwgptZc1eUCICM2GX/XQq+9906mLclcTBBEggnDk+VB0+nYA3SrHbLZGwoP8qhLQeUoBUoVw4CmGZatZbDYYeYKPpwuZUq1nM/yzY3Em7Apm74fGC8IZUVIUO+wsFsqIq3xY16TnIk9xelUhQnjKLfD0u8jXR0hYJQ1P8wLEbwHkoRlUn4ju+4l4QQRBBIggHH0ir/obVrM5usGSV/ENlhkcD0saT9MIh2kNRkvIELutW+6zugkPtoY+qcY6MPY5I44M3o98YnpafIDVQos1n8kmREzHzEGk8UTH+jAEbVVCBvWO4RInd6iFIBw2ncTgeFC1BAH5LTTqqIQleSCCIAJEEI4Jld+wms0WyG9WYNzk0nDDPsonT1e3fduwnBNLU22Xp99XVgg4s/GbTiaHUnikx9lLOC8IEbBGPOTEB6uFCJsS3vdCxNj0BXBJgWAPU3MK6+IKzzFnIVPutK8+sf0oCKGaRUgNeSAUtNCoPgSrluu5IIgAEQShhrsrV37DajSboKA1hY2hie13Dr+a4gkz283NqY1KntIY5ZwxPuHYXBAe2Rmsq16VEVhjuaDK+Uh5RTgjLHLiw7APejGmFg2sNNLL5H2UTdQv+f1V3g9m2nLF0xQ1uD5EyKgcb8WGjd+uIwcExJKILggiQAThePzAqhUgBDSbzVGcc8XGiDEUYqLysmpjbrIKvmVyLvLGn6OBbPVgaMZmx7GURn9uHFaEXKVL8I7FyOgvMxWFXBAUhYg6NCwfvuVwHLVCxLUporsXpSCBeIpiAaWE8uxEgP03MW254qMrQniqynuay2TQgud58P2KO6ITnnH/G9GAIAgiQAThqHL/G9Fg4NYqx2wEDXiel/WAONkddgPGHItdzoCp1misIGTK9PHZNRysaGSrP2eumhLrjX5WGeQaL4cxAV2VqK4TH2z6XlidmM/2Y8tlvzee7PuaTsxWmCA/UZUvnmirU+97JQ8Q6hIgg8r3a69Ba6P6RPTmxtmlm+XuJggiQAThyNK7sHQTgErjAJrNkfAo5wFxCV1JwEmkss4xeTLspGEzkyQgs6NxbDG0tcaxrYIVux27QjJ4OueCNftmSkKHXpBoxYdaiLB2Xzl7mJ2OS04oOFXSKuuxMnzvcPA58DQhXdN6AifW9rCWC67iejBbCVJ9IjoFIM+vJQ/EQ3Cb3N0EQQSIIBxZkqha7wcwzv/wGyBy+em6x9sXq19NU4500sThkk/Cc0913fNH2HFMLtrHBeHh4gVRlNXNCQKGuqJVdppCbGi9IHAQHwovhdb7YRZhXKqSlstXXDZnp9z5w65C1OV8msien6bK1wS/lSMuQmoJw/LbtVTC8olvhSAIIkAE4ej+uvzKn5Q1Gk2QZ/N+lDeKDgTIrEunlunUne8z4d78z/ZUnU0hKsbSuXlD1jBN4f1IG8D7/82LCFsJXoMXxE18KBLitd4PW66HLTem3HfOLo0epxWyufVmU9J5WrHu9hig1O/iUAXIoPIxKWih4VfvAWERIIIgAkQQjjIM3FL1mEEQANr+H5OFPDH28j/KPnGe0OCzxKNbPSsTNv9jYziNuXQuWzqXs0V4sFJ4pAZkVpffdfF+aIQHZ8SoriJWPvQqv+8mAWfL9TCEX00UdpU9Hux8XlbgSXHSIRU3YCylKqbM0Trsa2VcvQcEXgN+DQIESfWebUG4HgnkEAhCXXdVrtwDEgQNkNfQmBS0/z/NXO16+x4Q/YIGE4ZcNpRZj0HqxQrrpw1T0o/NAMh1nyxjMqemUW4M3bopgUGUG2f0vTDxeAg62Nf9cWlsYB/M29sSOT69L4ogIB+OVewbwhrjOeuZMXk/2EkcasKvJq6kNV1TxIlFgZPTrXyPG60AnETEHPHmg8rdqSUEq4nA80BUcWN5D5IDIgiV/JQEQajnx0UVPykjQhAEuSaE1TxxtXZALxihZWwchzCaqQ1RVg9TYky2VH8qekHyid5Zw72wf8p8DGhyP5D1iFj/5Y6zqot6rtyvUnwoQ69Ux03n/TAl5Su+B+1pPNn3X9iU1kgvU9Z2kuR4YLoeIJP2SzmC6sLlWpFEAMfVXi69BkCA71XsBWHxgAiCCBBBOMo3Va72SVkjaIwemHsBJioJqluYEyCJHdZhs62lNfZcd6VEX4gJK1ixNneD7cYym4zjfCiWrtdGPq9BIxJUYoRNyec64YFsWV/OiymV+IC2i7o6R0ifF8NOJX3V5zEbhY7pHHUtnlBWiJQT4K6d47kiwa8+r8tdCg5XhITVCpDxg5ogqNzMueGeS7e25Q4nCCJABOHI8clLaAK4ocoxg8AfWQxeychJW86F9sZf0dPiCYxGnmRs52pI+s/FlgaCrBEeetGl7uuxPxJrvCFsq3Zl6w0CrcCxiw9d6JXifCpdklgnBl28XummjK7nIUoJF/cE9EkrYJV7cGAN65rWk3KUHti4eGHLKRCA/PF1s9qRA2xLLxBBEAEiCEePK9HSxap/X0HQAMgDuYYUuDxBZQCF/h8lKmHB1ejPzVD1nTCJBdPOsMGIdE2YLlV+lo3Cg1UNBTMiBDkxwAoD3VFouHhK9kOuUlW2nMSHziOSDivSiQ6T98NmhJf7vgunlk60Tli8wHw6TyLSSwoDjZfQWVYc4SaEGeKw8iHJbyCoIRE9ilgEiCBMa9PIIRCE6mEKThOSSsf0g+AgAd2Y7L2fvmw2SvZypZNwLxXdvl5m/bKJ6JxN0tbuk2JcVm1Cs33d/hXy9DmXBL5ng3NqF6kw3kECfT4hnfdfj/LT05+Xc1/LXmYsgWn0f0obsZntc1lrMyUm9uVAbloZ8aEKvXIoO2wQd2wp6esUfjVhU8TyuUg2QZ3f3wmESMWeFHZd7yhdM5M6BEgTgV/9c1bP41NylxMEESCCcPRupsyniCr+sQYByG/YjU9NtSi1LuDxjZ+1xn7BciST0V8Y/UBTOAuPaSpYjYTC2KRXjKGoVlX4bGT+vMzjTVNW6Ozvz9gTQpQSIWkhxNn9TgkjGDSYu/7Ieyh0wgMlxAeMXdQL37qxC/zkJX3t4VeuhjmXqKRVpihCcflSHsRpPSkOXh4nsXQY18yqQ7AwSkSvpxQvn5a7nCCIABGEI4dPfLrq27vn+QB8uEoLB0t1tN5e6IOT8CD1rBpK5x6sqvZkWIWRwaPi7gWh1A7BsawuKUTIeBppvrL9r4NSJnZKwJT6VtVekNLiA+rXbBQi+RC4sgn+luaDzpW0SogGU/6HyeAvWQlL+fOwbaO0ECmbeH50REgdHhB4PnyPqt9XEg+IIIgAEYQjCZ8uLwososYf5X9ow4+MAiJt7GcX4jiyWiravh06UeNoARXGVXkrtGFYDFKIB7tHRecFyYqM/eOs7O2BQthV2vuRFSF7q1BKraVFCamNWpq0OTarj7fBC6IUH4ocFoapm7tJdCg8GOxi1JuqlBUNb2vxgglDuXgag98ytv4nUnYbUHx3x+iKWUcOCAXwahAgBE8EiCCIABGEI3gzhXeq6qeLvu8D5JXdEa3wSN35c/Y9Zy3gKZv/FQSTNnSqaIHvb8IlhMokbhShUpn90ooRdVPB/XwQpvEiinyPlFDh8fKkEoop78fkpZX1x6EgPAriQ1GJCxrxwWwwwHNdz7WVr/TljdlSKICdvB7q48c24TChB4XZdUzNfto0iG6dWnuJHIoCAZCg0todng+vjmaEkBAsQZj65ymHQBCqh2pw0fueN+4B4mJAOFTy2bc3Y0zT/K9gJ+n2Y4KKRoVxTEalY/lX/XjFcdjWGyNd1rbgNchth1MNA3Vlclln5LPhAFrK9ea6n+cbHE4kPhRCQ9tfo3RPlQm+U1aVrHU972xRSZPkf5QQIqUsY1Olt5K/r6NIUnEzQvLH/6/c1BEPiCBMiXhABKEGmCu+QRGNbqLWG6k5EV1tACWpJ/2wVLAC7BnuDjkbTmFYJq+JZd5+YnfaC5IPn8p7QfJhVEAmFGvv8xTyQVJJ6QrvR8ZLtBd5tf8Rc7khJqPSlJ9js3jz4VZ54aF8bxMfttCrbPgUWxo5sqGhYbbJo4uwUYiRqQSww1iKMblkaWq3pHizqDD3MjnaQoQ5BqFR3YDjkuWeR0iSSq/HIkAEYdqfpxwCQagDqtRF73veyAAlf8ontLmF9p44Wg0jV8Nmiq7WGoOSLZ/V2tmaTU/eOWsYK3t7OBjcnPeE5NbnYn8Pzhvdrs0FnZoRorCMtvkhNM0QncVHruqV0kNh/g7cvB8l8kEmDr+yNUy07aP7b4NhEpSuQgQoU8rX2tjwsKnJA+J7FZs6LCFYgjAt4gERhDpgXq0yB933RsJjrwlh6b4dmrquzHFhKXKpAVuqD4glp2Tfg6DbnsmjYk8oZ1Aqj0S1L/n+JEWPyCh3XJUPkn2dHYZSCSx5D9JBEjpT7ihyLhckvY7p+9XUp+XCfJPXI71GGfGhExr5xHO1SCjv/bAln7sLXX04kz2UyypsYHhYYP21Tphbwsco76PwtcbVlu4Yh6zWkIguHhBBEAEiCEcQ4m6VVbC8vWZa5MG97K46HCuz9v4TR9eqWnpxki3HawvDsoV0ZcvqZpPRi+FX2oTyTF+Q9L5klzWHYlFKhKiFR7Z1yEh4KAtxqTRj7uMUjm7JJoSsFSWsmK722rAmHEsvPvTeIdaGOVXl/TAJBdY0TUTJBO+ylbRMeVGTiIUJ+oocRyFSsQcEIIA8+NXngMzJTU4QprRr5BAIQg36A9SqdDxvZAQXkimnDcnYT0B3G5On6EjNVsNociOz8HlVCcGaJHJzKJYpKT0f7pTdF7blV6h6bqTCrJjTQVru/w5Cr/LHTTM9H6Y1ifiAS5ia2jhmi+hw8n4oDPVpS/oeiCedGJn8t+C0X0Yhov6M05cLPlyYo+qvxeQB1XtAvHe8Dj4EQRABIghH6kYKVCtA9n6q6Sf7zoaXwTBPZ2aqcioqSeC1Pe11STLWlSXlXMSPPv+A4RAq5PREX5fvUMz9YOasga2qMmXK5eAyf7CPY5jG0CzjIj5YIUTSx1wZepUL39IKVJOBbgjdspT0LZ4T7oZ+9jwoX9LXnv/hEnZVJik+3cPlCIuRWvqXUA36A3jKsy+0IAjCxEgIliDUQ7PSW2iuetOeXeGcB6LtB8JTVbDSh2HZuqEb+nk4dTUnY6fz7DiaDueK3iD6fh7ZsKuDcZBdPrOvB7ke+13Tcx/BflhtuR+G46ocmAsJE2zMBVE0LTSJj0IYl0oc67uoF0WpvqGhsvQus+JolOysXoEQt5elZrPDY+KSvvZTw/6U4jAFSFL9mESankHT0evvtADsyq1OEESACMLJFSDjWGazBauwODR5Ftmmg+XyPw6a7+kEjk68pHIxNKVzD8rZqse1JZSru6PnhYRZeDA4mxCvSTofiZCUUEEq6XzP2M3sQio3ZH/302V4NR3Ry1lwFlFiER45sTGd+FAIDVhCryxd1JVGv2uoVU4AqO1xmyfRJmYUgmaSsVz22bJsqVPk6CiQGgSIhxocIBh4rSYEQRABIggnWYAcGNwKZaAVCw4VrPJPHDmvHWwdzIveiuyWXZPRXb0guvHYuZv5aBhSVPE6EDQjT05a4KiTznk8PhW8H9C+LwgRoCLvh0pw5Afn3BP23LEyeEEmFx/FcC7W9gw5+P7ZksNT8BSovB9OOR8WEWGtfmWyoV3Dr6YPuyoKquOV/5EVu5U/vqmcdjOUECxBmALJARGEqu+hI8uxUekPVRVGULb7s9LQYSejSW0o2GJIdMno5i7XbExCtxmeiqpHinwPt3yQ3OdgdUjSXq6HOiEd2sTvUQoG52LzDTkeKJknkjlmqQRzXR5KIfdDIz54EvGhFxrq0CvbuWTocF/Ki6Iei527shfXt4dfQeucYeemiMBk+R9HXX8k9QxcQwhWiFg8IIIwBeIBEYSKefe3ozmHih+6ER08x8uEIBHsZXn15XiRqCwcXRiWpsN42mqz5m7A2LlcncORH0/1ebLTRotxMRQrNVY2H4SV3ctH4WYqTwhyuR+5vBDV8cuEaeU/frYjOhm+RlcZXDTiVaLTHH7FbJpfRnzk8zbKdVFX9u7QNpC0eT9y3pVS4rt8Ja0yXczLj2URSNoxrx+IvFqS0BtxIB4QQRABIghHh8XO6WaMiuvZEzByWLo2/9MLj7Qhz0iKK2fCsAzJ4gbxkA1hAvLhV/t5FpqwqWIuSFYgjOarRI1qf9ShWMXQqry4UYkQaJLUU3b0fkiWIhcEgLHP4/7hToVflTGetI/fVR4EsxhRiw9b3xCb+LB7RNjSRb0Q/sQ2ceDi/YA5+Vx5iB2rv5nCr0pU0mJXD2fpTupHiTpyQOpJQo+RiAdEEESACMIRuoV6YVB1dCPpbs5lK1gVqmGxYiy3ClaZ7uDa8TX7qPWC6HJBilWvCgnpuW7mB80L9RWtDsYoCo+CCAHnxsp2NE/Py34UlRChokVKVdtkOtExifDQvZ9UfKjL/LLS46Ew1p3LMaNwDFgnXhzK9qoPsyJJfIJGhu7hVybR5ChujuzF8/jkgHjwRYAIgggQQTg6UNKIULEHhA3C48BT4RCGVViG1MndRmPWMRndUpLX2QuiTT5XeWfyoVicEiFQej8KSek6EaIVNCoxmNIcRiGiEiPZcKzJTxiTF4QVglIlUMxeECfxgXwOgi3vQxd6pSq7m/18XGhIOYn3Qx/SZO/94ZKLVaajumMolzX66pgIEapDKnAtn5z9KJS7nSCIABGEI8Nm78pwrrVS8d2ORxWrTL0vJgnD0q2YLmubMfpzN/Z9kaEvnVtc15TDgWyzRaU3JVWtCrZQLCrmgyjCrswiBAeld8fjZvqyZLwfufdKIYKaPR+aAVgtSJyEB4qJ9ayrmKWsnqVL5Fd1pVcLEdYUHXCaNrH3g43elDKVtEp1KVeGX8Euapyqch1pBVKDUuBaPCte7A/kbicIU/yG5BAIQrW86j9hWP09dC9fAygbd642SHjfULaW73SuCGSqJqQ28ljzJLsY0mLqcA5jWI/a+C0azKw1pPNGTL5ClqnL+MFyvN8ZHTBWsUJFf4zcuLljy6q+HsUKWIWO6aXFB8ziI9Mt3iRE2JJ47tBF3drvw8X7oRYbbPRYmCtpuYVf2Romugqj6wvmBEkNnz30IxEggiACRBCODuPn6pW65zlRGC+cNeOt9Tgd49jz42fDUkzrugoZ3RNnxTRjN2y4lXpFzmBWhQNpRYiiZG3KEM+KHTgJkb2yvUoxAujL6u6Vv838lSvby5wWHqb9zAuPvPAqCpNCzgez+jgqxQcMQkYlMk3ntfpcZzafi6z1frj/VnRCgZ3G1ayv/Gm7VdLiY5YDQlSTSVKDB6QBfwhBECZGQrAEoR4GqLgXSDFiSpHXUQh1onQyhmJERRnfkqVzMyV5FWFTxVyQbEJ5sTu6qZJVev2DcKlsVSxVPkg6zCo9HmmWQzZkKzPsQcfzQkjW3vxcGJY2BSdvnJIpCEXXmJAtdpdLLohpWk542JoWcs7wNXhB2ME7pc5hcE08V3UQ1ySua70UbPB+cFbgmhLGXR8KlK1+5VRJS3JAqqY/bIgHRBBEgAjCkaPSp2MJM5AkRtFQKE1rSi7YN8Qpqxs0uRvWkryTdC5PTdvfd21C+ljkFPp1pM1HW0WrfFK6SYRQro8IF/NC0h/VlOehEifIbRcHYoe1hpkp09ihG51yWbsYYRjERn49pfhQCxG25YWU8W4xmw1yLuF1U27HNLZe2FjFRkE8uXg94BB+5axRj5oCqUF/JLV8/lYyEA+IIIgAEYSTLUCyBorOW+HSjDBnJRMsDQQBe+ncvBdEVxGrbCUrZKpXZXuDFA13fUUrIJuUbhMhB58JheaClHKPcOE9jwWG2iNiMQrJYJQ5hZCYnrTrlmN17xCj8NC9T61j6SKvrnhVfM2Wsr3q0KusQc66LuqVeT+gUQM8Ye8PXcNFF6EDdcL9sdEfNYRgqcI4K6DTnhsAG3KnEwQRIIJwhO6jwKDKWx6nypke6A1bU0JVyFPWUEnHXGdDj4rhVwdDOPTsKAyaEimabuYHny0ldFTdzLVldWGoYkV2EYKUmEiNyzzec433QxkJpxQiFrHB6hOpvFB1ECcGL4hZeKAoBJDrHeIkPthBfMDqBVGHXpm7qBeFiCVx3SQcpira4JJ8biu1e4LCr4DaQrCSGkb97CcflRAsQRABIghHCwYNq7zpJ3tlXJIE8Dy1ZVoIw3LoXL4nQJxL50IZIuXiBVGHT6XHplwoVlF4FEOxVPkgrMkpsYiQjHijzP4W8kIU3g+7EMmFemU6nWtCrJhKGo+Te0EKwiNjYKvESDrkSi1MzDkfKC6T8SqYw7FcQq/YUgGLDVW1CusrRAdbBAM7CRuDUDCEi53E6ldEfvXX4v3w1UpJXv/Oips9CYIIEEEQKrjr7VQZzszj/A9OIsALcpFQLiFUumR0D2nL2c0Lohcj6r4gaW+CqTkhlwvFKgganZAhBxGSFl6c824c5IWAuaCLCiJCKURyi9kMxKnOHU0OgmIZLsxXhWSxsmN6wVvCZiHCxuUO3rNyjFw1LlMlLGXolVsX9dl5P+y5JGwSk5ZKWmyrknVU8ao2SRjgGHH1dXh35CYnCCJABOHoQXS1ypt/nIwftnGcNTZowmT0sZFNnm8wVKlkLojaM2JKPlflgBRDsbjgmVB2Sc+FXY28Ja4iJJ2nkRZrXBB0qsNuFyKEfEw/mYQGp8aZxOgyCBNWLqcRHhnBkB7DMSldKT5UyxnEh8VboppfCN9SGPBsSUZni+iYzPuhGGqC/iEMm2ByOR+O4mWzYg9IEo3+V70AuSI3OUEQASIIRxC+WuVocTI2apJIHWKlSkY3dUbfm7F/w891DlcZL6W8IPrkh0xCulMoljrfYz/UKmOoq0K2bCJkb+105Suo80IK3hBTGBYVjFq1GDnY/+pC4FU9KFi7TLHELezhVhqxkTfordWu8iFgOk+KLe/D0EU9b8jrE8/1XdQn836oRKC9b442+XzCXj7HBq9aAcLjBzZx1SFYRFchCIIIEEE4glT7hIwZzMmopGRBbzh4LXTziKB80l7IsSiKBPf8kGJZ3oN8EYdQLFUiOnIGvnLZ9LbUwuNgu5zdRY33AwqNh8zu6cOwVF+H0oYsiCrt4gYb0yUXhDXzVGIkH26VFydqIeIuPkzldjk7nqVsr1PolTbxHEWBohAJbGmuySZBA5fSu7ZKV3ohwqZ8kCNO9R6QkQCp2gNCzOIBEQQRIIJw9GCiq1Rx9904jhFwpDDC84YxHxjdpnJLY4OfyBs/KcwllDvnghTFSMYLYkxI14VipRoUghQiR+Xh2BuPC6/VIiRXrncsyPR5Ian+K7nmhEUhkj4cpjK8+WR0wzlV/ixUrFjWC8K5cJ+c8MioJpVYya2j6CyvLN2rrHjFxqaGyrK9Ci8IW7qos1MFLaAe74fiq1B6bxQCa/oT5vCpOAdkzwPCnFQ8LsQDIggiQATh6EFJcrXqkpJxkgBxhLT5TznhYRIlB8Y0cl4QbxQrbaoZa+2Oriiry5xLSM8KBXUoVr5Bob2ilboyFhc6mRfFCrIiJCVwinkhqsObDcvKCpHcuDYxkjm0Co+U7VRi14mqJ/pqMcIKMeLyng3hWMpSuwVvh8rotueFGMv2QhV6BbWYUQqclECp1PuhEyKGzuqs7x9yLHt/7J/jPipvRJjEiJMEXPUhkRAsQRABIghH8l5KdLXqe16SJPtP9IoKw5aMrokFYgJ5ATge5kSCriJWujs6p/SHJmEcedGAbCgWU64qlqqsrqmiFTSVsagYjpVuAK/xfhTzQmwJ5zlxURAi5sPvJC4wjU2pC+9Rzy/keKiEhkZ8FCtiaapoOYsPWMSHySOiESKWfA+2VcCyhkhV1VtEvQ335PNjGH7lNyofkzkCV5+ADkYiAkQQRIAIwtEjZrriUbU3viSOx1VdDNarsSSvxgviN4BQLxKUwqAwDtsT0gv7ZuqMbqtohYLYcBMh+T4hXNRyOVHC4/UI5jAslTjhlPgpihFFknqJkCw3sWL3grBLArpBeAA6rwe0XhB7wvnecoa8kHRZXkteiEvola2niDpXJfvZ3Cpf6b0fXHlJ32MkQLzqBcjIA1L9wSAWD4ggiAARhKN4M624DC8wygHhZKgodJVvipeyfxy8IESBVsAceEFYIWo4l7SdM2BNSeTpsruc6hie90xoGwkqBIZVhBxsg8fbOPhYiryQnChRHQa1EFGLE7MYsQmJaWCFoaubz5bpmspVBrGhFxWu4qPYB6SwXN5QzxnmrOt8zorwLJ2AyR1DpwpaWsEDR+8HDN4PxXDHtf8HAPKblY/JSYg4rqFfoEeShC4IIkAE4QjeTDm6st9lvCKiKAbHocJAnM4LQl5DIRJM42QFgjohXdUhXe/B0OaDpJPSld6UEiIEVPCwZJPT84c1JUrS3hBnIQKtsyofDZVJtq8qDD6Tt2AXJYV5Bi+IXngA9pArk/hI53yoDHE2ixTnvI8yoVewJ6MzW7uel/J+FARV2aT2Y3jNrMEDwnGIKK68CzqSRDwggiACRBCOIDsbG4/OLa8kGLUar4QwjkeNCDkG4Kca9+VL8pbwgjADfqARMKnxC13H80apuZu5XjxAnQ+SL4WLXJNCU6iVrlt6SnikD9yBCFH09FCGV9F+jS4yej9y+885NUKaDh0KA3KiHHTdXGWTCXcvCJs6pGu9Hvn5+q7orC3rqyi3qxAlxjwRhRBha+iVKfEcih4mBiFj3A40+5wvC6zyfhxfz8c+deSAxENENXhAGqCH5S4nCNPhySEQhOr5mv+EAYDHqhwziqKRbbKfMG4wSlzDOwDAa1iNJzYYX0Wj0WToFcNjlP0VoF+WoYv3z75mlTGq6iMxXnb/M2S2l3ufm7a/x6bl8tNV803LgVP/1HNg+mMotgG3fd07PpzbA1Z4OaziQ7FPpcWHqeKVSVwYPrtqvjL0qkQyutH7oQqJ03tWnKpllZCjR5XKQ7DGD2uiqHIBwt5O+yG5ywnCdIgHRBDq4wEAF6saLB6HEnA8BAWdVG+K6bwgBAKTD9qvla+pZJVaQ9W7wxyK5dJUEAavBnKVsVw9IakQq3xXc4VnRO8NyVXKyu16pmJW8RAXE80LBQpUCelQL6O2iWw2k2KS3QuS7TyhamJYxusBmLwgrBSL0IgPNogPXdJ5URywssu5JfQqt3+sFd05IawUEJaHAw4PFNhYtvcYCZCKQ7A4CccPbioPwXr8hT/6SE9ub4IwHeIBEYS6YDxQ6XDMiOJ8HojOQILxiWt+OvlNhRcja7yxzniCQ7dpzj1NNhqF5rh/d0/IQWw+a70fQOFpv84bkpkG5bT9tdNeh8J35O75UCZfTzI/7wVhs0em4FlhRUK40lukEx/545/2grC61G4hpIqLeRRG8VEi70MjRFjrlUDxHDD9HrWiw+79KIbnlRQvx0J8BOM+IBVeL+NRwY44qdwD8gAEQZga8YAIQm13VfpcHZWwEIfIlIJ18oKkvQH5BoI0EiBRL2vRKD0XgKmbubYqVsrjcZAPoq9oZa6MZfOEoFg1C3vLqrwfKJTqLXhDwNp8EJVHJG8XmqteEYyd0ojcDEtlbgcUO50XqfvfjGZevlytfprd65EXtfpcEGXpXudyu+a8EHboH2INvdImnqc/tvkBgDq0Mdf3o3To1jG8VAbt6geNQ8RcQxNC4HNycxMEESCCcHRvqsCDVd/7oigqlOItWh+qSlaabuZ75rvf3DeIKC1QjAnppKmKlW9QyAVR4FLRqlgZy1WE5JsVpvuJpJLT8yFZWZ20v6n9yUYhkp5W7OXBqXmUPv7kcBaVsqAsAqTw4Jy1gqQS4aESMsZKV4ZSu4pwrLxAYIe8EOjyQnRhXcbQK1NPEccKWsa+H9CIF+jHOY7XSr96AcLJsI78D5B4QARBBIggHO27avw5cLVRjsMoBseDlNGh8oLkchhSwmO/JG5OjJDfVDQVzFnk6apRCuGRtsbtZXXT/T/IUhnLQYSAs04XUlWyOqiQhfTHV3pDygoRTQldkxhRCZLM+ePo+bAIDaPgUDbVU82zCI+MgawRI5zeC5dkc5X40AuRYj6H+nWxCSIKgoEn6KJuLbubEwtsSWbXVr46Yd4PAKCgVb0AiQa1CJCESASIIIgAEYSjS5jggYAqHjOMRgKEo9HPV+kFMXczVyWkk9/aN35GoVo5YzPnrRgHbhW3qxMmhg7mem9KCRECKEK78gnk6d3NhWQVvCGKJHTi7FEzeUQASyK6RpAoli9zCrF2YyZxwg6CJF8CF3qhkRMQ6ffmjulTiA9jIrkqv0glUqDI+9CFXpm7qOv3h+2eDqW4UYiRE+L9GAmQGjwg8QBhDQKEE5IQLEEQASIIR5elJzce2jm3Mm7aUQ1RGI7yc+MhKAhg9ILkO9+RXqAQeSCvAU4iHIRiwaGbuV48ZMdQ53vwXi8NS76HXYQchHaBFM0F8+FZSOmKzDHS67n9SlpQeFGAbB6JUozkPBo6mzG37GSmpenJ+OReEKPHIyMeiuJE7/UwiApjSJVmXKv4gD55HQqjPpdHwiqRoxQiKoGTF1Zq0cHGMXGivB+jHLSKPSAcgZMIwzCqwWoKH5C7myBMj1TBEoSaeP7PIATwYJVjhnEM5gRJ1IP2yWkmgVZtBLHC8KSgCXXYidrIspdDVTyZVjx9ZsM85+TinAHKikpLhSpM4/1nzj2ZN1VuUlbMQrZqlqrfBLO9F4epP0jpP9ira7GmupW234nmmKr6ekCxrlF8cFEsTCw+YBEfLsnrql4pDuFbmX1S54CwQtQUBaFu2kn0frRQzs/noj9GYaph9QJkeBab0gNEEKrQ8nIIBKFWPg7gKdXdWYFhGCEIB0A7bYRQ7gm+Ijva0s2cvBaAHZQLxZokH6S4rDZ8KreO2hOiDrs6SE6HOSQLqclI774hST3ft4NyR3wS70d+7CpOFuX2DM3rMsZ9QbFCF5KlExZcEBrm94W8CWufD031LG25XbsQsed9QCt42NpTJCcaWCPstQ8AVJ6c400t4VdRH0mSIE4qPkCMTz/7EoZyWxOE6REPiCDUCBN9rOoxR3kgPUWiLHIhLCgaiYVwmoNp1OgUDC62JOvC5OFwqk6kKo1qakinelKtCr8ZiyjWzIOh6zfMHhOlFyPldch4RbRdxgG1xwEVeUByY+l6hrCq/4di33V9RTQ9UriU+Mj3Askda9s5oBUfpnK7OS+YQ+UstadOIRQMzQ1tief67ueO046jEdKYq3zMJO5jGMZ17O7H5a4mCNUgHhBBqJfKb1jDMEISDRRVq2zZ0IaEdN57Epn3PKTH31sv29iCwam2I26J5eoE9TKeEGQraAFZD0cuOR2U7+mh63A+rpQ19n4UczwAlfcjaximBWh2Fhk9H7VIYPUpoUxXV3k1XKYreomU8HqM3ho6oBvFBxzEBzuIDxhCvlhdcjcnKI1NEmHypKQ+m0VgMGuajh5jKOhUf9ZHA4QiQARBBIggXLc/sMT7WEzV3gjDKBpVwUpCsNc46KeRNlyUZXlTtg4VM6yJCBQ0R/HTKXFwEIqlyMoeG/f2/iD5HiOsKJerESFQJ53zeHsERcldRXhWqYTzvV0c7wfpNJ1p+v68g5AvZSEszgmbSQUK22ewajrrBqhAeFjEB5doWqgXH4pxHfJCsuJDH45VqmyvZv7+MTKU8tU3HTR1Vj/m4sPzq09AB48qYNWQgM4ePgZBECpBQrAEoUYe/fMrfwmgV6kAGUYAA0nUVxoymWnWhPTsfC9oK8diS+x7MX5fHbvPhnAZrQGpDNtShM9ok9OzIVmZBHxDSFA2LAvF0CxV3wlTArgiNMr0r3RSOrJJ39oxWRcWptmmdjqyCeaqY8ms/T6UzQUNxQWYdSFgyIX72fNCUkFi0IbFueSFTBp6ZUs8V4zFWo/KMRYgQbd6kRAPAU4wjKoXIBTTJ+SuJggiQAThyPP6dyIG0SerHDNhRhjF4HAHB0+FkTP+oBAj0BpOe+Yk+R2NIQZLPoiuwg8s45QRIYYwGmNeCApGNIONQkVZoSlVMcuaIwEHI18jSvLVo8r+K4oMOAoOGHI+1CKnKDwMwiW9rkqcKI1/HCyv/D6hqHZlPq+mEim6pPGJQq84+7vJTUuPdbLK7qYM+kYNAiTcRZJwHTkga3e+fe1huasJQjVICJYg1A0nHwPo+VUOORgO0Qp3U4ZSqjkepQTCOCRK3yE91U2cAGqMPSCF+TD28yib73GQN6KqYAV1OFZhe5wr8rVXIUtRtUoTPQansCx1BStlLxDkxsjni0DTMb1wzlR+Emresn65XJgPmypfAdbwK2VSunPIlUpIwFJqVyc+YBcp2n4f+bwPQ17IRKFX+ocE2ocJx/kJaA35H0m4g2EY1nGcJP9DEESACMLxgYCPV30rHAwjJOEuiiV49QnpvNe7XJMDAhDIC8YNCUOleNjPB1E1JsSe2Nkrf6uy/icUIYBaeORyRPabmCOfkK5/z+MkdDKU6FUKiz0DMiVQKC1+lILEIjDqSEhn00ZVRm92PivnuQuPAyPcJjyy712TzcuLD1NYlUvSORzzPiYJvSp6TljbRf24Xxi9ejwgUQ+DYQ35HyT5H4IgAkQQjhEJ4aNUseEwHI6e8HHYG9/E094CQNUhXZ9EDmSqYjXmwP11jaDZ87bkOn6TTlzkRUNZEYID8VTwfuT34WBebpeh1UNpOzDjDVEJkdT2NEno6apXpLP7SaU6XMNryFHJwE31KJKZWSkk8mOwWthYhQcsXhCFp8TiBTH3+TCJD1O5XdfkdUAXaqUOR8wKG3PH85OZeL7HqPxuxYo7CcHxEINhWIdiEg+IIFR5DZBDIAj1Mtht/SGASh/JhVGMOE6QhDvqfA9jbxDd/HE53uYcTN2gzU92TbHxrDQkzTkhWYOOWZcIjkIeAbs8cc8/+VYltRtzIgBd3kc+kyPz+dgxR0TbZ8U23bHHiCJxPZ9o7tQ9nXV5HirxYFiPof3+lZ4Ka5NBF/HBBvFhz3syChpD7xt16FW+Izxw0hLP942P5nz1D3uiHnjcrLXy/fXwIbmbCYIIEEE4NrziR57YAeijlQubYQjeD8MC9PHtWYNI36BwNN8LOgB5KHZsdk0mh6YyVlkRoq54ZE1Oz/SMYIVo0SVIm4SIJeHaIkZUFa9gEyVcpjkhnCpkKZPbucTn0AkbrfDQJfprBIutCWT6ewVg7XDuLD5gER+OSefKam8aceIcenXitAcAgGoQIBzuIowjJEnlB+zai7H2abmbCUJ1SAiWIMyGDwF4XpUDDsMIHO0eGCh0YHA5h2Ip80EIFLRH4kabWA5L2NRB2JU6fGpve6ZwLMruWyr3Q5+cjtzx2Fs+laCuaiKYeU9Zo3Q8jfLGoCkaihQ9PVRvNREolHlVPszK3BKkbC6Ibl4uQb0QksXqHiLaXA/1/FJNC3WhUlbxYc8LyQplff8Qc97HJKFXJ8/7QX4L5DUrHzcJdzEY1BF+hQ/TJSRyGxOE6hAPiCDM5I6LD1c9ZH8YgpMYHA+g66xsDcWCej415nJG2eTx8pN5QhTbVpXptYVkab0h0I/Pau9E9qm7Y9lanVch3ysj7y3Jlfx1/jfudeLiCTHvr2E/M11RTB4PKI+ju9fDlO/B6r4hWvHBjuJDtd3UuYlJylDnz3EoPB6m0KsTaHjU4P0Ax+Coj2EdCeio/votCNc74gERhBnge94H4rjauvTDYYQkScDDbVCnlbldjp74p4zsgvdjrypWvjTvyJPgNeYQM8DEufK+RY+HsjKW4rWbJwSpjunperesTU4Hc8obAnU5XcrZjYVDUuycjr1dyyWJpz0XhaR1wL3qlUv+7cT2J5vnscM6Gi8I6xLQHT0eWQNbs4yiAlYx5ArQeUEY9pwirfhQiHiX5TgvMpV5H2xtXsjK+SJAbCTjvki9GjwglPAH5S4mCBVfB+QQCEL9vOjSlUcJeLDqcXuDEMlwS2FYpputAbp+Arp8EPIbIL/hHBvPtlh8Z0/InpnGxQRcViWQpxvL6XJBoHwiz8aGhIBLR/DCGFA1/st9Dov3Q91zYoI/U76IyzrIeTtY5e2A/djlwq3cvB7ZnJ+s58nsBeFCJ3ZA5QXRigpduV1D8nrxd5FfVjHfsYv6iYP8esrvDoivll4AAIAASURBVLf3H8pUTDjX6N4vdzFBqBbxgAjCjOBRHsgtVY7ZH4SYC3cBJOPnCdl6svs9OQoNCi35IEzwWguId6+mvBy5fh77r0djMqX6YJT1hKSGSud+HCxW9H7ky/Hy2AtBBu+Han0eez8KZXMLOR7p0rxprwgdGL2kWNVahleznSrOONM8Ni/PyrA+KMVucXquo7iqeSHb37N1+awoZZVHxNjnwyQ+2EF8pI+VWYjo8z6uj6pXe3itBdTx7DMZbqM3GNYgmPCR5196dFfuYIJQ8bVADoEgzFSAVEqvPwTASIY7CkNR96Q2Z/RoQkq85mLmfdFAy83DpJ4Qk5GnMu5QfAqOvDckZ6jmj4PiqTtnmsvlqkuVqgp14BnhMp4JVP0Hw/ZQWD6d08EmT4kt7yXvZWKNh8ggLtgacqXwrNQiPmARHy4lqdlSchf7n/lENhzMGx3715UKr61xH5yE9QgQsJTfFYQaEA+IIMwIH/yhpOLGW0mSYBhG8MNtoLmQ1RD7VbE0+SApLwTv/TflKSGvAfKb4HiY83BAUxlr9Hq/UaGzJyTrTchW2trbv3Rjw/RnTFXMAme6pwOKhvD5ylkojlnwiKTtWWPlq73/pA1Xyjb2y1fUKoxVlfdDtYP5qaoSr5rGg0ZvR87gBzQeD9W0SbweQLlKVyrxYfCmaEMKTeLDNekcygR0xsnP+xid/349+R/DbcRJgjCsJQFdBIgg1PEwQg6BIMyGF711/WMAHqt63F5/iGSwVbxt2vJBMu9VT4b3kkXLhqSU8YSo4vhzhiGnqyYVjUpTPgFb+k/kt5H1iKiqZhX7kjh5RlQekpynJO2HqOIvPWbas8Fs8O44VcUy9BdR5njA0IAwLVpcQ64U+R7aSlcW8cGu4sNUbrdEXgibe+uc5NArYC/8iiofl4fb6A/CYuuj6YnYwz1y9xIEESCCcGwZ+w5+t+px+4MQnITgZGgQIapeByiEtuST0r3W0gRJuS4iJFsZiGEoqYpiOV11o0Io3x90UEdJIXIg3pjdE7bNBjysy3JFf6VCvLSixC6wMtsrLTwmaxaZDblia/d0fSGFsuKDHcSHSvg75n3wyb4G+q2lGkZNkIS76PfrCL/C7911aX1d7l6CIAJEEI67CHl31WMOhhHiJEEy2FTMdc0HScuUVDUsLwD5LcfeCWVESNEgVDZ50zzVZm2PEEO3bdblhzh4RPIeBF1HcBfjXddrA1zTH2DNQXH2gqQkI6PoIdIKCCjzOJwqYjHr1zF5xBg5r52uueEkldzM5306DFAvfGD4LCfw2uf5oMZc9fJjuA3mesrvMvBbctcShHqQHBBBmOVNOEx+mxteDMCv8jbZ7w8RNDfhd06rNUiJfJB8ZSyvvYR458lCvke2R0iZnBAUu6djb9l0hSwoxszsWqoolToXJPv5s/qH8tW0gGKOCQ727WCBPeNSUXVLZUOmtwPWL6dRrGUtpvIz3XJBsoa3al3VdPU01i6nea8NvwN0fUQYdtGbXRYoXUY6I+5S4qMgKPPLXR/9PtJ4rWXUEX6VDDYxGA7rKL8Lz09EgAhCXdcEOQSCMDte/G83roHwR1WPu9MbgKOeIgwrbaDtGXIOYSEpY8lvLuXEQklPSOHpss4QzBl5TiFZiu7purAcW+gPDL07DN6C/a7ldXg/uOTfNH1CdHkkuhArGPJImLUeD1YdG4sXRB2ipRMfuVwl1vWSyZ/DZcUHO/a6Kf42+Hro95E3NtrLNYyaIBluYbee8KvHX3xp40/kriUI9SAeEEGYNQn/Foi+rMohB8MQSZIgGWzA75zRiBBKeUIw7h6ObF8QVWUs8uA1FpAMN8bLlPSE7PXbSDVTzwoaKCpkjSfnu7TvLwuDNyT7sZVejZSH5MAjkq9ghez2lF3Sc0c5Z0eS7oGvyd6s6iExl9kwZ21lXTUs5Xx9ON/eNKvHQ1VRK5+Uri2di5xxrxK4UIYBsqUEdEZUqMob50SEsdGmTqRfB+KDgg7Ib1d/KR1sgZMEu70aBAjTb9P18OUIwmE9lJBDIAgzvhmzX3keCDOw2xtq8kDUxicXnsDnlz0wvLzWotHLYfWEpJKB2dE4LOaF6OL+0wb0OFTH1DfEmgytMHLZoZM5THkjUHdNBzC112NCb0i+MhabOrEz3BLuVZ89PZY250Z1rphyQYrfcabvStXigw05JNZyu8jlIuW3d/LxO6v1PMsZbu4/fKn8Ok0s4VeCIAJEEE4OL25cvR+gJ6sed7c/BEd9cDwwK5WC4a4yvLIixGt0QX4ja5i6ihClsaYxRBUGpzYky1A5SStcyggR5waEQKGSlCHsSVu5yjmhvCgUzaV4FULIsVywm+jICjZzaJtj+WM4JpoXxIrifCtd/pkdwq5M57NeiLC2T8lJfuLiwUv3KKrsqUuMZLiNnd6gjr2Oh1H0u3K3EgQRIIJwcu7Hl5Aw+HeqHncwHCKOGclgw3LjPnihfRqrEiH7JXlLihCj0QZ9jH7OYGRLLkihChEmKQ+b6wyu9IqUrSAFzXJwFyf7w7lOz5XiteaDoNxnyu27ukIYSgoPFJsKsj2vh5ViQ1/pihXnt77JYBnxAYv4uL6SzvfwW0sA+ZWPmwy3gCSuq/zuH77sB7euyt1KEESACMLJ+uER/0rVYzIDu/3B6MZsUyAFEZI3sIpGmtdeHiU1OIsQm/FmSE5ndYgOqwxY5fsDA6+cEIE5nMgmRsp4FZyTxlHRMjlBZBUcMIoOsEOPFAcxkunpUSYx3SnkKp9sDkNIn67Duav4MPX60HhHrodrXXullnGTwSZ6wxBxHeFXTO+Uu5Qg1IskoQvCIRB7y7/txRubABarHHe3N8DCXB8c9UBBxyJCVEnpqvK8e6VtPVBrEdxfz5TOHS2nSkynXM1bziaFj0vmKpPT82V7kZq8byTAMeF89B8ef2aCosxvflphfYUuQy5xfW/hQia60sSBWw4ATWCs8mTL2JLP9wSDbr4qAV2VXL4vVFXLsUIomxLNAW1Seuo9G3I8imPbkt1t4iMrRK5r8dGYs1yHJlUfIZLhNnZ3awm/Ymb8CgRBqPf6IIdAEGbPXZceGDDj16sedzAMEUYxkv41NyPUuTzvaLrfWsklFetecy6cxt6pmq1hNNB4Q9TzTfkhbArDUnl4XEKPdGFWE5fMBVCmrO40JXhZvw/GPBVrnojiu1Z6PPJCw9XrYRMfqnyPEuLDmsNkEh+sbtR4PRkYnVP1PMAZbCBJEuz2qxcgRPjQnW9fe1juUoIgAkQQTiaMd9Qx7M5uH/FgA+C4chFCQRNeY84gQnLhNYWyqObEYntIFheW1/cBMRu1xdAswBgGZOsHkjPWTUa9vdoVyvf10IVOKcWGXtwU8khMgsr1+FiFhyX8inNeD2sIninfQx0Wxg5V3EqJj4I35/oSH+S36kk+B5D0r2Gn16/lkCYJv0NuToIgAkQQTiwf++NrvwNgrXoBMgAnsUMuyGQixOus5Ho0GJ4us6IxnDWpWB/3f2BIouANMVaugj7HJCNEuMwTfpQSJDyJ52Pi8ruAixdEldRuT0DXCRIoRRYrS+rC4XtC1jvm7PWA4RxSCxHWCmSNN8VFfFyH5XbT+N3T9Ty3CXfA8RA79YRfJUEQ/KrcnQRBBIggnFj+r3cjTBL6jarHjZMEvX6IuFdG27iLkFFcd1shQnSx7roKWYA+wThfJUslHopGprJkr5MQSZeshcYrghJVotx7b5QTJ2X+UgJQWfYXcAvRQrnPynnhYfnuNN9LIdzK2euhCblSCAxlXxqt+MAU4uM68354wah3UA3E/WsYDkMMw6iO4T/woktXHpW7kyCIABGEE80g4lqqrWzv9sBRDxz3axEho8ZiB6E1tuZrygpZziFZNsOVC6E0XDrEB/rwLJv3Aw6VsRw8E3vih43leEv+waG/CDsIDrjNV27TwQulFx7QejnUXg8YBCqgLLPLGjHM0PQDEfFhNSw6q/WYFxwhGW5hux7vB5jxy3JXEgQRIIJw4vmlP7j2XgCXqx63PwwRxTGS/nrZW7CTCPEaCyC/hXTegKkEqrIXg3NIlsYbojNGnYUIYCsfy05ixFFoVBE2NYkXBJZck0mbEaZzO5TeDrgJD5iERwmvB/Tlm1Ui1d6rRtOMUCNERHyMIR9+u6bO5/0NJHFcW/PBKGn8mtyVBEEEiCCceH7+XkQx4/+tfGAGtncHiPvrAJLyK9tECAF+5xQK1ZI03dRV4TBlQrJQJhwnZ3yWEyJ6A9pJjEzo/Zgo18P5z1HYsHu396zosHiYbB6PTDiYg/BInV+sDbFS535kQ67Mla7M4gMiPjT43VO1NB4ERuFXu/1h6ppU6UXzfS/7gSefkLuSIIgAEYTrgp0+/f/qGHd7pz9KRi/tBXETIV5rceQFUVS+0nk/9Hkh7Nz1mp0NVS4pRFwrO2XFCNtyQ2DzfNRcctcl5IrNifDGkC62hFlpq1qxuQEhs9bDxYUQKl0/EVvIleI8SJ/zRvFhq551/UFefd4PDrfB8QDbO726zKGfk7uRIIgAEYTr4n4NAK/5kbX7mfGnVQ+eJMmoJO/ulQkNIpsIYfid00rjzJ6cbgvJAky5H5w2/AxhWPYcEd1TfpQqM2sXJECpzuR1eEFcEt1VSeu2cC5jCeOcYa4LtTJWt1KET02QF2Q+t5DxqrC2szqKHc61uUzXoUHROV2f92P3CvqD2pLPr+6sr/1/cksSBBEggnBdMQz55+sYd3O7B07CEiV5XUTIgbHltRZAQbMoLkxhNWwLybKFWDmKCcs0zpfvZYtAsIkHrSDJhW3xjDwdtsaGGrHBtnLAzvOz0605HqrvTPF9mZtPZoWsMuQKau+atsyuSXwYO7lfZ09TvGBcnKJ6OO4jCXewtbNb087zz3/Nf8JA7kSCIAJEEK4rPvwX0S8CqPzuGsUxev3h2Asy8e0/J0KQESF+5wx0ibzMlqfaiipZem8INIajIZTLQYgohUxZMWIUJMiKEmT7bvDEndLLhXuxq9gokYBuqxLGUPTxcBEeucZ/bFzG5PXQiw1zsjkbGxiyKtzsOhYfAMbe0HpMinj3CsIoRm8Q1iSevP8mdyFBmPE1Qw6BIBwKlP6799PD4be8uPN0j/DXKr95Jwnm2j685jzIa0y3y5R9TRh1PE7CHSBJhUYQpT5mbtX9N6QYVzNJMb+4e1ScRYoVyOGzaVbVfpNlvvVDh5Uv1Qa0alk2zE/3/y42scxMV01LiV225nWopqUFrFv5XmhDrrJCWyk+RHiMDfgGgsWL9ZzgSYho+zGsb+4grCH8iggffMm/ufbDcksShNkiHhBBOCKs7yS1PIUbDEIMhxHi3tXpDVfOvt57sh3MnbOGrqjzQswJ6sbcEG1+iOWJOyuebmtL8MIQPpXblxI5Ftrcj5kknVsqXTmEmBU8Haak8lLHH4YGhLD2djF7PfLv2ZLvUSxYIOJDjT9/vjZzIu6tIY4T7Pb69YzP/F/lGxQEESCCcD1CAPD1/3Hjw0mCT9exgc2dHpLBFjgZVixCRkYZBW147SVNYm+xUV3RmISxzwNMFY9KCRGgTN5CQYzAvVStNWRr4nK86VUclrflgqBECBgXO52ztkEj4BRm5SI8UKKwgC1EC4bO5oZKV6yt6HadGxGNLrxmPV3PwTHi/jVs7fbA9RzujWGv9U75FgVBBIggXI/s31r7EX6hjg3s9oYIowjx7uVqdjcXusPM8LtnAfI0cfZZocGORqK6SZ2mz4NGYJTLQdAYzarmhCiRXD5pVSqoDF3V9Ko8IYDJC1LI6ShdwtjQMNKpa3q+tLKmSaUlX4iVfUPUAoNZyuya8OfO1zZ23LsKTqIaS+/iF1/xI0/syrcoCCJABOG65g/+bPDfmbFTh8bZ3Ooh6W+A40El4x0YguP35I+r4Cji6BUGH5sqGWnecz7G3yW8J1eFiWEQAM4dzwGVd4Qn8X6UKaFr9YpMGG6l2Zf8P/VxQvljWKhqZRMeQL5vB1sqpKm9HrrcEHUpXTbMEwC/vQIKOjU9lokR99awud1DktRyzHl7iJ+Sb1EQDun6IYdAEA4FUv3d++fh4A1f0Tnne3hB1RuM4gjdTgseMbzWYrUfZS/XvNFFMtwAOM5+0vQLIt3queU17/enUTZdXLtcfvvm2eqPSG7fqNMssm/PbQG9OHSazZq1FOszm7dhms/pkVXTc54cNk9T9vTY/58+cZ1LJKVnq71BxIfy9PTRWLyxvr4fvSuIh1u4em2rlvArZrz7q3/w2o/LlyoIh4N4QAThiPFnj4c/AaDyci/MwObWLpJBVV6QvIE4fqrRPZdrWght6dO9HSv0DNF6QzT5Idp8EMO0VHgWG/MXJihLq+sLoijFO7nXo/y6zHl/hiWPQ3c8gFJeEHMIHZy8IKxtKAir18Ne5UqX7wHFfgkAEHTPAFNV1TNdUiLEvTVsbdXm/UA/Sn5UvkVBODzEAyIIhwPp/t79p8ONb35R+9meR8+seqNhFKPbadbgBRl/JALIb4KjATgepBwHee+Hxgtg84YUSviq1lONbfE6kOEtWVwyRPYBtR+wTlw8Iey+bikvSK4cr66Er3E6Z0dSej0MpXUt81Xvpbmg4y896CBYuIC6TuZ49zLiwRaurG/VcviZ8ccv+4H1u91+KIIg1IF4QAThCPL5a/ixusbe2NzzglRd1vLgCXwwfx4gb/y2ZMI5s2MZ3WLTQ7tHxK3yFbs2JyxTQapszsfUpXfhkBMCaJPeXappaY8blPky+fPEniNi+R7TQmEi8ZHyfIj4cH7QEMzfUJv4AEeI+2vY2O6Ba/J+DBOI90MQRIAIwnWL9u76Lf95/SMJ4/fq2OjuYIhhGCHeebK+j0UBgrmzyHZEVxuLxQpWsIRluQkRY2WlgmGrmK4UI3AQGhrDX2vsa5LDeYq/KvqEOIoSNiaUu4o/TCY8dOFWrO/vkj8fmCXkqgx+93R9iecYdT2P47i2ylfM+Pyv/Pa1X7NdgwVBqJdADoEgHE3WtuKfOL3of3kd+mBjcxfNRgAOd0CNuVpEiNdagTfYQBLuYj+pNx2BNH5fkGOU1SaFdUAAsWY9Qqab9n6yOhfHV8nAwjw6WIAUi6bnq9Z3kpt76xLqijeZTAuzYjIXU9e13dQ5N8mcbG4OtVJN03k81MsU30uieVnIb8Lvnq7viUwyRNy/ho3t3br6fmAY48d/5iMI5dsUhMNFPCCCcLTYv+3+81/YfBcn/Bd1bKQ3GKI/CBHtPFHrRwnmLxyIgr0O5w7ej7SRqA6vsnVHz04rekSg8X64luFVJ5brvQmA1fPBXM+fdduGXiWKQrz5BoLWEDBjqJuifLGhO726Yz30TSZNXe5FfJRm9Huuz2yId55AGIbY3unXtYnND386/Hn5JgXh8JEkdEE4HMj2t94HXvul7bDToFfVsQPDMMJcx4fnN0FBu6ZP6YOIkAx37Anne0cl8z6XtL6X6G5aRzud9CV49yeQYSxbMrp6/dqq7U6ibdk8n53WYcsyOi+IzduhEqH6aU55HspyvCI8JjIWOqvw2qv1nZ3hDuKdJ7C2vo0oimvZxjDCf/qHP7v5bhTcaYIgiAARhOtTgChFyWce6H/q5c/pvJ4Iy1XvQJIwfM9Hk0L47ZVRF/M6PmijC452wfFQbbc79/0orkQuisYiUMhZcEwgGizj0EwVCFssLp1A0VS/Ypf5XNx6Yb1yYoSNQkMvRtgqTgT9c4QWgsWbajxXGdHWw+j3etjYqq0x+fYnHuh/87s/Hu0YTm5BEESACMJ1IUCUwmNv3mNb4K97QXO72/S+po6dGHlBGvA8D14tuSAjvMYcksE6wAmKpXT3vBr5Er1UoRBBsSGiQoXQpGKDXBc07cvsRIib0DCtU1J0GAWGQow4Cw84eUHE6zHdpaqxfAuorp4fAJL+OuL+Gq6sbdbW9yOM8CN/+6e2fgvi/RAEESCCIALE/vfBTww+9dovaX+9R1R5/MPeU+GWF8FrL4Fq6moM8kF+E8lg02jcq1tqWHqHZESMo6FvUhrKzVA54XBoAsNRgJQSKOyw3DSiwyxGnIWHKrFdvB5TE8ydh9dcrPGUjBFtPYyt7V3s9Ab1bIKx8XufHvzd9/1Z2BcBIggiQARBRIjG85F+vzUEf+0XtzbnWvS1dezEcDhuTogYXmupvg/rt4AkAkf9gnBAzvtBLh4Ma68/sggOdzFiW6zUNz7xyjWIEGt+h11wjN7lx3TzkFQrPFLrivCoBK85D3/+hlq3Ee8+iWiwhavXtlPfW7UMIv6hv/+zW+8tnhQiRARBBIggiADRipIPf2rw6dd+SefrPEItNTDjOEa3SaCgMxIKtRk0c0gGWwDHTsY5EdkNeJ1RrxIiGTeJbrpdPFC5mZOdGRVpjPIL2L0gbBUlJkFiC7PS2IYuwgOq6mhiY050Cno+Gou3AFSfmcBxH9HWo1jf3EF/WE9lXGZc/a37o7/34b8aDjUnopwcgiACRBCuSwGiFR5787aGwCuf015baNPX1bEjUZSgEfgIMITfXq4tIR0geM0uksGG/r6vrJZFzqJDN81acUu7AlnmO4gS0z4fCmx4y5qlHZPPS4qOg8VtyxsSzgt5HiI+pqWxeHOtDQcBINp8CMN+D9c2t2vbxmCIH/g///vmfQbRISeIIBwC0gdEEI6MFWie98b/tP7rcYxP1LUzaxs7iKMB4t3L9aouvz3uJ6D52Pn+Eco+IFD06oCxb4S6l4ihc7jzfOj7grh0HJ+kezmm7XYO7bYL/d+1+wko+34oe6ig0Jdk/wjp+pWYuqan95dVSebSzXwa/LmzoMZ8rdtIelfB4S6urm/V1nSQgSv/60/Dn53wGiwIQp3XGTkEgnBoWPM/0n9DAC//gubjS13vG2q5WTMjjhntIIbXmAP5zfo+eNAGOAFHPfPhUVWXohL5GETqBTLVs8p4Kiz5J8ptFefRRKfKpFpWtzQbhmH7Nky5Hsr5ZbwdeUFRnMasW05symnwmguGBwRVqY8Q4dbD2NjaxW5/WNtmdgbJpX/237c+rDiBJfxKEESACIIIEJPwSM/7tfsHn33DV7Rf4Ht0Wx07FEYRWs0GfB7C76ygzlAhrzkHDnfASeh2pJRChCyiw8GGz2gKcl+v7DITrVd2YC4529EJ5xJ2VRAQjqJDKTBEeBzKBclvorF0S40hmCOirc8jHIy8H3XBCf/Fv/4fG9/2yCZig+iQk0YQDuthhxwCQThUuOy8P/qr+M0Awrp2aG19G0nUrz0UCyAECzeCvMB+iAohNamwKlaFAxnCkGAO0eJSoVgoLqMMD1OELVnDsmAP2yq7zkThWqZlc9tLfT5G6vsphFghu8/K6awYC4bvVJju5+iNmg1Svc8lk8E6kuEWrm5s1xZ6BQBPbPO/+r1HMJxcrQuCUCfiARGEQ7zlwz0Ma28a3vvJ4drrv7x9tunTc2sxEHhkgre8CF5r0UEgTHMEfHhBZ5yUXvLIqdK+tcnp5DBdsZFMuFdJz4ppwco9HxPYVmxbVheiZfBy7AkI3TglvSCs9G6Ix6MOgoWL8GrO+wBHiDYfwtZ2D9s7/do2E8b47b/+I+s/BLPXQ04gQRABIggiQEpMIwL/8XNvbfwdIrRruYGHETqtJjwejKpi1RiKRX5z1KRwuDnZEVRNoAn6dpBbc8HqBMmE4oNczSdX+4oNk/W5IE6Cwyg6oM35YGNIltiNlRsCc2fht1dr30609QiiwS4ur23WuZnwkw8lb3j3xwZXLKJDTiRBEAEiCNe1AHEWHnvzPvZwPPja57b6cy36qrp2bjAMMdfyQRg1JKv1QATtkawKdyY32HV6QOv9mFwD6DdLE+1jheqlvAgxGvVcfMUuCepceh5rcj7s+yhMg9deRjB3vvbtJP1riHtXcWVtE1Ec17ad3pB/+g0/tfFOiPdDEESACIJgFSFO4Vfp6b/3l4OPv/aLO1/jefU0J0wSRpww2kFUe1UsAPAacwDHlspYrsJAnUyuFQu2JiFEJbY9qZSouJmhNcRKLyDYKk7cks/tgsTm7RBbse7fXLB4E+ruS8PJENHmw9jY2sFOb1DfdoArv/j7/b/3J5/LXEREiAiCCBBBEDQCxFWM7M/b7IFf+PTgs6cX/NfVtXNhGKERBAi4V3ODwrFB1JwHRz1wPKzmyOpm0ZTGv1KQGLwfFWuLKdSIfgqXyQWxiRI2NDfk3OoSZnUoFx6/NZOKVwAj2ngIw0EPV9e3a93S+jbf/T2/uP37JUSHnGiCIAJEEK57EVLaC/K//2T40Dd+eecLGz6eVtfODYYhOu0GiCN4raXaD4XXXEASbgNJVNGhhd4rAgfnhov3Y1pV4ehhITd5oFmIXRbSzHLwgthER2aSeDsO9YLjBWgs3wbUWWBiTLzzJOLBBp68uokkSWrbThTjY//op9f/+dYQsaPokJNNEESACIKIj0nFyGLX//1nX/S/iQitOnaQmTEMI8y1aJQwHrRrPiIe/NYikuE2wHE9R9yQQG5tE1jG+0F1NhEp/U26fNkl1jUJjrHoMHk6nIWRUO3Py0ewdFvtIZUAwOEOou1HcW1jG/1BWOemor94LHzDL/7B8DGI90MQRIAIguBsfU5aEQt/9Nlw91XPaW3Pt+tLSI/jBB4RGjSovzTvvghZQDLYBDip+eibxEjN+oFmHZDFFrOLS6ynCusye0Gyk8T+m/3Vxkdj6Zb6HyIAQBIi2nwQu70e1jd3a93UTp9/8m//5OYvlxAdcvIJgggQQbjuBcg0XhACQO/72ODj3/Cl7Rf5Hl2sa0f7wwjtZgNesjuTfBCQD6+1AK5bhBjFCJUXJNOKklmIkIlESlnBIaLjaF1pPDQWbwY1ujM5x6LNhxAORyV362w4mCR44EffNfhHf/lEFEK8H4IgAkQQhHKmLyz5HqZpvQi4aSX4yFPOed9ERLW5J/r9AbqdBigZziAfBCDy4TUXwMMZiRCrgMjV0TJ5UKx9Qg5LpbDFBNN7QYoRUyI4jsslprF0M6juRoNj4p0nEPc3cfnqJqK43t/tZy8n3/rv37X9GYvoEC+IIIgAEQRBYZKWST5XCpQP/Pnw2mue1/K7TXphbaYrA8NhiLkmAR6NSufWfXC8AF5jbhSOdVg2A5Vbliod0LDaxIfD7gVRp2fYBIfYdUfx8hIs3gSvuTCTrSWDDcQ7T2BtYxv9wbDWbfUG+MXX/fj6f8ZkoVdyogqCCBBBECsBFSSk3/fpwUf+xvM6L/c8nK1rR+M4AQNoeSG8RncmyazkNeA158aeED4a35ZRSLj0ITls2JADbklGF8FxjMTHjfCai7M5o+IBos2HsbW9i83tXr3bYqz9z9/f/ZY/eSDuTSA65KQVBBEggiBWAqbMAdmbtt0HP+tC45M3nfZeD6C2JI3BMELgewjQh99aAqj+S8lIhBxCOFZpUTLlgjThsKV1gWNZXhEbx/Sq4qGxdPPMPB/gGNHGgxj0e7hSc78PAHhsI/mOu395508g3g9BEAEiCMJUpmvZsCvltPd8cvjE1z2/1e006QV17vRgGKLTaoDiPvz2EmbxfJ+8AF5rETzYOpoiZFoFMXPYYJKJjXZ8ryj+OOF8fmabjLYeQTTYweW1DSRJvefOIMRvvvY/rP+wiA9BEAEiCMJ0FuvU3o/0+4+sP/tzz78Vf2ux0W/VtdPMQH8QYq7lAfEQXmtxNiKE/HGfkK16+oTMUpw4ixTbAi49PiZcTzh+4mPpZtAM8rP2iHceR9y/hsvXNhGG9f4mkwSP/fx9u9/0sYfjPiT0ShBEgAiCUKkImXjauRf8vVfxyhf+/Mc2blq689xfIPDq8xQkCWMwjNBtjnbAa87oieu+CNk+hiKkAsEyjRARTu7ZMu5wTkFnZttM+muId57E2vo2ev1h7Zv79OfDf/gDv977iynFh/xQBEEEiCAIOSExkfdj8cZnLpx+7re81W8vvQlEnZ2whd2oheeuPlTrTsdxgihO0PFjkB/MzvghH357CRz3wfFQzh7h+r54BG00lm6dSVGIfSs+3Ea09XlsbO9ia6df+/bWd/mn/s5Pbf6PKUWHiA9BEAEiCEJKVAATej/OvODvPHfuhhf8kuc17kwP+tnt07ixew03dtdr3fkwisEENGkICtogvzWjo+aN+pEkETjqy1kkXJd4jTk0lm4BvGBm2+Soh3DzIWz3eljf2Kl9e2GEj3/3/1j/tstbiER8CIIIEEEQqhMgZbwfo9dzZ/2LX/7Gb290T/8kkXdqNJEyw35q/QJedPYzaPtRrR9gMAzhex4C9OA150BeY2aHzmsugMhHEm7LmSRcX+KjvYxg8SaAvNltNAkRbTyAfr+PK9fq/80xo/feT4ff9Kt/OHzSUWi4zBcEQQSIIAgo5/2gM89+7c2rz3jF//CC1jft/5apmDMwTAI8tLOKF539y9pTxHvDEK1GAD/ZnVl53v2DN+5JkgxFhAjXyQ187iyCufOYaak1jhFuPojhoIfLVzfAM+jL8+h6cvd3/sLWPRMIDfGCCIIIEEEQHASIkwi5+OLvfG1z+aZfBNHTMktkRjuY+GRvEZ1giNsXn6z9Q/QGQ3RaASjagd9anK0ICdrwGl1wuHU0GhYKQi0nuodg4SL89uqMN5wg3HgQ4WAXT16tv9wuAPzp2k3b333v8/99//KfXalAfIgAEQQRIIIgOIqQ/Wmnnv6Vi2ee803/2Wt0vw/E7Xy41cGroiL51PoFPGPpcZxp1+shYAZ2e0N0Wj4o2oXfWpitCPGb8FtLSMJdIInkjBJO1gXCb6KxdAu8Gfb42LPbo82HEQ+28eTVDURx/X14Hust4Yc/9bVN6p77hrlzz35o+5GP/NkEQkPEhyCIABEEwSI+VCIEAOjGL/u2L2ide+avw/NeNMmwDMJH127El5/5LDpBWLMIYfT6Q3SaPhD3xuFYM4xRJx9+exngBBz15MwSTgRecwGNpVtAXnPGWx6Jj6i/hSevbiKM6i993Y8b+Lef/FqsDedBQNNrdr924eYvOR1tXb4v6q1FIj4EQQSIIAg1i5CbX/Z9b/A6S78I4Fwm3ooKL7J5IHuvx/8bJAH+YvMcXnzuL+FRvfdjZkZ/EKLT8oFod2bd0tMHx2vOj/JCwh2xP4TjfbPunEawcHG2Qn5PfGx9HvFgE5fXNjEMoxlsEfjpz3wVPrVxYeTNHV/HyGs8p3v+WS/120vv6V/5zNYE4kMuAoIgAkQQBI0A2Rceq097Vfv0C775hzyv8VYADaj0BqgwTT80Y204h61hC8899XDtHyZJGL3eEN2WD4p78Nqz6Zae+dRBG15zHjzcBjiRM0w4XhcEz0dj8WZ4M8/3GBFtP4qkv47La5sYDMOZbPM3P/9F+K1Hv/Dg+rb/IIUA8m5oLdzw9XNnn/GHW5//yKOQ/A9BEAEiCEJ1IuTml33vTc1TT/l1j7zXHsyhgqAorpoTJoXpwGe3TuNUaxu3zq/VL0LGnpBui4B4CK91CCLEa8BvL4OTEBwP5AwTjgVecx6NxVtm2tk8TbzzGJLeGp68toX+YDbi41MbF/Bf/uKlYHiphyvj5zI0vrIRzXvt+dfP3fj8x7Ye/L2PifgQBBEggiBMLz5w61dfeg2Czm8S6KkqEWFY1W02ET5+7SKes/oIlpv150gkSYLBMESnSUDUg9damH0oCXnwWosgvyUhWcKRvwz4c+cQzF+YaQGHtK0ebT+KpLeGK9e20OsPZ7LVtcEc/u0nXo1e3ASIFAJkHIo1eh14QetrFm/9ivO4uvaeweByLOJDEESACIIwCS+9FNz6zJe9BZ7/kwB39RqCNMICqRu24nXKaxIz4WPXLuJFZz+Lll9/XHccJ6OckCYBcW/kCZl5PPsoJMtvL4GjHjgJ5ZwTjpb08FtoLN0Mr7V0SHswzvnob+DK2hZ6g9mIjzDx8e8+9So81lvOC42sCAFAdFAckPzgOe2Lz3xRd+niu7cf//iuQXyICBEEESCCIOR56lf/u7PLbf9/Afj7OIg30AsKOhAUbuV4ix6S3aiFT62fx1ec/SsEXv335zhJ0OsP0W56o8T0w/CEjKw8eO2RocPhrpx8wtG4IXdWESzedAhVrvZIEG0+gqi/gSvXNmcWdsUAfvrPX4qPrt+8f43Thl/tv/YOroGed3PQPfV1i+e/4N7Nh//Q1i1dEAQRIIIgAMAtr377XezxewF8YUYskFo4GCxrp9mUEjLXhl083lvCl5x+UNVIvXoTJxmX6G0REO7MvE9I+mB4jTl4rQVw1JeeIcKhQX4TjcWbxonmdEh7kYxK7Q62cHltA4Ph7H4Pv/S5L8F7n3hW6gJlDb/KiBIQgYhWqDX/t5dufuGnNz73gU+L+BAEESCCIBi49VU/8C8J3i8AWLBLCY1HY8IwrD0e211BszuHO+Yemo2pw4zdvT4hh9AxPXNEvQB+ewVEPpJoV+wVYaYi2O+eQbB4I8hvHd5ucIxw48Fxk8HZlNrd457Hn45feuBLM2IiKzSgDb9Kzx8LlhYFjW9YecpLk/W/uvxB4LKUvRMEESCCIKR52qt+vLX49Jf8HIi+G4BnFxl0MIVIoUHKhWHtveq0GnjKLeews/AczHtbOOc9Mhubhxm7vQHarQAUbsFrzIG8xuGZgo2uVMoSZne+BZ2R16O1jMPzegBIQoSbDyIa7uLJKxszaTK4x0fXbsRP/fldYHgqMWEIv6KMZ2T/ykh7C3ovXb79C5+7dP6Od208dP9AnioIgggQQRAA3PbX334uSaJ3g/AatXWSkghO/T3KWD4HL0+tzOGpt92EucVFkOfhc9EzcNZ/FCve5RmJEGC3N0Cz4cOLduA12iC/eXhfDPnwWksgvznqoC59Q4QazrFg7hyChQuHKrgBgKMeoo0HMBz08OSVDUTx7M73R3ZW8MOffAWGSSPj4bALEEX4VVaA7C3zdK+99MpTt931v6/91fs25cQTBBEggnB9i49Xvv2vMXvvA+EL3LWCLplc0xXdEobVaPi49cazuHjxAhrN1jisgcHw8LnombjV/zTmvK2ZiZCd3hCBT/DjHZDnH1rfg/1DFbThd0bx+Bz1IQ9QhSrwWktoLN4Eas7jUL0eADjcRrj5MPr9Hi5f3USczO4cvzbo4m0ffzW2wm5BTOxJjQnCrzLiZDSNzrPvfePSM77yno2/eN9jcgYKgggQQbguueXV//bVIPpNAOdcpUfVYVhL82087daLWD69Cs/zCpuNEeCzybNwu/8JtKg3s2OzV+6ziQGABF5z/pC/rVGS+igsK5KwLGFy4dGYQ7B0M/z26qHlOqVJ+tcQbX0e271dXLm2DebZiY+dqIUf+MQr8URvyVlMlAi/Uk1fAOgNy0/9qo9u/OV7PyNnoyCIABGE6wimW1/d/h5i/ByAtqP9q35tXVgtWnyPcOP5Fdx6601odcdPHsFjG2CvnO/odcgt/FX0TNwefAxNmp3hPRiGiOIEbT8CJ4NRw8JDflI8CstahNeYA8dSLUsocep4DQTzN8CfOw/ygiOxT/Huk4i3n8DG9i7WN3Zmuu1BEuCHP/7V+Oz22fGv2jN7P1yqX+UFyHgZyr5uguhvrdz+ssvrn3nv/XJmCsIRuD7KIRCEern1pZfa3G39DAHfXFK0jCN/GJx6jfHTSk69Hv1/9HfwNPNgfrfdwK03n8PC8go8AMzJaBYxmJPxqqPXjIPXK94VvL79k+jS9kyPWbvVxOnVBfiNLhqLNwGHHCufJhmsI969DI6HcnILGuERwO+egddeOTq3WY4RbX0eyWATV9a3sdubrUdvyAF+4oFvwJ88toQ4jvdCpOoMv9KVMf/xB971vd8JkMRVCsIhIh4QQaiRm/76D13wfO+3CPQ10z0fcAnDUjclPL0yj6c99WbMLyyqHiymV02ljxCICD3u4uHoabgj+CgCmt2T/yiORw0LGwSEm/CCzuEmp6ePaNCG3zkF8lsjjwjHcqILY+Hhw++eHZXVDbpHRnxwPEC08SCiwTYuX9tCvz9b8Ryxj5955Ovx57u3odntAgkjjqKSyedA3mPiEH6l2p0vXb79g89avvji31h/4F5xZwqCCBBBOFk85ZU/+AJK+H0gesbkFk1KfJS0ZXzfx203nsVNt9yIRqu5LzCyfUCyrwlFVbKDBTwcPRV3ND4KH7MztpOEsd0boOF58OJtgAheo3t0jM1xovqoYlZfKmZd78KjcxrBwo3wGoefYJ75HQ23EG0+hEF/F0+ubSIMZyuYGR5+Zf1v4I/WnrovDhqtFjw/QByGuYcqVYVfka2J67PRCF64/OwX//r6p+/tyxksCCJABOFEcMvX/OA3gPDrIKxWYuAoXmVTy9OVr4Buu4mnP+1GnDl7BuR5I5FBpCyOdRCywKlNcGa5bV7C4/FNeHrjo/AwQ0Obgd3BAEnCaHoDIB7Cax0lA4/GQmQF5DVGYVniEbmOhEcAvzsWHs0FgLwjtHeMeOcJxDuPY3u3N0o2T3jGe0D43cHX47N4AbrtBnb6IZhHgiFoBAhaLUTDEMxcLvkc6ZAslAm/SnMbkuA1K7ff9Zvrn3nfhpzNgiACRBCONbe96gf/KQj/DUAFMUPmMCyVmji9Moc7br8VcwuLBW1yMMw4XEvjYSHFpjeTU7gcX8DtjU/MVoQAGIYRhsMI7SABD7fhNeeOTFLvgRDpjEKzgg6QROAklB/DSRUefhNB9wyCxYsjj8eREh4AOEK0+TDi/gbW1rewud2b/S6A8L7+X8fHwy8FEdBoBFiYa2EwjBHHowcinuej2ekgCSMkSWIRIJWEX+U5C3jfuPj0l9278Zn3SpleQRABIgjHEaZbv6b9AyD8AKp8RF8QCWpR4nsebrm4ittuuwVBsz3KsSx4Nw5eU07E0L7ZQCkvCI3v46N1rvEZPBlfxO2Nj89chERxgp3eAK3AA0VbIL8BCtpH7iwgvwWvvTwqI8yJlO89QXiNOfjzNyCYvwHUODo5HpmrULgzyvcY9vDk1Q30B7MXwgzCvf1X40/DFx54Kojg+x6W5lrwiLA7iEbXF89Dq91Gwow4jrMiBOWSzx3Dr/LMg/BNUqZXEESACMLx46WXglue/Qc/TcB31GbYGqZ32w3c8dSLOHfDeZDvH9yXUwsdPCckrTOlEImlaG64zqfxWHwzbm98YqY5IQDAzNjp9eER0Eh64GQIrzl39J5AY1SC1WstwWsvg+AByVDyRI4j5MNvLyOYvwC/ewbkt47qAxDEO08i2n4Uu70+Lq/NtrP5wV54+K3eN+Dj0ZemHmCMilpg/NdtN9BuNbHbH4sjj9BoteH5PsJBaPZ+oJLwq/w1tElE37h8+8seWv/Me/9UTnpBEAEiCEeec1/97+bOtL1fI8Y31iY9DF3OV5fn8Izbb8HC8spB0qbSSZK+Yae9IArvSG47o1m87zVZT1bwYPx0PD34BAKa/RPW/iDEIAzR8hNguAkvaB+ZKlmFb498eM15+J1T8BpzAFhK+B4H3RF0EHTPjsKsmougI1QKumD0xwNEmw8hHmxifXMH65s74EMoMhsjwLt2/xb+PPqi8XUj1zCQvP1rSKsRYKHbxu4gxJ5O8hsNBK1mNi9kwt4fE+AB+Lrl21++vv6Z9/yB/AIEQQSIIBxZLv6NHzjVSvjdAL5yBiZRJuncI8LNF07hKU+9Ba1OF6bwKdp7gsickiKcMpJTEoUAMBkfJBIB28kiHoxux+2NT6JBszeo90Kymj6NqmSBx1Wyjmp7IwL5TXitRfjt5ZHXJg7FK3KUviHPh99eRbBwceTtCDo46u2yRl3NH8awv4snr26iPzgccZtQA+8LvhV/tnM7iLKhUPvej/FrGnssfd/D0nwbwzDGMEoA8uD7PlrtNsIwGvUoqj753PK0B69cftrLOut/+d73yC9CEESACMKR45bXvPU2P/TvAeE5szBe068bgY87nnIBF266CC8IDhZh5ERF+qasSkZXKAugmDuCohcEYOzwIj61+3Q8vfFJtL3ZGz7MjJ3+AHGcoOVF4HCcoE5H/NJG/iifYOwVIc8HEhEjh/ZdtJcQzJ2DP38DvObCEStwoDv5I0RbjyDevYqt7V1cWd8+SOSe9cMAauJ3/H+Kh/BsDHv9/WvEnvDIez/S08kjLM23QOO8EKJRXkiz00ESJ0iiuI7kc9vl9kUjEfKe9wL/Rn4jgiACRBCOBje/+gef5yXe+wDcMjtDafSfbruBL3jmbVg9eyb1wC8XPpVZKRdWxZxNOt8zCjzaq9abWV3/QJGxtjXAg9c8fGz7aXju4l+i7R1OSf1hGKHXH6AVAAg3xz1Djv7T65H92xyHaJ0WMTJL0dFahD93DsHChVGIld88FucLACSDDUSbDyEa7OLy2ia2dw+vlcWAuvgt/zvxhP90JHGMcM8DM36IUfR+pLwW+9OBuU4TnVYD2/1wfIkaJafDI0TDg34hFSaf20XI7R88t/6GF78b994rXdMFQQSIIByy+Hjl27/KI3oXgFOz3vbqYhfPftZT0V1YyAmTYvjU/mxS6Jj0m8ITw7FoMXhBwpjx2NVd7PRHjYR3kw7+IvxCPHvhQXSwdThG2bhxIZjRxABJuAOv0TkeT7MLYmTsGfEbI8GYSMPm6Y9ta5RMPncWwfwN8FpL44RyOj4fIglHXo/eFWxt93B5bRNRfHh9Z3awgnc3vhNXvVtA5CGKYkTD4fi641m8H3SQXzYWJ82mh8W5NnYHEeJk9HCk0Wyh0WggHISgvW6qGe9HZeFXKp6//Ih/x1OXXv/rjz32v+WJgCCIABGEw+GWV/3gGzyP3glgpi25iYCL51dxxzOegmarXbjHUk5aUKHPh6okr7efhJ4OqyqIltx9fWN7iCeu9fYr7Ow9k+xzC9dW78IpPIIlXD6072gwDLHTH6LhMbxwE+AYXvMo54Yov/GRGGnMwW+vjDquB53RF8MRDiXD+NgpDg9eowuvs4pg/gb43bPwmvPHytOR0R79awg3H0I43MWVta1D9XoAwBpdxLuC78KWd25fUERhiCgM998XxUba++HtC4/R1zWaF/gelufbGIbJOC+E4AUNNFsthMMhmLnq5HPbxfcL/v/s/Xe8JNl13wn+bkS6l8+Vr2pbVW3R8CBIigYkQQOAjSZAUhzIrdwsdyiNZmek1axGojSz0yORQIPShzO7+5EozexoxF0NKUtqSAEkQYAwdPCmG2hb1V3VZZ836cPcs39EZGT4DHNvZOZ79/TndWVmRNzw957vPa6/MnjH6tuf+g+Hz/+OmglQokQBiBIlFcPHUx/+aQb2zwFUOqWuawwPX7yAS5cvQq/VYt2nxoNxILg8JdVucLu49aLQYtuEjd0BDnqOEsDGPtzuNpwIZ8+cxFX2DrTQwTncmJ2yxn2xIboFmvNMWVmUaVZrOW5DS6ehNVah6U1A053K68pdC0zTodVXoLVOOkUCV+6B1joJrd5eKCtYWMgewjp8HXywi8PuANt7nZlaPQDgFnsDfqf21zFka25mXcfaYQ5HsC0rZP1gKdaPsQuWFoQSjWF9pQUNDD23XohW09FoLcE2TTfWRbr1w99FPqaZ9vedeeT7fm33ymdUYR8lSsS8V0qUKJkml5/6yM8Q4ZfgpGqsTFqNGh5/5H6cOnt2oukTgYhAIPezCx2R38mdKXfWIeIeVxBxZ7nXHnc/up/dNsdtHPYNbO0PYHMO5rU5noXn3jG88eFzqNU0gAhvxqfxPfgPrtvEDGdZNA0nTyyj3WpCazrBxpjjlKrFiMsEN3sgawBuDpzih0caShhYrelAWa0NVm/PcX2OwuQBu78Fe7CLkWFid78D07Jnflgvse/BH2p/Dlyru0aHsbVDQ/fgAJZpxsR+IJixyrN+wAOOOEABgE7fxJ3tnlf2lAjoHRzANAxIt35EFaav1PX6j778m//3bTUqKlGiAESJEqly6ckP/w0w9otVvy9ryy284fFLWF5bCykmBHJhYeyK43zmLjdMIMKBERcQ2GQb8kNEGFq83wHOOTb3+zjsGWCgwD6d1oOQ8+jF02gv1b31HqEv493sV6Bj9p4L7VYDJ9dXoNdq0JdOQ2+fqZonq9ReQdwEWSOQNQDZBsgaLmZVdqZDqzXBaktgehNMb4DVl47wvQP4aB927y5sy8R+p49ubzgHTxTDF7WfwHPaeydgofmsGWDo7O+7Wav8sR9AOOg8EpTuQQkmVg2fhWRo2Lix2YXFORg5Uxr9ziFGg6H44PPpWtO3mM5/+LXf+HsbanRUokQBiBIlUuTy+z/ytwj4har3e+70Ch579DLqraV4ZYAQCw6xVpCxQjq2gjhkkmoFAQj9oYmN3T4My/ZZPQAwFzrG+wG89i7eexIn1lquAsxBIJyna/hR9r9gCd3Zd3gMWF1ewvpKG1qtAX35PLTm+jF6ojnINp1CiNx0PnMDZJsAN0B8BjPsTAfT62Ba3YELrQ7oDe83sOPjKUxmD1bvLrg1QK8/wv5hf2apdf1io47Pan8eV9l3gGk+64XP+gHGcLC97WbSC0LGBEgcKIlaP3wg4rN+MF/wumUB17cOYRjjZ1TDqN9Hv9MRk3o3n7xINv+h67/z9+6oUVKJEgUgSpQIlUtPfeRvg/BM1fu978JJPPTwJdTq9eTX1rOCcJ8VhHu/T4CCBa0gfqtHihVkrzPC9kHfA4uxS1bQ6jFmmcny82dWcOHMiuvKNWl3nW/ifeyf4xSbj/Fa1zWcWFvGcqsJrdGGvnzBLTp33MXJuEXE3X9tgNsgsgBPEeaB58XbzpcedZIq1YUHTQNjNUDTnRot3r81NQwBIG7A7m2Ajw4xGJrYP+zOhbsVAPRwAp/U/jNssstBsAhZPzgIne3dBOsH82LGEIGTiUuWP604iwAMAyfCra0eOn3DW2aOhujuH04mQyqEEED/wWsf/2/uqn5DiRIFIEqUiIGPJz/8P4Cx/0eV+9QYw0MPnsf9F+93ZxnTX9ck96lxXAghCBhZrCCWbePuTh+9oQm/RcWxemDi5uWuP7GCOMtPrrbw4H3rAdgZA4xOJr6P/Ru8gX1xbu5zo1HHybVlNBs1aM116MvnwLSGegGUVCPchD3YgT3YhWVZ2D/soT805ubw7rBH8En2026wuRaJ6WBM8yDEMk30Dg4DMRnBmI6JmxVjjktX0Prhj/2ggPVjHKQ+Lqx6d6eH3c7Qt28Dnb09EFcQokTJoojKgqVESVCtZ5fe3/pFMPZ3Kn0RdQ1PPHw/7n3gvkzw4f3iL0A4/ux3eXCGeXflmBS7vu8j08bNrR5Gpj1J1xuTMcvLOhPIkuUu1hhOn2gH0v+OPxJ0XKO3YERN3M9emXlwOgDYNkdvMIRp2agxCxjtgWwDrN6a/2rqSha4m7FgD7ZhdW7DGnWx3+lhZ39+rB4Ehmfxw/iM9pdgsaUgJEQyWTmWDsuwYBlGoLhgIMNVTN2PqPWDJVo/xusyBqwtN6FrOrpDxxKi6TqazSUYo5HP7bQSOQPQe8+94cl/t/PyJ/rqwVaiRAGIEiUF4eOZ/wnA36hyr426jjc/fglnLpxP8GVON1QG4i8Zi64eSbMbhYe97gh3dnoIuJtH2vGnu0Tsv5wTLpxejcCNf7cbuIRb/FFc1F5AHfMx22taNrq9IUzTQk2zgdE+wE1otdaxikFQIruLsWEPd2Ed3oQ1OsRhp4edvUMYxvyUlzDRxO+xv4hvaj8EguYLFJ+AxSTN7gQYrNEItmVHgs2DGbF8ma4CIMISYz/CQDL+3F6qY6lRQ6dvOg6AmoZG203TW22a4vM28fcpCFGiRAGIEiX55emntYvtz//PDPjPq9xtu1XHW970MNZPnUrDi4RFLGgF8QZnmvhRO1qPzwoSBAPOgTs7fex3R8FdBooWMp8y4P9nYlmZ7Ilw+uQyNM2vYHjaF8atdtlJXKFvw3l2DSvYnx/ly7LR7Y9g245FhIx9p5BhralAREk58Bhsw+rcAh8eotPrY2evg+HInKvD3MdZfIz9X3GXPYZgoHhy4Pl4ndFwCM4JgJZi/fCBCQM0v/XDc89ikX1FljMNDECzUcfyUh2HvtpEjVYLtmVVDSEXbKL3Lr/5h/5d58VPDdQDr0SJAhAlSrJoB+zS8h//Ywb2V6rc6/rqEt7ypofRXl3LDx+h9VjY8hE2hMRYQUamhRubXQz9s6/+yoIIfvZcvPzBooH9OYrD2koTzUYtsC+/K9Z4TYMaeJm+DU0McJ7dmKsnwjAtdPsDcJujBhM02gPZI6f2xAIXtVNSsbgxHlbnFrjRwWGnh+39DgZDY+6K2b+Kt+G38VfRYyc9V6dU1ytfDAcYw6DXB4gFA89jrR9aButHuF8LWj/8ky/1mo61dgPdvgmbOxDSXGrBsmxwq1LL0gXd1hSEKFGiAESJkmxy6cnWMwD7G1Xu8+ypFbzxiUfQbLfLwYemJceCuL/HWUH2uiPc3e7D9ioKk29dIJyRBv54Db8/lT8Hv7vxcquBdrsR5CEWvylBw3U8gS26D/drV+bGJSsCIpy7MSL7ILPvZHE6aoXvlIib0rCHsHt3YXXvwBp2cNidWDzmDTwsNPD7+BC+iB+HzepRd6dU1ysATAMR8OLVO2i3aqjpmmuhYCnWDxYsRhixfrCp1g9/p1LTNayvNNEbmrBsp09rtFogm8O2KrUyKQhRokQBiBIl0+Xykx/578Dw31W5z3vPncBjjz+MerNZDj5C8SKRWlxxVhBiuLPTw+7hcKII+YsIh0khErDOYtoPWknqdR3rKy13f5TqijVuYx/n8BK9EyexiRNs/ooMG6aFTm+IkWlBgw3N7oIbHWe2ttaESiioBHDqeNi9u7B7d2GO+jjo9LGz38FoDsEDALbwAD5Gfw032Rt8cRfprlf+wPMxUPSHI2xsHaDTN9Go62jWa244WtCyERuEHgk8Hy/Xplo/gnMxDCdWWuiPTJgWBwPQaDVBRLDMqiGEvWfloaf+7eHV31EQokSJAhAlSkLw8dQz/2XVRQYfuOc0Hnn0MvS0Gh954SMcCxIAhYllw7I4bmx20Bta/oyWAUUicAQBFmGIpZ1A5i14CsWZk+1AW2muWGMIMamBV/g70MM67tNegQ4+d8+MZdnoDUYYDA0wsqBTHzQ8cOJE9IaKEzmW1GGBD/dgdW/DHuxg2O9h97CHvcPeXAWXBw4ZDN+k78cn8ZcxYKuxYJHmehX4nTEcHPSwf9gHwNAdmrBtwvJSPRrX4U+7O+67Av1XfJYtr42w9SPcVzGGEytNjEwbI9OJAak3m069EKNS6+o9mmb94H33fd+/2rr2GUO9JEqUKABRogQAcOmpD/8lEP4pKpq6Zgy49MA5PPTQJWg1XRx8IJ4L/D8wAP2hhRtbPRgWn6wYTJ8VBZqEeA9/2kyf3uC1YXEb58+sJGwbPk7fvtxlm3Q/rtEbcS97DUusO5fPj805BkMD/b4BwIZGQ9Bw13HPYkxZRY4FdwzA+1uwurdhDQ/R6/exu9/FYXcAa07S6cZJj9bx2/hpPI/vA/nqeKS5XoVrfoQtJNvbh+gNRt7yoWVjOOJYWWpA1zQAaZmvUNr6EeweGdaWG847OnIAsNZogGkazNGowivN7rMa9T9x5pEP/uvdK79lqzdGiRIFIEqOPXw882dA+GUAWlXw8fCle3Dx4oNguiYHPlKsIHvdEW7v9NwMNaF4j4B7VFIKX5+VA/5g0lCciW/bk2tLqNd8oBLjipUWStKnVbzAvwMas3GBXZ9bVZ4TYTgyvRS+DDY0qwc+2gO4DVZrqHoiR0m4CT7cd60d2zCGPXS6fezsd9EfjNyYqvmVV+mt+Bj9DPZxD6CxZPenjK5XYzi4vbEH07QDllHLInQGJpZbddRqehA+gEhhQy2UundyXL7Uval9YBBCVttNcE7ojyGkXoema7AqhRA8xJn56P7/6ft+DZ/5DKkXSIkSBSBKjqlcfurDHwThVwFUkspIYwyPPXQf7n/gPkBjcuAjtNyv2G/uD7C1P/SU/KA5Qgvsn4VgIzbLVYLrA/wZsgAsLzWw1KpHS4VkiAcZ/8uh4wZ/BLf4w7igXcMSm+8U+6brntUbjMC5DZ1GTvYssw+AwPS675orWRghG9w4hN3fhNW9C9vooNvrYXe/i4NOHyPDqrr4XW4ZYBW/z38KX8CPgaPpuUzGxn3kcL0av6yv39waT3tMJjU0Bs6Bw76JZl1Ds1EPul7FwY8veD1q/QjFoGWQlXYDjDH0BqYLITXU6vWKLSF484lbtfP7r3zqY+plUqJEAYiSYygXn/zIDwHs1wFUkr5IYwyPPXIf7r3v3hR4EAQf/tYYA+eEG5tdHHaN8cHAXx8kED4eMEXEQEVAAQgBiW/9SVsaWs0a1pabiHPjyhIP4je6dOgkXrC/ExqzcV67MRcV1NOEE2FkmOj0hzBNG0QmNLsPPtgFmV2AOFitoWBkvu8iuNGF3d+C1b0DPjxAv99zslm5aXTn3doB9w17iX8Hfpv/NDbY5ckkQiD4Oxr3kZr1KmQhGY1M3N3c9xVBnbhWgWkgwCsWuLzUSCk6GN5/KHg9zkKbQZZbddRrOroDp2q6XtNRa9RhDiuFkG9ff+xH9INXPvVp9W4pUaIARMlxgo+nnvkeBnwcQLuSF0vX8MRjD+LCPRcqg4/xukPDxvWNDoaG7SoFwRS6LDbeIwQHHlT46CIAJAgVK0Rg9lLXGE6tLwUzZWWNB/GKG8JTcjg03OCP4lV6I86xW1hhhwvx3JmWjf5ghE6vj5FpgWwDGh+AD3dBlmPRYXpNwcjcQEfHhY7b4KN9DPtddLoD7B500O07bnaLIoc4hd+1/wK+gXfDZs0E+JgS9xFTcNDvegUwHHaH2N3vIOg+5XUa7ncNg5GFkWljpd2ApqWn3Y2N/cjSDyasstSsoVmvodMfuf2zjnqzjtFohKrmMxjwAyce/eG9/Vc+9QX1rilRogBEyTGQh5/6+TcTaZ8EsFbF/mo1DW96/EGcPXceSJy1kwAfAA57Jm5udWHb5MtK5W8rBBGBwwm7YvkgI2D5iDmugGsFYNuE86dXQtl8M8SDhCwjfggBgAGt4gX+7RjSEu7Tr0HD4sR2WpaNwdBApzdwFFluQrd7sAc74EYXsA1H6dLrUAHs1QhxAzTcd92r7oCPDibQsd9Bpz+EYVqgBfLe59DwHH8Xfsf+S9hj54PZpNLS3ibFfYQKDrKQhWR7t4NubxQAB3/nMwEfBsMi9IcWVtoNp15ITOA5i7V+IGC5LSKtRg3tlls1HQRN11GvN2AMhxXeHfajJx97z9X9Vz75rHr7lBx3UaOckiMtF9/38/cwXftjABerg49LOHXmTMobJgc+dg5G2Ngbx0kQCARPcyJyJvqIHADxvnPfcnJnA8ndjLw/Il9b4+3DbY/35+7jiYfPotnQfW1P2iGiwH4Cv/vX97YLrQfCOrbxQ/Vfx/3a1YV9PjWNodmsY6nZRKtZR03XwDQdrL4Crb4MrbECaHX1IgtUz7nRAxkdcKML4iZszjEcmRgODQxGJvgCuFYlyTbdh0/bH8IW7s8Uv5E97gNuBfPodt96+Ra6vcF4qsBzwwzAByFUvVzDA+fWsNSsI2g5ITDXbSvqloVJ/zOVLJMX9QYGrt89AHf7L9Mw0dnfA3hllGkToz91/WN/99fU+6hEAYgSJUdQHv/gR1dHFv8sgHdUBR9vfvwSTqbCR8bXLg98EHBnt4+9js+nmTkw4UHI+LMPQsgHC87PHCA2gQ4PKniwLRdcPEYJAY1j5CBcvGcdp04s+SCCT8AmDkI4n0BQRggBAZf15/H9td/EGttb+Ge2putYajWw1Gqg1ai5KX1b0GpLYPW286c11MudmTdMcLPvpMw1+yBrCIBgmJYDHSMDQ8PCQpk4YmRIbXyZ/wie5e9y3PliIMKzLmhaLHxMi/uIixfhBHzlG1fBCR5AeK5XLBQ0Bp/1lDFomob7z65itd0MuV458EGJaXfLAQgA9Icmrt3ddzMDAqZpoLO3XyWEDBjYj7728b/zOfWSKlEAokTJUZJ3P1271G7+BoAnq9idrmt40xsu4/SZ05XCBxFwa7uHw54RswsXPAKWiglARK0imAAAmwBCdHmoPR9UwLf81IkWHrznxAQ+QiARhJAoWGSHEIJOJr6t9jl8e/2zqME8Eo8wYwytZh3NhvtX1x2FTKuB1ZcnUFJrqa7cfd7JHoHMAbjZA5l9EHcqkFuWhaFhYmQ44LHIVo4AX0HHs/b34Mv8PRihHes+FRf3ER/0jalxH+F4kW5vhG+99DoCxQXDrlfj7+QvXKq5MeoMF06uOPFiXhvkAEhS0UFhEGLg2t0DcO70g6ZhoLe3X2FGM7bPuP0Dr/3231PuWEoUgChRclTk8vs/8o8J+GuVwIfG8OYnHsKpMXwkvlks2yuZ8a20OeH1zS4GQyt5FyFoIJ/LVcSVagwVbOJKFXCtGlsrwq5YILDw+iA0GzW88eEzIJ4MEuP9U8gqkwtCfNuu4BDfWf8U3lT78txnyypAJGjUdAdGmnU0GzWvyBvT62B6E6zWCvx7dFnDBllD588egewRuDUEiINzgmlaGJkOdBiGdWSAwy83+SP4nP1B7OEeJMVuFAk6nxb3MY4XYWC4s7mP6ze3Qq5XFErZ7Y8LQUysCHB6vY0Lp5Z9cATPUlKILjKtQq4l5AC2a/mwDBPdvb3qIIRwuwbtT1z5rb99U43aShSAKFGy4HLxyWf+LmP085XBxxsfwqnTIuADma0fpsVxbaMLw7R9QeZx+wy7YlHQFYu44+owBhI2dsXyA4YPQkJAw0DR9b2SIIQ3P3oONY2lgwTniI0HyQgh/v2Ptz2v3cAPNP4jLmhHe1yv13Q06jXU6zXUazXU67ob3AuA6dBqTQdE9DqY1nBBpQGw2vyfHNkg23CsGLYBcBNkjUD2EMSd5AOccximBdO0YVoWDNOGYdoAjm7Ntz06gz+wPoDr9ESohkZW+JhARNq2aXEf4/ZefvUO9vZ6waxXDOF83UFrCJgzORAqPLi63MT9Z1ega/okX0Vqf0glAcRZaTA08ZofQkYGunv7k35S+nPOvjqw9e/f+MTf6qnRW4kCECVKFlQuPfmRPw2GX63i2dYYwxvfcBFnz53L8EaJc70ajGy8vtmFZfMp8DEZZANB5BQToO5mpwIo1rUqzlWL+a0WPtetyaYcDz1wAusrTc9yEgWJKUHpWSDEHzvi25aB8Fjt6/iu2u9hXds9Nu+Apmlo1HTUGjU0azpqNR01XYeu+1L9Mg1Mc2DEKZCog2m1yb+a7lRw13QAIlMEc4DbILKdf7nlgIb33YENsk2AJhnObJvDsjksy4Jh2TBNC6Zlw7b5sbmvA6zgS9YP4jn7u0CoTQWIVPjIEnSeUidkbPH42nPXYJgWglmvEHS9ClhDtFDGO3jZrwCGdrOGB8+vo15zIITKEgZlW2EwsvDanQOvtos1MtDdr9Adi+Hj19oPfxD/9k/ZUKJEAYgSJYsll9//zPcT6BOooNCgrjG84bEHce78+Urho9M3cXOrB04UqVSevD9KccUaQ4MPJAKQgqjVBORuwieA4y0PQsCFM8u45+wK/O5bmYPSM0IIefEs5FM4/CBi4Y21r+E7a5/GqnZwjHt7hpqmoVbTHCBx/63pOnSNQdMYNE8ZRABWnBlzffJ8MW2iPIafNt9zMcmyZrv3IwoMnAjc5rC5869l286fNflMdHxv25CW8RX7+/Gs9d2wWCNaQLAgfGQLOo+6bI3hY2TY+Ppzr8XAxuR5C7tiBWNFYtZhDM16DZcurKFR1zMwhBgrCAAMhiZedWNCQC6EHFQZE4L/8drHf/ZvqpFciQIQJUoWSC4+9dEnGPE/BHBS9r40xvDEo/fj3D33ZHibxMV97HZGuLvbBxFywEcChIw/s7Fyz4NWjjGEBKwgrttVKAB84unlC0J3rSbL7Toeu3gqEkMyPSg9H4TErhv6TScLb6p9Gd/R+CxWWEe9NAmPosY0F0g0aBqDzjRAY9DcR0vTJr77mhZ93oiTl0eNOHncSsRhc8dtinMOThy2nVlLPHYywhK+Zr0L37DeBcNXSLCU21WhoHN3W03zVThn2N7p4uq1O4gvQDj+WfP1ccyXCysMLME2arqOSxfW0GrolVlBACc71mt3D8BtNzvWaITuwT6q88bCf3H9Yz/7T9TTr0QBiBIlCyCXP/jz58nSPg/gUhXw8fgj9+P8vRdCFcVLvGIZrB87ByPcdWt85IePyUBLFLIShLJXJWbFimS5cpcz/3KAwEPrA299/Dw0bdJulqB0WRACAjSy8Mb6V/Fdjd/DMuuqF0jJXIlJDTxrfxe+Yr0bI7STgUIQfGQKOo9x2bpybQPbO4cTmIgUIEQozsP9TmPXqzCwBAPTNY3h0oVVtJv1FP1fLIAQ4MWEjCHEGA7RO6jGckqAxYAPXPv4z/62ehOUHHVRldCVLLS8853/rN5vD38TwNuq2N8jD92Le+6/Nwgfibq/GPjYPhhiY29QEj7Ga2kBF4lx4HlUaYBPaYBPGfFVUddC7QUOZWLVWW430GrWfEM8C64SqpQeOLyEaulJ28euG/qNoGHDvhfPmd+JETVxVt9EnRnqZVIyUzHQwlet78VvGX8O1+iNsNGoDD4yBZ17oOG45L12Y9NR0llKAUJE94/Q/id9TRBIiICD7gjNRs1JQV10gidDr+j/VKvpWG7VcdAdgQDotRo0XYM5kt9HMCfg6sdPPv6ej++//MkN9VYoUQCiRMmcSvMd3/uPAfxUFfu6dN85XLx0fzClZBn4yOB6dXd3gK2DYbRVVmR/PuVAi2svNCPpg5CAEg8AWsiNAj5FJNSeXtOxvtKc8M4UiKgCQhgYbOi4wx/E183vwj4/hZNsF21NJaJRUq30aBVfs96F3zb+DK7xN8BmDYQDuCuBj5QihSwEDoOBgTsb+1E3qjBsBKwfWgxsxMMHfNMVh/0RajUdS42CmdsKMEq9pmOpWcNhzwABqNWdfVtmJTWGmiB84Mwj7/03u1c+eajeECUKQJQomTO59NSH/xLAfq6Kfd134RQeevRSRvjIOOqlWT+IcHunj11fdfNy1g9fIKiGCGAgotj7ZgWZl1cXk0nLUI7+QNZNv7avgXOOc6faMac+ewhhjIFDwza/gG+Y34HX7YfQZj2c0HaVf6oSqbJl34M/NN+HTxo/iZv8EdisPulfZgAfSUUKWYzVYnung4NuPwIf0QKELMYVK931Kk46fQOaxtBu1Su7P426jmZdx2F/BICh3qgDRFVByBoH3t186H3/e+/q75rqbVGiAESJkjmRiz/24e9mxP4dAOkFDc6fPYHH3/AwtEA2lzTdvzx83NzuYb9nCoYP35gf0fAJcf7bkV0xFvt7sL0xGji/WRbh9IkWdE1DKAHOTCGE+ZU3dx8dvo6XrLfgqvU46rBwWt8+egUNlcxUbtsP4tPmB/AH5pPYpnvhWCbZXMBHfGas6La37uxgaFjuZEZCyt1AJfOwq5V/nXjrR1i6A6eq/cpSPX9/W1Ca9RrqNR2dvuN+VW82wC0Ltl1BtlyGe+oavWH/ld/9t8D/oF4cJQpAlCiZOXy87+fvYdA+CSY/49XJEyt44o2PuBWns8BHOQAhItzY6uKwb8W3WCDuI1iBGIhLmRnnOhU0lEwUkQC0+DT6WLcKV1qtOpaXagEImCWEjFOBsgAwTU6nT6u4Yr8BL5hvg006Tmi7aDA1EamkmBho4VvWt+ETwz+Jr1g/gH0648ZPudml5gg+Jml3tVj44AS8dmMToPH68XEf41TBUfjwLc8EH5Nl/ZEJy+ZYbTfyKvOZVwivutSsQdc0dAcOhDRaTdimBW5XUrLjifXH/sA8eOVTv6/eIiUKQJQomaG8853/rD5YHf4mGN4se18ryy289S2PoV6rxY9kgq0fnBNe3+yiOzCTB8Si1o+4mJEAkLAQn8QABtMSeCYMIaEVGKBpwMm1pQhEzARCAspWHIRMlo3QwuvWQ/iq8V24aV1CjZk4qe8oq4iSTLJh34svmD+ITwx/CletJzDESiw4pALFDODDW1eLbnvQ6WN7pzMJOtcS4ANIDTKf1ATJmkDDkcHIqXi/2m5mLZ9UWhzXL0Jv6PTN9aUmLNMEr6AQJgPevf7wD3/54MqnXlFvlBIFIEqUzEga3/auf8qAn5S9n1azhre99XE0m80c8JEFCuIDz4kI1zc76A8t8fCRsno4K1ZAHfAS20x+nRQRoxC0hDNnBS0MlsVx/sxKLERUCiGxmb38k7IsYg0Zu50d8hN42XwTvmm+A31axkltD002VC+lkoCMqIUXrLfhd0c/iS+a78Ymvw/Eak6a21j4QKgWx5zAR0KRws2tQ3T7QwRcr+LqfTB/v6ElxH1k7cuCMjRsjEwba8vNyflI0v7HsrzUAOeE/sgEA0Oj2YJpmCAuHUIYY+z9q4+8798dXvndPfWGKTkqouIslSyMXHr/R/4qgF+SDjl1HW97y2NYWV3JqdAXs34QEa5tjOED8QBSKOsVy7aqr0Ahw7iSNfmqpCNQH4QC9UDgK1LIgjVFiHzbEx69eBJr7UZinY/YaumC6oR4h59WK8R/LgRfBeToOTv1F21cql3Bmxtfx0P1K9BhqZf0mAoHw+vmRTxvfTuuWE+As3oQ2kPWwakuV5g9fCQVKfz6N1/DcGQFJgYILBE+Uq0h5JvQmNZJIVDCCACwttzEA+dWJynCpzeBrCtR7HaEW1sd7HWciQfOOTo7u+DyIQQAvmHoo++5/ZtP99Ubp+QoiLKAKFkIufjUM9/DgH8l+5nVNYY3v/Ey1k+s54SPLJp+1PpBRLi+0U2Hj/QvJeAjWpE4YAHR3P8F6oPQZOYyLt7DbyHRgq5Zuq5hfbWZaMkI/Oa/XCUtIRMFMGV9lscaMla6NOzzM3jZfBO+Nvp27PLT4JaJU42OctE6JtDxSvce/M7dt+OXr/0gPrP1Zlgrl6DptckzFWP18OIi0lyuvODs2cJHuEhhfzDCrbt7oePXAu9RPHz49p0x6DyuPwtvMTJtDA0L61ncsQRNt661mxiajgWGMYZ6swFjNKyiWvoFnWoP7b/yqX+v3j4lCkCUKKlALn/w58+Ds08DWJe9r8cfeQBnz51NH71EWT+IcGOzi+7QjG2neOB5XlhioZAQ34wliwcnFtXWg6to4aKGgGnZuHBqJRUiRENIAD4SIMRfkTnOVSsuNmQCKM4XGzVcOTyNT9y4jNGZH8TFy48D4NAMlUXrqEmXncNv3nwT/sW1H8Tvbb4V1/rnMKI6OAHDoYn19TY0piW6VgXgNs3lygchs4SP8faMadjY3Mdhd5gcdA6E6n0gCiSB7+XpwMgDISKEAavtBroDA5bNoWka9HrdgRD58pYTj/zwwf6VT31evYlKFIAoUSJTnn5aO3Gj9msAk17p/NL95/DAxfunw0UhAAkp8UR4fauLzmAKfJQBEJZhHd+3QBYrjYUyYyGhPkhMOt9AUPpEAeGcsLbSQLNeqwZCGMO0uJBwNqzELFlx1hDfcQxHHLe3egAIr+9YePtb3w527rsxPPNu2I2zYGRCM/fBwNU7vWjCNFjLD2F4/n0YXPo/4xe+cAlf3zqNIW/6TIaOYm1aHLbNsbraClk9YlyuNG16vIc2H/AxXve1G5uwbB5b6Txa7wMxBQmLWD+md7cOhNhyICSm/2WMYW25icOeAZsTdF2HrlVTLZ0Y+5GTj//I7++//Klr6uVUogBEiRJZUND+0b8N4Gdk7+fc6XU8+vhlX2Bkwggkwvoxho++mdhOddaPsFLPJrn9vRl+Qrg+CICAIhPwwGJBavErK7quYX2lEXD5kgIh4WDzmDZYQjasuCxZDCzRGmJz4MbdLmxyrhMnx9rzxIPrgN6E1b6E4cnvxvDce2EsPw7S29DMQ2h8oF7wORVeW4W59lYMz70H/Yt/GcaF98FeeQRXNkx85hu3Q25HWiCgemjYTiXtpUaGLFfTg81jg9NnAB/94Qg37+xNyXiVZOkQAR/p24mxhLDMva2mMay0GzjojkBE0OvVFCpkgAbC+8888t5/pSqlK1nouR11CZTMLXw8+dHvAuOfAyC1/O3qyhLe8fYnoOt6QaU+B4C4RQYPeka2gU+49YOl/8IIIDYJ3vYCzCcB285vvoBzLyCce+c4CfD2bwPU6xre+sgZrz2aElheLDA92EZccLq7RqCduEB0L/g1cC3gBalzIty408FgZAXa1Rjwf/vJJ3B2vem16/+XiKAbW6h3XkDj8BtodJ4HIxXEPruRUIO19CDM1Sdgrr8d9sojTpE85gdOhl/+xEt49rVdjBMuRDI5sUnWp8sPnMZyu5kYgB6ABmBqvEcQtKuFDzCGm7d3cOP2TmLGK+91Sax+TvEdU3y0d4L4gtEpfvlqu4EHz615nmDJ+8PUFZIC0f3SG5i4fvcA3H2/u/sHMEejCh5a+mKNVr7/ym/9VyP1AitZRFEWECXzCR8/8fQJcP13AZyWuZ9Ws463v/Vx1Bv1gvCRAQymwkcCgFTkehU51lAdkODxxFlCQo2Fs974trE54cRqE/W67i4RbQlhJeJCMlhDQrEhG7sDdPsmgrPczgq9oYW3Xj4ZsKr5FVrSl2G3L2F04jvRP/MemMuPwK6fAhiDZnfASLlrSVPdmA57+TJGJ74dw/NPovfAX8Do3Htgrb0J1DzjuUcxxqC5nzt9E//2c6+N7YFB+GBRwOj2DZxYbztFTEMB6EXiPfxWk6rhg4Hh2vUtWJad6GbFgGwpeBO7JDHzoZ4lZLmamJBGXUe9ruGwN66W3oQ1MivIjMXu45pxev+VT31MvdFKFlFq6hIomUsxmv8EwCWp9K0xvOmJh9FsNcsMApnXvLs3yA4fcgasDIuDdT6cfLNsnE3XtZBoACMwIhAbzwS7qTidPL7O7DGRk2WTfC5cRNjvjLC8VHczcBIYMZB/U0Ygt8oyeYfiWF1cA83kXzjrOkrTxKIRbmM8+Upjrgq34+48sI07y03uSsyNcRm31+mbOOgYHtCQd57Ods9e38cP7Axw/5n2BDrcWfNJit9xT9yCufYWmGtvca0tNvThXdT7V9HoXUG99zJ0c1f1C0WBQ2/Bal+GufwozOVHYS0/AugNH7SyCCCGP3/p5S3v/sXCfCi42rI5bm0c4NJ9pyNWjwl8x1g9xop8isvVRMevBj6GQxP94SgYAxYCjXE/Ef4teK1kJ2Rw3tFO38CNjUM8cH5NDISw9EM/sdKCaXJs7PXAGMPyiTV09vblV0sn9p9feuqZz1372N/5V+otV7JoolywlMydXHr/M38FoH8q9cFnwBOPX8T58+eyvx4lgs839wfY2h9M3c/MrR+TkS3gIuX8RBMHiIA7lq/2h7d52J2JvHiSRl3Hm103rImrVwl3rPF+UmqFOKskuGSFjjPOjQtj9HDbMyyO124ewua2T6+iCFg8ft8qfvp9D3v7j3PHCv/rb8P/uz7aQL1/FbXhTdSHt1Ab3oJmdVSHEYGNNqyl+2G17oO19ADM9kPgrXsjLlVJ/8Z9Bhg+/CtfxfbhcAKZ7nPDQpa+cKXve86t48yplQgw+CEkavUApsV7xEGMDPgAA27e3sON29u+84yL8RhPSKTFfSRo8ZndsCjD6uQDgybuP7eatBhTDibF8yq+kTvbXewcDgAQbMtGZ28PxKVD1z44vePab//sNfX2K1kkURYQJXMlD77vmTcB9D/K3s/F+87hXCp8CEJ1Bux1RinwMSdzDXGFDtnEOhFvCfFlvRpP/o/jQ8Lb+CwhhmmjMzCw2m5MlhW1hHhWCr81JNgGwMaHMqmtyMY2Dt/2CdYQjC0Xvu1ub/Vcn++xshWykrjg8NKtDm5ltYJ4HBi/jLcuYNS6gKEPSjS7D314G/XBddRGd1Ab3UF9eAOMG0e/s2A67PopWK17YC1dhNW6F3bzHljNe8A0bSpoxAFH0m9Xbh9i+3AUhA/4KoAHZg5YwO3u7tYhltsttNv1qNXD45aEYoRTXK4CECIJPkAMWzuHQfgITVwE0u8mwoeofiy7Qr/fHUHXNdxzernQPvLtDbjn9ApGpo3uYAS9pmN5bQ3d/QPZyH2CafiXePfT78ZnnlaBZEoUgChRklcuvfvpFnT6FQBLMvdz6sQqLl2+X8CwOL2FTt/And1epjaYxOOYvkVC9q8AhGDyHS4RaMzniuUqHjEQogUgRMPO3ghr7WZA8c8NIXHwEIIQBz4o2SVr7GyVADQReAHD5m4fgyEPKJpO1Xf3AAmB3z/1jU385R+5HAsWYSCZ9m9kG7YMa+VRWCuP+oLobWjGLnRzB7qxA93cQc3YgW5uo2bugJkHC1ObhNfWYDdOw6qfht04A7t+Grx5Fnb9FHjjNKDVA6AAAFoG6MgLI194YTPkfsSCRTfhd40Kuh8RgBt3dvHYQ+fBtJwuV147KdmyAHnwAYbD3hDDkYloUVJ/qmo2UdeLwIen6WdT+fOAwc7BALrGcO5kuwjD5O5YHzi/hqu3dmGYNurNBpaWlzHo9eQiCPC9l5eaT78G/LdKk1CiAESJkryy1Px/AnirzF20mnU88cRlME1+/oX+yMbNrR4o72CX2/1q2qqs4HbJEAKHI8ZauwshmksNQUsIC1hCHAV/vzsC5wRNYwUhxPkwLS7EjUyJtBNn1YgDGhdh3O0YegMTO/vGROFyXb0mwIFJPRQXEr71+gHu7o9wz8lWIeiYCiGh38BqoNY5mM2z8CcE9QCFm6hZe2DGLnS7C83ugVkd6HYfmt2DZnfBrC708WcuLskOaQ1wfRlcWwavrYDrK+C1FVBtBbbWBtVWQLVV2PUTsOtnQFo9Nog/DiCKQsc0CBkatpv5KgwemJBpyOoRVtAN08btjUM8cO+pyWuV0eVq0lxKvEcaxJSAD8YYNrcOJnDjvXzxMR5s7IIl3PJRTjb3+tAYw5kTS9L3pWsMly6s48qtPXBOaC23YVmW9MxYxPCzF5/8yO9d/62f/T2lTChZBFExIErmQh56/4d/jIP9puyB4e1vfQxr62v5X42c8R8j08Zrdzuwp/r/lo3/KFr3AyFlKds0WyA9Lwun5x1/DMaEsEAciavwE+HiPas4c7Idm2I3OSbEBY8ScSHeISbFeKTEhly9eYCRYQfagP+cw8q+u+3bHz6Fv/BDlwLLssaEhNtMWxb+PG1Z0m9xyzU+cO+NDY0cZYrZw0BxRQID6a6SpzVBzJnj4tpS5DmLq7mTBBtpy5JgoihwhJd97tnb+Hefew0xqdngs2HE/86C7+dDF89hbbmVAAxR+Mgb7zHZpRj4sDnhS1+7Ck7BbHLe8fthi7GQ81JKR5L6c444EMrRPoD7zqzg5FpLeCreOOkODFy/uw/izjvU2duHbUn3kNoA9Ldf+/h/c1dpFUrmXZQFRMnM5dJPPH3CNtgvyabhRx6+PyN8ZOGM5KO1bI7rGwXho+qpBJZjRc/9ihxvjLErVmxmLGcTLeCOBfjcyrG1P8DZU+1YK0a8JWQMDcXjQuJcsrJYQ8Ac16uR6WT4gq8N7zr6NJWwReTZV/ex+c4Rzp9oRZTqrFaPuG3GgBBrCQmt71euw8vTYMRbrk386HnBx4wlwC6bAidZLR9ZoSMPjHzhxa0Y+Ai5PvnOlIXXG7vmgeHm7T088cgFaF7NoewuVwEISXG58o6/JHyAObEfE/gIXoOoKxbz+zZWN4VKmX4EANza7kLTGNaXm4L2lSwrS3WcO7mMjR0nM9bK2hoO96UHpZ8H7P8NoPe7N0OJkrkVVQdEycxl/aH3/S8MeJfMfdx74TQuXbo/UQFK1cxzAIjNCdfudmBYPINloYrsV9OsH1n2w+L3FfBh934I1QPw1+vwK0OAaXGcWG2iUdcQV+djotT46m9gSq0QllYvJFpzJK4a+jitrr9uyNC0cWuzF/HvZyFlMHwjx0otATBtwlsunRDuJpT1c5bvWZfl+dN8NTWmLUv7nudz0X/D+7651cPHv3jT98BM6nhMrA7Mg1YWWs+v0DPGwDmBE8PaylKoZg2LtB+GhklF9GT4YIw5AfgC4IOB4dVrGzBNeyp8TNrQKqKO4tLpG1hq1NCs69KPYblVx8i0MTJsME2DVtNhDqXXDXxk/dHfPzx45VN/rLQLJfMsmroESmYpl5985gMM+PMy97GyvIRHHrmYAz6Ky43NLkbhAXtOB+JCbTAE/dMZwKCFNP6kSsj+zD/Ob1t7Q6QG2HrwwabWRvAUujiFS4sqboGicEnKm8ZAjOH2Vh+RDEeBfWsThZRpkz8fiHz5lV3sdMxCynucopz3c9L38V/cvuP+0o41y/pJy2TBR9FrzRjDH4+Dz5PAg4UKc/qtHv7CgT5Q2d7toTcwgs+Nv+CgxhKhgfnfqZR4D8bKw0evP0KvPwoVFNVS4GMxxhwi4MbGIQZDs5L93X92DUtNx9mk0WiitdyuYGRgz1x6/4f/hNIwlCgAUaIkRu77yQ+fJkb/s8x96LqGNz3xEHQ9z2xXsZH0zk4PvcyD2qK4X7EYAvEH4/qz+YRmfCMQMgGAseKydzB0YynSZ32TU5UGwWFalemgtSK90vR4u539EQYj26dgamCaPjm28b7d43AUSEyWaTrANBAxfPobG6Vm5Isq5mnfs8BIGTDJCjpp3/PCRxaIm7aNbRO+/PK2jzXjwGP8jGoIWsFYpI7I+BkhEG7e3nXdF+NT7HrWjjiXK03LFmzuf+5zwgcYcHf7ANCCx58OH6xcf5azInqZfpMT4frGIQzTlt4/MwZcvLCOmu6oW0vLy6g3GrKH1zrAfvn+D/3iEpQoUQCiREmohxyx/zeACzL38YbHHkS7zIxTxtFn53CI3c5ozq4wEzZgF4EQZIAQm4C9w1GkUrQzM6zFV4qeAg6RdjLMJEetIY6SZ9mEzb2hkzXNAw5/1iEtoPRNrCRaUAF1YeQLL+/ioG8Vdg/KCyFZvmexfhRxu8prBSkLIqJdsb55bR8Dw/aejXjwGMfH+BV5LQQeWshlT8PQsLG920Wa5S7d5Spjpiv/e5QDPjgn7Ox2c8PHwggbx+odwLa59N3VdA0P+qqyL6+vQdelq1+P13vGzylNQ8m8iooBUTITufhjH/lJRpDaOd534TQeePC+Aq5X+eI/egMTt3Z60WmvjPuYXfwHy3ctwgc7dr+KiQlhLAQqmv874A/GMEyOs6fagUBl5ovBSIwLgT8uAojGhcS3wxibEhsy2e7OTh8Dg3u/I3TsExCZ7COgpAUgyc1erDE88cCasCJ5RWI/0mI8kn6XFQuSZrUQAR9FXbD+jz+6jo09t4Ao0+LBI6SUB56RQJ2OaMrcwcDE2dOr0HQtMyjHQXKWeI+IdS8FPhhj2Ng6xM5+52jCh68js21Cf2ThxEpTnouu22y9pkPXNHQHBhhjqDUaMAZD2Sf6J04+9sOf3n/lU68rrUPJvImygCipXO77yQ+fZhy/JHMfy+0WHnrkAelxHyPTxutb3VCtjwWI/2AiVoq3hGgBS4gWVVZClpD+0EK3b8a7lyTFhQRmiLO7ZMW5tkRjQ5zthgbHfseKUST9sR6h4NxYi4gGv0vOHz2/jZFFQqweZdyuyrpi5bWETHO9KmoFEWUN8f8NDBvPX9+buNYlgQebJFCIc7eaQEm4dgaDxQl3tg6nugqmulyFnrc0l6tIfFMCfIAY7m7tSYSP+QKW/tDEjc1OJfs6vb7kZeDSazUsra5I1/GItF9+07ufXoESJQpAlBx3qY/YPwZwXtpDzRieePwSanpd6nnYnPD6Zhc8nFbxWFXXyeCOFTPrOoEQRym6uzNIDjaPgxAtv0tWXHBv1M1lAjV3d4ehc9EKgggCIDKyCJ9/cadUHEh4vbjPaUHnWUAkLd4j619am1l+i1se/pzFkpL336+8vA2LUzCgOw08WNIzovkU9yAUM8awvdt1MiSlJEuY6nKVErQeH5zOkuEDDLsHPfQHZjn4WLA+8LA3wt2dbjUTcGdX0ag5zifNpRYaTdnxIHS5u9z8iNI8lCgAUXKs5eJTH/6TAP60zH08fPk+rK6tSj+XG5vdlCDGbDOA8gLQJcR/sKQfpkAI/NARhRAGhoOO6RT4Swo2TwgqD68fl9kqKb1pxBriU/46fRvdgTU5l/F6fkgBoDENGmNg0MCY7vncj5U9zffZbxX5zHObbm0T+dmv8ij8Iq0fWdrNagWpIhuWf32v9kcITJPBI8FK5oeWEEg4AekMtzcOEiE4q8tVUtB6kstV2BriB507G3slLR8V0wcTcwzbBwPsHAxkHxg0jeHBC2vQ3OelvbYCTXI8CCP8Fxef+vkfVBqIEgUgSo6lPP7Bj64yYv8vmfs4dXIF991/Qfq53M6V8WoehYlvb+x+FZd+NxFCxrPChLs7gwjMsAxB5dNdsjKkOg1BzcbeILamgzZW+KABTI9XLBGGHuYBzPjcd7smvvHawcyzXxWxfojIjiXK/UpkNqzx325nhFfvHE7qWoSqm0fBI/Schd2tQlAcsIQA2D8coNc3gAwgneZylTfYnLEofHT7I+x3B0cw5iOb3N3totOTn0yk1ajhwull99JqWFlfk31ZGSPtnz/+wY+uQokSBSBKjpsYNv/vAdwnq/16vYbHH3+oZNzH9G0PuiPsSc14tagDfIolJAwhHhRMftveGzoFHBMhpIhLVgZrSAhq9rsWBiMeCi4fW0C00PMVUihjgocn+9MCVpFPZkzJWwZC8rphVZGGN6/7VRn4KOKC9fkXNgNWLg8dE8ADiFHOk2qHsJiihWC45VlBUtJCZ3C5yhts7lns3O1u3Npxi5kfP/gA3BohWx2MDEt613xqbQknVloA3HiQtvT6IJdGlv0PlSaiRAGIkmMlD77vmTcR4b+SuY/HH30QrWZT6nkMDRu3d/qLzRxM5gGFoIMlQIhX1Gyi2BCAje2BT1nzAUVacHqSS1Zs8K42tXjh1v4okFI3UOU5UngwHkSiimd4GcP1zT5evdvL7Xo1C+uH6DS8sqwgIlyxvvDSdug5ndR/iQOPMEgH4zxifg8BChjQ7Y3Q9YoTToAhqap5mstV5mBzBOOYBgMDe/v9DPBxtCGEc8L1u4eVpOe998wKmg2nSGFruY1aoy678/+Zi08+86TSSJQoAFFyTISYptM/ASCtd73n/CmcPXtK+sB0c6sLTqRuaR4IQULthBiXrK29Piw3Q1Qk/iKPS1bsNumZspjGcNCznFgUT0kcx3doyRXQNRYtPhiZAQ9BiltR+tPPbhZyvSpb+yNv1isRwefTqqCXrQkiwhXr2kYXd3f7vuclpsAgtBjw0BLiPHxB6RErCgLbbGwexlowkqqap7lcMZYHPpw2Xr+zBwpZcebX8iH3eAzLxo3NDmR39Zqm4YFz/niQVacvkXjhGKN/9tCPPLOuxiklCkCUHHm5/ORH/wKA75fV/lKzgUceflD6GHdrp4eRyefgirIFOIawJURLtob4C6ARw+2dXsQXPo9LVmz19BhrSJxb1ubuCIFCgh5wABHLhzYuSug/nhCkRGJB/FYRHV9/dR+7XbNwWtk82a/ypuAVnYY3TypeEdmwirhifeHFrchzFwaPQGazSNarBPBAQtwIJs/MfmeIwdCMt3pMqRMS73KlZYaPwcDE9l4HfmvNcXG7SpLuwMDd3a70frjVqOGeMysekLTlJ1B5wG6SKlCoZOaiChEqkSqXfuLpE+D6/wFAWh7yN73xMpZX2oIGhfgihDuHQ+wcDrO1L70IIcuwakoWLJZzHzmOkcVBSECZQQKETA5rMLRw9mQbNV0L1vxjCPqvBy43ixYZ9FiABYoXhpXFsSLXHVjY3BuECstpvsP0KXear+gh04JuOR6IUMBa4j+R8c9ETlacN1864R1X0r9FPmctSiizAGHRgoRl4kCyurX5/wjAv/jEyxgaPGidyAQeMdmw/ODBWOjdCyv4blYsAk6tL8dbPWLqhEx1ufLFWiXBB8Bw9foG+gMj1oJyTPkDADAYWajrOlrNmtT9LDXrGBkWhqYNXdcBIlimJXP66J2nHv6R39q78qnbSktRMitRFhAlcufJjcbPQWLNj3vOn8KpUyekD0Ibe311MwsDXY7gdLipSbd7sVaPNJestDofadaQ8eed/VEgyxALVDMPHsPkdz2kfCI+TiQpnSvT8Aff2sbQ5EJT8OZ1w5pVGl5R7ldF4j/Cy67e7mC/awTjf8JFJZPAAyw0sRAGD38K3/i4EQZgd78Hy7KTrR5aMZcr5rPCheGj2xthe68bY/VgqvsCcGeni0EFGQ/vPbvqTLoAaC0vQ6tJnR/WuYb/D979dE3dYSUKQJQcObn4gZ//NgL7q7Lab9RreOShB6Seg2Vz3IhUOldSCEQyQYij4G3tDryZ6Lg6H6n1PxICdePgZbydaXMc9ExPWYwokAHrhhZZ5rlsBVx3WGhZNAgfjGFocXzhpR2hKXjzuGEVKUJYZt1psSAysmFlccX6wktbKe5ySXU+gjEikTinUPB5fNzI+HcNnICt3e4Uq4dWyOXKH8/ih5jrN7YRm8lLCQCAE+H6xiEsS677ra5puP/cmtdFLK+tyr4Vb73Ubvw1dYeVKABRcrTk6ac1Zmv/GBLd/B577EHpWUNubfdgWlzdzyogJGQNub3R97lURet8pNb/YNOtIf7t9g4NEIIz1vGVzgOJWX2gEQMpSIoDCWXPAsOnn90CID/71bQg8DxF+8psM+33KrJh+dchAr7y8nZ85rJU8EAG8AgX9UspWsgYNne7PiBIKCwYyiAX93usy1XIgrJ32Mdep6/gI8NE1OsbhyDJM1GrSw2cWltygESvobW0JLtP/rn7f+zn7lN3WIkCECVHRi5+qfGfAvguWe2fP3cKZ8/IzXq1czhEd2Cqm1kFhMQULdzpDtHtm66fO0twycoWoB6xhmjBau27h0ZE8aSwghijYAaUywiITGI4MK6tEKoJwtxjuLM7xNW7XaHZr/KmvE2zZpR1u8oTgJ41CL1sNiz/Oi/eOMBh3wQiMBx0YSoMHmEgBWKLFjIwGKaNw95oeqB5wu8OZCTHe/jrfrz2+paCj4zSH5m4u9OTvp97Tq+gUXfm7VrLS9BrUr2kVnWq/U/q7iqZhaggdCXi4eC9/3C5zujXwCAlnYder+Etb34YNV2PV3DLKsgARqaNm1s9UJH2VRB6ADbSIQSBAF2GoHWgN7Rx7vQSJtmrEAgoZ+FtYwLUWaD+gm+5u1JvYGNzb+hTNv1WEMT+HrjXgYKF43YJwVoRiM2QRd53wLKBb3/0VCQoPLz/skHoswxEzxqALiIIPY815GNfvIHXNjoRy8QEPHyPbtiiBv+NTwIPhNrWEC5aGLZonDqxjGmB5skuV1oCfEwsJXc397GxdTi9P1Dup54MRhYadR2thjwoYIxhuVXHXsfpk2r1OoyhvMK3DHjj+iPv+eLBlU9eUXdYSZWiLCBKhMtS3f6vwXCvrPYff+h+NBsNacfPya33wWlOR+OjcAxxlo9oXEh/aGF7bxiaBU5xyUqI8UiqG8KYht1OOPAYvsxIGfz/fTAybn+iYEZnq/1ZsvxpgL98ZQ/doV06/qNMEcJ5ScMrOgg9DT4Ahi+/su3BbeDeBSBTS4wNCkJouNZHCBgQV08GgTS9u/t9EGUINE91uUquE2LZNq7d2lGWjwJye7uLkWlJ7YeXmnWcO7nsTLjVdLTacl2xGKNfOv/ef7is7q4SBSBKFlYefu8/PAei/1pW+6dOrOL8+TNSz2Fjb4DhuBidEpnDHtKLFjq/3djoweKhgFqNZQpQj2TKCrtlgeGga4ZmtIMggqyByGCuTsJiFM5QNiW/Yuv+YnPCHzy/PdUaUCYIXWQgetGChFmLEcpMxev/e/71fXR6ZsiigaCbHYuP90kGj4TaMf57HylaOHm+OCccdIfZAs1TXK6S3Leu39pxg6oXFT5mNwnDOeHGRkd6PMjZE220W06MY3N5CXpdqivWxbZu/awak5QoAFGysGLXzacBrEl5WBnDo488KHXM7AxMt97HER5PqcIDoiwL4yBk8ptpE25tdhEO8C5jDRmn7O0OLEcRi81i5IeF9IxILMbHfwIi0QxZFHDPmQQ7/943NtzaIItv/ZhHK0jcsi+8uBWN4YipgD55ELSC4BFOSDBpj2Jqh+zsd3NYPZJdrsLuW/3eCHfu7i+k8j8vMjQs3Nnpyp2eYQz3n3WqpDMAy6vLUsc+YvhbF5/66BNKi1FSlagc0EqEyeUf/ejjRPz/Iqv9Bx84j7ZEU7TFCbe2u3NwJQnHzy2CAYzAyI2NYORdBkYMd3cHOLO+hOV2HSDyiviNdS4iZ1vywk6YM0Ppb9NxqPJSKjNGOOgYYEwDeTtzrr9/m7G+RSAPUmgcVA7yGhwrgOQd2HjD8f0kX5E6+NbD+CSw0zHxzeuHeNtDJ9zsTOT9O95H0meM2wwti1vu/y38e9zyyBMaWp+xfM9r0vpxv7NQQHiWZeEYmrjfGGOwOeErr+wEi0/6/kfwwYfv3k2+++q8kA8U/M+1b9vJx5BFBAgW6wSwfzD0YHS8YRA8/PvzQ3EIWHztMmJ46bUNhRAC2Gv3cIh2q44TKy1pu2s2dJw72cbd3R40vYZWexnDnrRA+AYD/0cAnlI3WkkVoiwgSsT1zRo9A0BKXtxGo44H7r8g9fhv7/Rg2ccl5S5V0GreffgsHxSsHs2I4dXb3YDil90aklyI8GBgT7ZLsMCELSKEgL43JV2ryxYMLv74gpVDwd+eFeS5jdiZ+iSrSFZrSFbrR9VpePNYQaYtS7tOcf8+f33fy341CdeIK0ToS3oQCS4HoimWp7ntTasdosGyOXp9I5fVI8nlaryPmxt76PaGqisTNWZsdTEy5brrnjnRxpJbib3ZbsnNikV4/6Wnnnmf0maUKABRsjBy8cc+/N0A/bis9h99+H7oNV3aWLPXHeGwZ4gZ0yj7CqXPh+SgQLZ9ybob8S5Zg5GJOzt9X52PYHXn2NgQTUt0y7JsYGTYQSWTEBtEnAwizAv9ILigwSbWEn+GI8bCcSBaEEZcJfgbV/ex0zGmuhWJcMOahzS8Zd2vsrqrxR3DF1/aSgALlpDxKiaxADRf9rYM4IHsRQsPOsMpsR7aVJer8fM+NExcv7FztImg4mPgRHh94yAhHkTMMTDGcN/ZVc+7r70iOVac6BdVhXQlCkCULIwwzv4RJPkNra8v48yZk9KO3eKEu7v9IzYAz5FQkYU+n3if8ndro4vRyA7U+Ui0hiTEgIyVso6v8jkCy/wgklbpOpo1i8XEdfiVS5YKI3DBhuFz39wqHPOQJwg9q/VDRPB5USuIrFS8YAxffWUnId4jpuI9C4NHtCZHOnggoeYNEosWHnaHhaweLGT1AwFXrm7A5nwO3vmjJSPDll4fZKlZx+n1NgAnDX1zqSVzd2+81G79tBq4lCgAUTL3cvmpj3wIwPdIARsGPPboxRw+5vlHvts7Pdh80UZMqmBzEtB0meMcK3TkKVKcGF652YG/2F+8NUSb6pZ1ODBjXKBCIOKDh0QQCaVtjXe1SciuROO5cwrUB/ncc1uBYHQZQejzlIZ3Fql4r97uYK9r+IkTsdXqA5aJBICcCh4sCB4sFNSeUDuk0x+BqJjVw29dub2xj72DHlQacTmyczhAt29I3cf5k8u+AoXtSWyQnHv09x/6kWfWlXajRAGIkvmVD/0bnQj/QFbz999/HssSA887AzPgejXTAZSqHqRJwCYkYFc0ZdEEzmy8uQAAgABJREFUQhjT0BtauLnZi616Hk5/m+aW1R/YGLtBJYIIwhaREIhElMqMVhHvvBC0jLjb7nQNvHCzIww8ilo/qkzDW+Q8ytQB+aKX/cqfqWzyDPgzlQWtHUCclSsZPGLqh7AgePizXfmfK+JAb2gUs3q4MhgYeO3GphqrJPfhN7c68TGEgnalaY4r1vhZay1LdcU6xxv876jnRIkCECVzKxd7r/5pAI/LaLvWqOHiA/dEe3NBHbpNhNvTTOcLPVlHMzsV8XsOWh9ub/Vx2DcDMR5J1pA4tyxOwNDkCJYvZ9MtIhSKTUFCrECcVWSsxHowg1A7QTetzz67mZrNKaj0RpclLY/M8GdYVvru5dxv3LpZz3vaNRvLl1/ZTggcH4NBkrVDC2W1ctbNDh7BOA+KS5bge7Z6vVEhqwfgZCt76eqdhKKqR67Dm+kckmVz3JacRXFlqYGTq477VaPVQK1el7g39jcfePIXHlZajhIFIErmsRdnAEkrXvTQg/eiVtOlHf3d3T5Mi89oEK4iEF3EdiTjlPMtJP+HSUrRV292YHOEig2GrSFarFtWf2S5KmcMCEwBkXGweiDwmCYHysi1mCSAVHztkDCMaPjiy7voj2xp2a/KWD7Krl/mOLNmw0qzjNzc7uP2Th/BwHCfNSFs7ZhW/wWUAzxYNNuWl4nN/5w5y3p9I7fVYyzXbuyg42a9oor6FirdPxAq7pmE9c+HvRH2u0OpHeY9Z1ZR0x3Vrb26LGXCwJWGzuyfV3qOEgUgSuZOLj/5kZ9iwJtltN1uN3HPPaelDTzdoYW9zkjeAEdz6kIlRcMgQfvJByEj08bVGwdeyt6wNWRcbDAKIgyj4aQdxlgBEGHR9L1M863nt3okg0YyjAAm5/jD57c8hdev+Ho4M8UqMM0iElSms1s/RG+T5bes557FMvKFF7eC99HvAhdn7ZjiZjUdPBAED79lbfz8xQS0M8bQGxpItXokwMfufhe37uzOYZ9zFI4hWW5vd2FITM2rawwXTq84CpyuyQ5I/9MP/egz71LajhIFIErmSIgRY/+trNYfunSfq5SJF06EO5KzlogZW8UDhoiw8lJbkYhTmQQM73VGuL3TS616Hph9dpcNxu5XsSl6s4BIfCxIxAUrF4xoEZegz35zS0r2q7zWDxlpePNaQURmw/rSS9teJfM4FytiwcJ+QWtHCDzAsls8/JY0RGuCBC0xzjbjrG+JVo8Y+BgaJl66esctsFmlzn5c0l8lnyfnhFtbHamX4uRqC8tLDQBAq70ETZfnKcAZ/YLSd5QoAFEyN3Lp/R/9IIC3yWh7bXUZp0+fkDYIbh0M8hWPEq5JR9uYrRuWPCtIfvyhHBDiKGyvb/Rw0DUTM14F3LJcBXBk2oG0vNNBREsGkbB7FhIC0z1dMwlGyFfUzlGUX73bw43tgdDsV0WyXslIw1vU/aosfGwfjvDaRid077SIMh9r7XDveyCd8vhZCEFGInj4wYT5qp+Pn1v46pKAwbI5LJtSYz3CCvALL9+GFXEvrQgOZhdsJvcAcjTbG5rYOuhLPfV7Ty973cvSSlvejhi+++KPfvj9SutRogBEybzMAP09WS0/dPm+KW4dxQPRTZtj5yCLj66AQaySgZgqOiyBblZUsp0whBBw5cYBTJNHZoeDblkTEBkZNkDhdLlxIIJQLICGoEsXIornVKtIBEbCgcfBY/nMc5vCgtCTfgsvExWMnqW9PC5ZWc57WkD6l17aclLbBq4z3EzILN3a4atIHrZYBLJaTQMPjAtY+tytQuDh3/dwZMbXD4mRV167W7Da+aK4jS7E+Iitvb7UKumtZg2nVp0MkfVGXWpAOmPaP3BiPpUoUQCiZIbizoZ8h4y2T51ax4kTq9KO/fZ2D5wI1QQ6koDNSMDuSM5JlsnAKxhCTIvjxesH4DQJLI+6ZU3iQ0xrvLmb7SgRRJjPVQeBehFJ6VvTYSSk9MYot551xK3/8Pvf3IYdUxNEVBC6SMtH2YKEooLQ0wLSv+BLvws/Erj3jBAsPMgyVLIPptONWsUiqXwRfb6QksLXNO1Edyu/3Ly9i83tQzGveJUB6BXDQRXCiXBrsyN1H+dOLXsB6UurMq0g9G2XnvzIjyvtR4kCECWzfWg09ndltf3Q5XszDRBFhpDuwERHaLGoeXHDEmEFKWjhKOOKJRhCegMTL13fn4AB4gsRMmjgNoIKXQYQmfjgw+cuhYkiG9YPQ547EResGLefuJiQzsDCV6/suYunB2IXif0QXYCwaEHCLMeadu5xn/3r9AYWnn/9IAgdcbEbadmwIkkIYiwXGSqmBy1sGuJiS8bbmPb0Cubbu11cu7G9mIp7lRmwqLoz7g9N7HWG0i5bTddw/pRTD0TXdDRbTXm3iLF/gKefVjqjEgUgSmYjDz31kR8h4HtltH3+3GmsLIsqOhhSeQsFnlP5kajqKcFSVhCahwMtBSH7nRGu3Tn0FLlw0C5jGixOIMZdHZLFgwhYQoyIlqKc+uNEEKlcHa35ERMPgjiKAT733GbmIPRpWa5EFSAssm6eY0g7h6JxIF+7ugPud79CCDLB0q0dkexniCQkSG3HBx4UKniJmEDz8TLTTAeQbm+Il1/1BZ3P5N1W+4iTOzvd+AKFguTU2hLaLcf9qtVuS0vLy4A3X/pC80NKC1KiAETJTMQm/G0pnRsDLl28kG+QyDFO7BwOC/vjLoYb1gxjQQpZQfLcwzwQQriz3cfd7X6iUmfZAHlwQfEgAubCiM8dKqYK9jT3nFgYGTdEzHOzCsKIvz2nza9e3UdnYJUKQs9SCDCP8lJ0/azHUSYIPclS8uVXdgPPBWKKVYYzoGXNdDZxxQoFl8e5WmUCD+Y915ad3HcNhya++dIt2AlKbqVVNeZxDmPGO/ayYkncx71n3ArpGkOrvSTv1Bn+Pt79dE1pQkoUgCipVB583zNvYsAPy2j7ngtnsbQkx3xs2Ryb+4MEhXUeRkES2lo5Rb5KVyzBEOK7r6/dOcTG7iBIuK6SR4zcf1kMiCAKIpi4bnnA4IMUbx1y/ibHNIYMzQczCZaRgLWFIoqwxYEvvLQTUdSzKOh5Yz9mkYa3SParNOCIhxINX7u6M6nXAhZMxRtj6UjNauZErSO2anoAUkPgQaEYk7jYkMjjHf/8G4aF5168CdMLappn5X6BLSQlm+30DRx0R9IOaKlZwwm3QnpzqQldl6baPXa53fizShtSogBESaXCavjrsaNj2XYZ8MD953L3+FnX2Njtg3MBPlSFm6jYClLGx1no+F0xhPhXIcKrt/axsz+MPGzhIm5jECHPEhGnC0YLGia6Z0WsIv7Gghm5gt5Wzg/esYQU4d9/fic1HiJvLZCsgegi0/BO22eWGiBZzzv8+YUbB+gMLJ/xIwgdFEiljHRrR2p8hy+drh88fBYPYgnbJklM/2VaNp578SaGI0PApIKo3rZM00fbhev2tlxXrAunVqC5z1Gr3ZZ4duzvv+lDTzeURqREAYiSSuT+9/3iKUb052S0ff7saSwVCp6brrgODQt7Amae5A9bgq0gVOZMRFlBZggh7t8rN/awdziMaSK+mvlY+SeGGLeYiZkluYJ5HIz4J85jo9ID7laR4Gh3H8+/foDtQyNz/Me0WIroRACTnoZ32n7jfs8KG9NcsL78yrZPyU9KiZwFOjTH2sWSEhX4ixuGXK2QEzzc5y08h2HZHN988Rb6A2NORgiqoJOk8v3jDF3EbM5xV2IB3HpNw6l1Ny1vsw69Ls1T6lK/1/yLSitSogBESSVS042fAbAso+0HHjgn7bg3dvtTBoecI1LRwlc0T7EgU8oDCnXFKgAhmbJjZQMR4sDL1/ew3xkF9X7/lxgQGSuOXphGTIXsiYIb5gpy0/WOv0czLRELuYCFg9CZT+H2AuI1/OEL2xFlPKu70iKl4RXlfuVPxfvll3cQnwCAxd6jsPUqCA6EODerpDoe/sQFFAHRLCTngw/LxjdfuOnW+iAB+jZVoKTTXDcnbSIoJPvdIfpDQ9phnz3R9tyvliTGghDY31WxIEoUgCiRL+9+ugbQX5PR9NkzJ7E87igL+AOlrdEbmugImSEUMPM2i8GvElcsCRCSef/ZDpJz4KXX9rDjxgHVNC1ew2PR+iGReh6uYukBhDMYu+470ZlzLwwELF5h9RNMoPhdGEgcqPn0s1upFoPw96xFCEVbPvK2X6QYYRxwJEHJ1uEI1zd7XsIBhqDVIkCSAehISDIQ62YVEx/CkrJq5Xu+x7UeTNPCsy/cRCdLocFFcL9aBCohsfu4s9Od0k7xfdR0DWfXHferWr2GekNWcUK6fKmtMmIpKSeKYJVMlUvLrf8ERA/IaPviAxdKtkCTDEUh2dwbTB9YWOBD9gGJZfox9yrTt8vSSLF1svySeX85rlHifjPtniYAkQYhRHj59X08bBNOnVwKDfLRtLdwA9XHj1f4eWHe8bFJgDD5Dpgx33rkno7vWMm/DiYWMhdqJqdHk7kiItzY6uP1rT4unlsOKOREFPt92m/h35MUfRmSVhl92m9pxxfnfvXFF7dcK1Iopsu73pObzMbzciz8TLi1RXz3KvbZY5MCh4E2ShQY1XUdQ8PCN1+4gcHQnLMRggRsOseFYQXLYGRh93CIU2tyLBSn15ewc9iDaXE020swDWnPy98G6F8Fzb1KlGQXZQFRkqHfpr8upaM8tY6VlfKdcFzvd9g30BM6UFeVMSuLFURUQLrI2iDlLSEU90suS8z087l66wCb2z0nWxWFt6UQ0GRLvxrNkoRQG1qk0jkCMSF+68n4H/LX1w6s89lvbmeKj5iXIoSyixFmCUL/0iu7Mfd2YmWa3A6WcF/SrB0IVbNHQjrd4r2IYVp49lth+Jgj96uK4j/mnz+y7WRjtwebcyn70DSG8ydXAAC1mi7RCoK3XX7ymfcoBUmJAhAlUuTyj330OwF8l4y2H3zgfIa+tdiosbnXlzLylB7yZzHAl3bFqgZC4pdQ5pCPTCBCwPU7HZ/VIoY9oj+kwEZanYhpMOLXdWmisFIwHazfXYuB4XPPbbqT99mLEMb9lmaBKOuSlbWNosedJQB/LCOL8Nxre4gWkvStG7ifUehgoSxmSfEd0ToiRd/f4ATCrTt7GOWZyZ4r96tjGP8xJQmIzTk2dnvSzuPEagvNhuPg0lqWWBdEY/+N0pKUKABRIqcr47YU68f62grW15bFDZK+Zva7IwwNO/Om2YccASl5y1hBygSk58iKNZcQIhpEpm0WCyXwApAnE+UsmN0qcXnMMQVm4N3MSnHWkZBSvN0x8cKNTqpiftTS8Jaxgnzj6i4Mi/tAjsXUX0mBjvGyWGsHiz4D8tVbSLF+VE0Dc1ePaVqzYvexezjAYGSWPw+KA3vgwinHTVPXddQbcrLmEtEPP/jUR96pNCUlCkCUCJX73/eLpwD2UzLajtb9KDe4TMo/UMj6IX7wKG8FmYErVs515gFCygWoxxFFiRse+GOBgoTjAoQMvoxW/uUILx9XQkfwu9864lNuAwquqwh/9pubUy0TRy0Nb1L7cev7P3/16q4vO9XkHlAgIQDFQ0coK1bUjS7G2lG666FyXdaibJdzB+XS785nmMLt7a60tteWm2i3HPer1nILsqK6NCJlBVGiAESJWKnpwz8PQHh58marjjOn1gUPaM4M+X7XgGHx3JsWUtZnMaZJc8WqCEIoG2qkHxUVZAoBMBJVgbNVzY5J/ZrqqhWelQ+5bP3x8zsgYKp1IAkC5jUNb9ZziEvNm/T5K1d2o1Dht4YkQQcm0Od4yMVZp7IDtbhOI8sUiHK/KtowVXhw/ZGJve5Q2j7OnXSsIJquo96SVTuQ/dTD7/vII0pjUqIARInIx+M/ldHq/fedC43dYkYVToStg0Elo1c6s0i2gkhxxaoIQgpcMxIOIjJgJEM8SKSwXdJ6CXOVvnUOhza+eT3qhjUNOuY9De+0483y3f/51k4fd3YHznXzvOiigf/RVLxJLlZ50uiieutHpZo8CbCazLH7lfDDiV+wsdsFF2ahCbaz2m5gqenEgjSXpMWC6HaN/qbSl5QoAFEiRC4++ZF3APR24Q+cpuHCudMFOvHpHfRhz4CRNfaj1ICYZY5RVEC6BFesuYaQkiBSGkZEKALJVo/Ymh+xBdHDblehtsHwB89vx8ZLFAEO0ZaPvJm1shzftHONs4J85cquzwXOgYpgMUkKWUVi6nZ4rnLFXma5pe3KvJvl+tvKIAczSr8rMf7D36JpcewcDiAq/iMsEyuIhnpTkhWE2F9+5MkPn1WakxIFIEpE9ChSrB/3XDiNek2XMlhtHw5mUzKLqtuw3MThLCGEMv+cBe0o7dfSHEEpfyJgJAkyEqwjcRYSxvBHz2+DEzJVCs8KA7KlSHB63sro/s9f89yv2KTmB2OxMR2xlg5hLo/VpM6uLvh8BnYHmucDLbeTzd0eLJtLObLV5SZa44xY7aasC7BkQvvPlN6kRAGIklLypg893QBjf1YOgJyR0sl3+gYGI0vQQFWlFaREIHmhGbpZQUjW85hKJxlBhOSEfKTCybQ/TwufAhka4swinlLu/nfYt/HNa4cR5T7pexwEZAUEUaBR5FjSzidtucUJX391z7vmFKrFwlhCxrHciiUVYwnRSq4w60fGjY6M+1V16XeThHPC1n5f2rkGYkEk1QVhjP4KPvRvdKVBKVEAoqSw9Hutn2DAGdHtnjixipXlVvYONkd/O4n9IEFWkJydvfQ6HaLiQeYYQkqCSPUwUmq4ToYMTDJheUAyhhLyp4Ml/MEL25lckxYtDW/Wc0pyv9I0Dd+6foCRQTGxHAgVCWTiJwdyq7XliUWc9WNegs+PvvuVX3YPBjAtu0Qjyce5vjKxgjRa0qwgD17uX3lKaVBKFIAoKdE5ynG/uu/es0KOLiy9oYn+0BIz/lH+lUsHpBcAh8WHEPEgkr5WAozMO5CM4xfGaXz9M/ZMwx9+axs2p9Qg9MBeJBcgLNpm1pTBeYLQv/zyzsSTKm8AOUknAbGNHnXrR+FkH9WBUrnNCZxIeHFC/5GdPdkGANTqNei1mhzdgeOvKQ1KiQIQJYXk/h/7ufsAvEd0u/VGDWdOreXvzDP07dsHwyhClRk05tYVK6XVeYAQyqvRyweRqTASBySzgpLYWiPwihs6BQ6DblgHAxvfvH6Qu5BfkXS5stLw5jnetKDz8Pcvv+LEf1AAOkjwDYv/SVk/KsGuKhGvkoPd7w4xHFlSGj+x0kSz7nhINZckBaMz9t6H3v/hx5QmpUQBiJLcUuP6XwQg3I/z3vNnplYKLtLTjwwbnb4Rv87C1enIryBQ6QMpByHlrSEZYJDyI0YKbmRYg3KFdOSHi7i/aTthnjJNcOIZxt5Yn/vWTiZLRx7rh3i9pJwVJO23uPa2D4a4ttEtOME/b65XlOFwF8n6IbJfEjupU3wyR0Sf7Rzyxl5P2sU9veZYQeqNBjRdivrHiLGfUZqUEgUgSorIn5HR6LlzJ3L05dmtIDudYYkuWZIVpLArFgQGpVcDIYm7FWkNmbo4376ycUQGAiHKBhZUnGbS13II5I9e2AERClk/Zp2Gt6wVJAlmvvLKLniR90Ho+zdPEx7zZP04SsHn4s/lsDfCYGRK2e3JtSXoLng0JcWCELGfvvcDT7eVKqVEAYiSzPLQj/3CowDeKrrdtdVltN0iSCKN8zYn7HdH6b20EB/gCl2xMq+WJR5EFoRQtkMubA0pCyJUaI/itq72OPZ7Jr5x7WCCJSmKfh5XKBl/0/aXdhx55Muv7EiCj/TXp3LrR9FetWrrR4GDm0nwufDdUaHttvb6pc8lzu6iMeDUmjMWN5pNaFJSb9OJht3400qjUqIARElmsW3+IRntXrhwukBfOt0Kst8ZgXMhKr/4jalMoyKD0mVACJDLJYvK+CwVZY1yAR05E+tW1lZSy3/0whaIaOrfNBFRI6RMG1nOYdof96ffFQ4fgl2vyqxDFe5LWF86L8HnWbarJvtVnBz0RgmxIOV3fnptycs63ViSlRGL/ZdKo1KiAERJDsWB/hPRbeqahnNnT4gZyEIb7nYGmTaiMlYQ4a5Y8hSieYCQdJ2BCt50KrmKvAhzOWCRdY8T+cPnd0pN4JcFiyqLGU6Taxtd7HZGEpTVZNerws48s0i2VahvoEozSsm3X8yB+9WUPnEzqS5Iyar19ZqG9RUnHX692cicGC6nvOPiB37+25RWpUQBiJKp8uBTH3kIwDtEt3vm7Enomi52wAfQHZgYmXY1g6cUCMnS1CwhJGtV8al1yUM/FlXLM6j0mbX+eUl7Je44tw9GePlWR4gFYdH/vnJltzh0F4CPwoprJYHnc1D1XKj1Q2S/mbY/EnCc5a79QXeIoWEKuF/R4zh7wgnR0DQN9bqkwoSW/heUZqVEAYiS6Q8CQYrP5vmzJ8V2ze6Gu4fD6gbQggcpJh5kVhASWreENUQsiGSiogJ8UY39Ivt+Kd+mAD7/0o7qyAB87eoeqkz6UHXcRynXq4W3fixu8HmRfQmrjh5ardWoYdlNxduQlpKX/tw73/nP6lCiRAGIkvQOigl3v2o06jhxYqVkbxxd0bA4OgMj9yBanStWaDAtO0NWEEIoUV+XCSE53bKEgEhOZZ2K7kPGX4nDCMkfPr997Lsx0+Z49rVdwe+VYPgQpj5Xs2F12QQFnOTcWD+ybDd944PuECPDFv0IAQDOrDvB6LVaDbquy3gdz+2d33mfUq6UKABRkigPPvWRh8BIuL/mhfOnwFIcTPMlTp3IfmdUcJyp0hUra7PyICR9XC0SRo2cLk4Z8aQ0iOSEEWB2Bg9BsBEn1zd7uLHVP9buVy+8foChX2ET/D4l474o5bpK1ytR1g9xWFWl9aOK8ym3V2fSbGu/J2XPa8tNNGoOeDRacgwVHFBuWEoUgChJeQiI/SkZ7Z49c0LK2LbfHRV2LRJX7bbioHQpEJL3iuQtDpbDLSsCIqJghMptKhpQhEetBzc87m5YjvuVZPgoFHRepeuVqI6PjrT1Y55qf6TJQXcEy+LF++6U1U6uOcHojWZDUgIJ9sFLP/H0CaVlKVEAoiSph/px0S02m02sLC+haB70pBV7QwuGaZdorKQrVoH9HT0IKW8NmQ4imXcgF0iKAIQ0gJne4Odf3DnWFpCvXd2tED5yKptUri8pajEumsq2DO8UqXou3/qRpekKgs9zTt5wIuwcDsRfdgAnV1tuSl6GelOKFaTFRo0PQYkSBSBKwnL/+37xFIDvEN1u0PohbmjZ7w5LD6ziXLEKDrDzAiGlct5TFsYQAyIk2kdqnv2vssNGnLxwo4O9ronjKIORjZdvdVIuZ3n4KDoBUfppmEvXKwnnL9X6sTjB52HZPRxMrXlVZM/1mo7VtlMLpNmUE4zONfYXlaalRAGIkojUasZ7AQiPQDt7Zl14D82JcNAzhPTu2cZzSUHplUMIZeSOvIo4oZhbFk1VuafDSFVKvwxIkbcfToQvvHQ8rSDfeG0Pls2LvuyZ4KNw0PncZL2qQGku46YqEeKmN12V9SP/+VgWD06+CXC/GsvJVScYXavp0Gvig9EZ4XsfePIXHlbalhIFIErCHdR7RTfZaNSx6nZqWXvCLPr0YW8Ezrmg4ZPKR40sDIRE2xTnkhWCitxpbwssHYMIzcJ6UWHmq4Ly+Zd2cRwl1v2KCIsOHySUIuYp7a6gJo+c9SN+q2kpeYuGva+2G6jXHFWwIccNi+nM/vNK2VKiAESJv5NiIBKeJu/smZOp2a+Kdtb73ZHwgbZ09eh5gJCCKY2nu2TJdsvCVMV8qtouzU1rMWcTACcOYmTyY3f2z147EAbo5eAj62ucBT5Eqrrzlq78qFk/smxXPIOiYdro9A2ItH4AAGPMs4LUG5IqozOoOBAlCkCUTOTyj330rWC4V3S7p0+vFx5wk8S0OHpDM3nFMsnxy872zRpCQJJcsopcWCoIItNXzgUjxwJIfOc4BlECTIvw9Vf3jpX71UHPwPWN3pzAh8ig8yoLDopyvRI1f5Olvs88WT/EpN5Nk+0EK0jZXu7U2hIYA5jGUKvXZHRVb7r0gQ+/QWldShSAKHGEk3D3q3qthhNr7cIdbNJ4ctg3QstEDrpHAUIg1iVLiDWkLIiUgJFUIFlEKAnDBqWezhdf3sNxkueu7YOPn/+CMD5X8DGDuI9qA89JwPGWh8v8fWyZwyh/ot2BgZFpCz/Iek13KqMT0GxIqoxus59USpcSBSBKxt3Uj4pu89TptULuV9O6z8Nw8LnQwVBAUPrCQkhea4ggEJEEI5S1KaIEMKHZv5U5YSNuyy+8vAvOj1MA+r7vfpbUJCnuzRAFH1lf4erjPhbO9Wqu6n5Isn7E9MG7WVLyFjiAkytOTZBaoyalJggDfkppXUoUgCjB+ff+w2UA3yscQE6uZegA8/k+25zQH2VMLVpmAJ57CJERFzJl8CTRIEIlmskGCbmRglLghEQEnSf8Udxf9gNPW3W3Y+C1zd6x6c+ee21fjEJJRVXJrPAhMkuSwLiPWfJ21Y1Xbf0QfKJ7nWEgJS8J2s/qchOaCx4yaoIQ8M6LH/gHl5X2pUQByDGX5Zr5gwCaots9sbYMcVV/HTnsGSmTXVldECrKjCUVQnK26btoxLOY7adYQ0rHhyQ0Vsj4kG+jUnYOWQxS8hCmyZde3j0W1o/9roHXt3q53rWkC0yF6FgcfFAZ+CgT96GsH8IgT2g3GfODbXM3GF3syepMw+qy435Vb0jJhgVm135CaV9KFIAccyHG3i0capaX0AgHsJWY+BlvepjW2cqAkJyVakVDyHSFIJ9LFtk2kNmkTkjlDiHxISnbFmqumGY/u0S5+RmnSCtfeuV4xIE8e22/3DtbKtOVSPgooRTPKu6jDHyUSROcY530ukfSCQYyCjaO3bBI3EECAE6sONmwajUdmi7eDYsY/qTSvpQoADnuAEJ4l+g2T51aE9vpkuN+1RuYxdoqMSjPDkJ8g/TUlE8ZWuQ2QHbOqBzKBiLlySFGcU7+qZw6LxYIZmgMyQxeL9/qYr939KuiT3e/khFsLgM+RAadVxn3IUknF70tydigWuvHWBKD0Uvub3W5Dl131MK6hGB0RvieBz740XuhRIkCkOMp93/oF5cAvEM4gKyvFhig03vMTt+ATVlrGoicaZoVhACi4kKI2yDirvWDIX/RE0Lx+JB5gZFpSLEQ0wWFjp0T4StXjn463ufC9T9yKtDFgs2PAHwIfT5z9mlF2xGWdndxrR9j2esMRR3kBBDAsNZ2PLPrMtLxAppu0o8rLUyJApBjKvX+8NsBCJ3e0HUda6vtgn1s8sLDnlEuMLPwAL0oEBK/kIiDuGv5YFpwAC8JIoleWEKtIhlgRMiYO9uq5bKP4ctX9o90X3bQM3Fzp5/vvfTFexTOdLXQ8DHjuI+KXK/SZ07E76sq68cEQAbBrrz0/pwPJ1adbFh6TQfTJFQlZPQBpYUpUQByTIVIE579an1tBVpsZ1VOgRoXH5xNasr5gZBsLlmTOghkW17cR2xKxdyZsuIH3GzMIUKZp4qAJC8czM4BK8shf/3qPkzLPsLpd/di3s+8LlfzDh9i+zSqNO5D4HBA1e1qeiOispkVT9hrWhy9gSG8D1lZaqA2dsOqSwlG/4FL7366pTQxJQpAjqEwkPD4j5MnV6d3sjln8QeGBcvmMep4gU597iCkYFzI1N1wcNvn9880IDEChIS5ZWXPmiVK6U5oa1G9rETykW9hd2jixZvdI3v637p+mFtxLhXvkakfEw0fYl1LUWncxxy4XpGsaykCI6b9lN7yfncoiLaCDawtu25YTSkA0taWm++CEgUg6hIcNyFGoO8W3er62nK2Di4HhHQHRomBe94hpJgCNM2NgVsmACfuw3G/ymBCJzEgAuRJkiWSDqZQxyKHf+Q6h/iFX726f3QB5PXD6c9TKZerUN9VNjudCPgg2X2YWCgq73pV4thIxrYia7mUu/IHvSE4F38bxwAiyw3LJrxX6WJKFIAcM3nwfR99I8BOiWxT1zQst3OUFMk4iHf7ZsoALmrwnhGESHDJcuCD4Fg8nIW5KtqWApGM6XulWkVyQEmaUj8LQMl9LNkP+KtXj2Ygendo4cZWH/mtHjPIdCUNPlBd3yU87iNHv5TjuMnr/0pcPOkx6mLAknNCpz8SDpPLSw3PpbomIRidAe9T2pgSBSDHTPQaCY//WFltI9skSXY3Bk6EwchKGchFD+I5ISRzee0sh5ZXIYoO7mSbgYE6GHye13m6CIgAud2zKoORLFp+ASiQHgYiho6ubfax2zWOXF/2wusH4EkZ8oRYPUTDR8F4k9L9loACq1LiPiS6XlF4W8lB7oHF1Vg/xt8OAtmwRNwXQGMMK0tSixK+RaXjVaIA5JgJEfsu0W1O3K/E+df2hgY4UYYBfUYQknl1GXEhCEAI5xa4bbs/sYnbVcD6UURxoJJ1ODL8mtOdSOKbgWqCxqsPTicCvv7qwZGzgDz/+mHqO1Xa6iEcPjCD/ooEZrzK3zdJVfZLzv+I2C2JOq+ibnXkpqrn4k921XXDqtV0MPFeWEy37fcojUwBiJLjhSBvF93i2mo75yzj9JnFWPer2GaOEoTkHXQJxC036Jwh4HnAWIz7VZFRmQRYRDJYRYAcLkczf4cwNxmvMsrXX90/cj3Z8zcOY29LcatHqG8SAB90pOCj4riPnH1rYHU2zvZFEDUmVZd2N9/eOREOeyPh+1xbbnolpPSaLqMbVXEgCkCUHBt599M1AE8IncYAsLrSLt7rJnSE/ZGZeYCfLYSQOAjJaw0hArcNL8cVASDGwJwPSM1+VdgiIrDAoBAYOQ6prsqD0tdf24fN+ZGxfhgWx5U73ZTupIjVI4/LlYy+ac5qfRQAnunwkaOvKQof5BEICDzDgVTpeiXQ8uNb7aA7Ktg/JC/RNQ3tphP/UZOQjpfA3ounn1Y6qAIQJcdBHmy2HgcgNP92a6mFel1PGw5yQwgnwtCwMrc1WwhxMSQzhIiyhhC45Rt0WEj1Yixj1p6qQSR5vynZZAvESxxf2Ii7Bod9C6/e7R2Zs71yuwPT4nNp9Zhkty6p3M+y1kdZkqgw7iPxZza+F5T5vpVX3cteJ8qwWnSd3iCHG1aOg19bdtSFWkO8BYQBZy5+pf52pZkpAFFyHG62Tm8V3eba6nJC31YcQgYjKzQGzT+E5EtxWT5LFrcMd2Adj7TjT+SGgbAc+sOsQWQ6kORnjaOQe7fkeYVW+cZrh0emL3v+9cME8JBl9cgBHxDQFy0cfPjOugx8CKzB4XigUihtoIRjklx0MEtTnCiatr7gsfjfp5W2E4iuaRo0Tby6yGym6oEoAFFyLITwNtFNrq62UjuwIp2q436Vv/OWByGiM2RlV2bijoHbJojbbtgHm0AIYxEgyVZFXRCIkMgA7RzMkYsz5jNGo/TxZVj1q1f3j4wL1gs3OiXAI/T+iXovpGa6WhD4KKt8l4n7iHxhvqtC6daGHNBUdeA5ZdxXpjiQnK9Jq1FzqqIToNd1GR3e90KJAhAlx0CYeABZabfzDBGZlIHB0Crce8qBkHxt5osLyWcNIW47KXcD4OG/x34QCabslQ4ifhgRrojn1LcL8wXN+K/gIWZY5aVbXfRH9sJ3Y5wIL97qFNOowlYPQTESsw02zwMfeSY9CsBHhXEfSIUPX3/o+sRNgtKLK+XCAs+LPyWJ++z0/VbxYvc2btz20vFKCURXFhAFIEqOiwgFEAZgKaUAYVEI6ScCSIUQUllcSMZ23bz23Bo6XwLWD0wqnwOp2a8qBxGSVe28kF6++AYQKnjeAGzO8ey1xU/H+/pmH92BCblWj+zvJeWu/TBL+BBZ6yMrfMiJ+8hyuIyxSQxIwEKVP+tV/OIq0+6m32Pb5gneA+WwZ7nlAIguoSAhGO69+IF/cFmpZgpAlBxheewD/+gMgHtEtllv1lGviUwQTjAsG5bNyw0MmH0GGk8tyD3znjLAmEOAByuduxUHPQhxPk/PflUZiEiBkWxAMk2fLwwAMzCAFGOm6JrfeO1g4fuyF252Cj4rgp/3Qi5Xc5qJb+7hI2urFNFw2TghB7gLjMUyY82r65V/nUQ3LMp/5cYyjgNhjEGviVcZNVtXVhAFIEqOsowsU3gA+kp7KUenlm2QGfhncARAyKzdIvIpCMltc2sEcO5ABk0G1/GXifVDy7iPGYCINBgBipgz5qFyh5hjyL7Vs9cWPxD9hRuHOa8ucrrgoZq+RQh8QCB85DsXIfBRwFKdHvcRr+ZM+mDue0Wo+N2bhbU0wz47faNk0xRZ0KjpaLjxH3qtJuG02PcoDe14Sk1dgmODmm8Q3Wm2l5dCXRhL7NzYlHXG4qTf9a2Xusn09kAAMQq6K03tilmG3UQzUE1VFYhlrCgbbNspNmhN9sQARmxi/Rhne4EG5DJITfbjfcp0WuFclyVgxGuGSXjo0x54JqSVudI+MsidvSE290c4u95Y2K7sxUwWEAnuVuP+pMAkRPbdiYYP0UVQRcIHBAedJ7zpGgPZzvVibl9O3HVVZUWv2fxZPwBgZFgwLTsYryEgQGdlqYFdc4BaTYch+H0m4F0IltFVcmzUUiXH5UY/JLrN5eXsJUWyWkKGhp1TgagwO02lLlnj9Tlsc+RT0llQYR+3x8r03ykWkSqsImMYkWYdSTvuWQeFVH8cz11fXDesrUMDWwejbM+j4OeXcvcjEuFDRAB9QfgQdh7Cgs6nybjf5IEYkPig9Cpdr7JsmT9WpRebjreAlwIFAQSAFBcsBrzpvh/+8CmUms1SogBEydwKcQkAstTM1cNmgZBJAUIZEJJvkM/+c36XrKyFC7k5AMCD1o+44HMCmPc6F1VaY0AktyInSFmuHEjKAoLErFeC5dlrh4ubfvf1Q0HgkU8jLBZoLjHVd9lzKwEf5Wt9oFzQeYF9MqZhTG3ECYHMWN72GVCDRPct4lYbS8cPICTm0NpLDQAExpiMeiCsVsef8NGiEgUgSo6UMDwstDnG3E4pX2+ZBiGcyKlunNTeTCBEhhLhUyRSNuHmyA2YTHIVCAWfMySUEC8PIpSrOQkK9twAyaLOQEyuoZMJazFPIxqAXhQ8KrZ6iJq8EAofWc9rFvCRlZeyHT/T3L6S+wcCSq2UHg8f8+l65RfPAlIw7W6c1HXNc+uSUg+E0TsRyC2v5DiIigE5LvgBCE1112jUoWlp2ZZYaqcXFxMStH4ktDc1JmRK/0Vjj6UM8SNp55O4eb52nTEtGhtCtglum4H0ul77vkBzFgckkcuQL14lfnCLiRPJ1KSgeJFMSgxTQ1cGRemwb+H1rR4ePNteuFObxH/kjfHIqewXivXIqnzmPx4hma4yKqXzAR/l4j7ih0Dm7p85cYHEnM6MGAjcTV/OCr1Txe6/YD51xbQ4RoaFZua0uZTpQNqtOg66Nmo1HaaQdL/+26O9Df7KkSom5FiIsoAcA/i49P6nzwNYFdlouz0t/iO/JWQS/zGlPQHFw4RlyJJgDSHisK1RMObD0699/TKLq4KedhhlrBJTrCKzsoxEtMa4vyMMGnHnm+GEn7veWbjT7Q0t3NzuI7/FI6eyX9jqIcnlSsFHCfiYPCuM6ZNrHyhMyEMdWtG4D5HPYrmK9l0vGxYJeCPcMb9ZBwCnMrr4zuztQVL0PitRAKJkUeEDADhpD4tuuNWql+5ow8PMyLSztyeigrHUPP55u/hJbAg3BjEZokLB596oOv6Z5ThsESCSEitSqOK4ZE2d0v4WDDBygEYygCxeOt4Xb3bAx/eLUO6dTXlMhFk9hMSLQcFHYf0/uBHTdN+xjCGEIxiUXibuY7auV/5F3YGBsoHn4R+X3DGf6Vr6eFNIUWEP3f/dP72uIOR4iXLBOuLwAYDp0B8WrWM1G80cnXI2d6yRYeXoeFkGb6esaXrHDkYlXbJiu8t87k/cGoJzG+MCWlODz3MpAeGno6hrVvTcEpvO3DwlPL4Vafok4lUro2xWK996vQPL5tC1xRnfX7jRmX93K5ETEqLOddbwITzxR04FPdAXaSCyJ+5XcCqlj5MIcu9nluUCSIAPMV1Hf1jARWrKPpeaNacMFQG1mgZz6oRhvk5UX7vvbQB+PzTAKnesIyzKAnL0IYQRE58Bq9WqC1MGxksNK0+HliU9YcaevHCWG7HKB3Eb3DImd468Wxiv8HrB5/6+OgeM5A5GndZYjItW7A9525z3sWd+MlxllZHJceVOb6E6s5dudfI+2NPXLuRulff9z3lMuYLNKcc7PiP4KGDBIRnwAdcKQr5Onyh4sv7noYK4j2LXa3pRScu2E8dTKngtNcbQajhWEE0XH4jOtMbbELV+KAvIERZlATnC4OF7eS8KB5BmIzg/kakjS7eEWBYHilgiRFhCMI5PzFu0EBBiDSGCbQxCgOErYOiMAB54+FuImsNzWDYCq4oIGI8PXPd+KbyLhKBzJYWv37PXDvDYvcsLcfSWTbh6t19uoiH8rhfOECd24iGIHhDscpUfPoQVGSwLH2W1eopTcnX3/rtB52P+YO7/vKB0ymkVL3a/RLte+T/0hyYaK3o2+Mhohmm36hiMTOgy4kAYe1uoYw/fAGUFOWKiLCBHHz4YoJ0XvYNWs1agW0he0bQ4bPLnY88fZDg9Ta+MuBAxSont1vsYX+CguxVNlCZiMQo4K3fOsauKmMWPWgMSA9ipbPuLYCmpEjamX5cXbnYX5oyubfZjUnQXeE5LxXlUl4hCwQdKB50njl8agxfzMY7/CASlUyQoPde9KBP3IbALGwxN4e9hq+GM+1IAhAKZsOIsIWrG6YiJsoAcTfgIfCfQWSbw3WW67uUED/SfJSwhpmX74jHyNpo1TW/GNgun6o2BgQzWEG4ZINuKZr3yb8jGgybctL1xQek5j23aqCjMKhI3sk6xjhTeHU15PY4SZJSTV273YFgcdX3+r8srt7vlzr9wnIeYCYZU8BA0iZORII41fDg1QXQQt50gdIZAlAExgHF31GTMjRWRDR9ZT5Ny3fd+KFVuWesHADRdAGG6Jj4yg+GNOP/WOjaeNRGNA0HMdyULLsoCcjThIzBjwAhCLSCNRi0+C0aJQdQweWDsotyNCs6QhSqKkAFENrg1CGXb9cV1xAafTzJm5QPL/LPF8VYREf1/dIY+8otwA8d8VibPf4wkZBeGyfFqqlvTvAEIoajFo3ich2SrR+buKEPbCj6yDZSa7sV+eM9GIAaEI5qqtwh8iJxMoNz3fTiynKxxguADAJYaNW8dCVaQ5r1PvOcBpFs/lCVEAYiSBYAPnz7LzggFkHpdwDgQHFBNf8AcTZmxydIm5dv/NAVGWE2A0M+20fdp2+HZtinB52O1qlSAd9HVRSvs04FEDpQUBQBZf/JPx//1+RuLUQ/kyp1u7vMWDh5CFPQJegh1uVLwkWGTyUQ60/RJBfQxdBAA4i6Y+Puhou+mKNerYv0CJ8JwZAl9DzWNoVF3AvllBKLr9aXHEvUYBSEKQJTMJXwkvqT3vvPPrgFYErnDeq0majLKWzni310YQkIbC7eGCFBk3J+5NXJcAbzb5S4IW5dYfPC5P/tVPoWmBEiISXFVCEhyQclxMtKn8AxNuZIv3Ow4/u9z/NcZWNg8GM0ePIRZPUiCy5WCjzxKPNNqwZgPPoaPUGasGCCZq7iPKTdwaFjCrB9jadYd8NAluG5qWv1RZLd+KAhRAKJkDuAj8UWtte89J3qnjUaG0KGcEGLZPJUjCkNIps1yFCoTlLKTuA3bGAZ9jAOVzinkfhXtd+OyX1UGIlNhRDaQpFtKaIpivlCAQvkhIwO2AQBevtWFzef7Yrx8qzM9LW0p8EAF4OG+n7kLdWZVPvNbiWnqpjmKDC4QfLja86Q/d6uhk7/AJ/lAMZCqlwuCDwFjUwar19CrrSUGPgB/ILou4W3XHka69QNQhQqPjKgg9KMBIYkvJ28unRNNmbVaxo4nRwy3xXlqG/6Chdn7nbzB6RnaHY+1jMYYkHOwdNafpNyFG/mY5G4V/jnLBJAvWD13F10w6Dx2M1EB7EUGaDZ1OGUk4M0re5hCN82/k6HJ8dpGHw9faM9tBxcNQA/qvoKmkHNcygLgkWuzWVs9csJHgXOaJXyQ+/KOg9EJ5E7mOMl3mRNcNwlK91L1UjQofVZxHxnXGRiW8PdxDCCaJiUV76MxvSulfFcB6QssygKy+OCRZp5kml4TbgGp13UUqr6dIjbnmDYLSUUaDseFiLSGFEznyc0BiFvBbpbgDm5x7lYUEx6SDcDGFhEqnea27GZVmx+K2QVyRWtkXJFIVFSIHJPOvKfjjdT/8GrIlTnvonEesmM9FHzIhw+3C9VrAYvH+JzIOzd/DAiPBqXnsCIIj/vIFr7oWkDEWT/8AMJYxmEoj1KjeRYQpOk1Kd+VKABRUhF8xH0PgIlG7LRwAPEsIEVrTETF8mJA0k3OxTJk5Rm08ikaed0+iNuwzWHUvSpQzHy6NYSx/NmvHJ96CKi5UYIDZgYkeRT5bMp9+bDyGQeoewAyv4HoRMCrd3tB8IBE8BDpbiUy1iNCD7LiPY4HfACAptUQzXZFEwhxOmyv7wysC8p8D6uO+/AvsW076N5cEj4AOEHo3jUUrUKyB9cffFcT2TJhqaB0BSBKZgAfmWcHONGqcAAJxIDkzKaUMJYF/dCn+70Wh5A8A4BoawjBNnrJ7fugwjH7JwWfl1O+i8eJlISRuQUSWdCyGEEoL93qwbb5XAag39oZoDu0J4XiFgQ8hFs9qFx/Jy7Y/GjAx/gHLyVvDIT4rSKTbdzrycP3bX7iPsIre3EggrocTdO8FLwS3LD05YvffjmrfgMVlK4AREnl8JHJ/cr5pC+JPoiarmfp4jP3rZxTfoUBcc40OaeQMrtkibGG2MYQ5Ma6ML/Vw4sniYIIiPmaYwIUpLCiNEMYyQUkytVXFlD1RxZe3x7M5VFeudND+eliKvBqFwtkz/cuUc5Vilk9SOS5Hhn4cCNB9LpPpw+6XzlB6eGaIAD4uIbIdAtpdKZKxKQX5Vo6TI0DKfZujTNhaTXxKmStsfQQ8gWhq6D0BRUVhL6YEJL5ZWQaXxZOre6sRzSuO2PUeWi19Cw8CW3SRD+f9Dp5K5ezHIed/dzigtSJ2+DWKAQY4Vvp20dcUDoB0Fhs9qtyfe8kaN1rpXQVclb0UJKxOyXgXElBBcNd/MLNLi6eXZq7o3cARM45CwWPXJvKBI8gfIg73+LuZPMKH85YVoM9Pjd/IDoAgIOgBYPS/b0NY8B42dQ+iCQ/t+FVJp8M0xbieuWXRk1HHyY0TULfqzfvRf4gdBWUvoCiLCBHAzySv5MmPL2NxlieLn9qZ2onZcDK0qZIlyyB1pCwv7pt9BN15mDlc+bmbyLf9/AhsCnHV85NpbyLVvhYxFTuTm7uKOTaFX2BKKq4pSx+cU4D0V/JVYCQpvcVAgPMi70rsq0ekuI9jiB8eP2rpk/crzzrB/fO3bOKUCgGhJLjfGYZ9xFexzBsofABjBPRAEyTokLeU1rvUbIQoiwgiwMfRV9A8QCisykGhHyWEMoVj8GS20GRVL2h481sDUHmc7TNIYibDu8zFh98Hnub3QaY5n1n/uNMPQRRVhHfXkvGniQ/0gKaS2yacr5e8wgX8lYfyws3u7A5D0wuzFpGJsfNTK5hVOJ6VGHxkA0egByrB3Kmz6OMpzIn8OGNZ3XYtgVibgrecTHY8VhAcKwibDJAEBEYc/L0eql6GSsBH+XiPtKKDRqWLfzdbNQcN2wZ/KEx/V5Mt3Bk+a6sIXMuygKyWBCSH0SY2CrozK9AU64hILHnpKkWkAzthoqy5R/E81pDsrVPxB0AITZREcLavD/43P/ds374BsWkMBChM7txCpeIeJGkAxc8TuSO/aY5/it7btmkN7Rxe3c0Vx3eqxt9cMpyk4s89lVaPObF6iELPmhh4QNw4kCc9XjAEhKwikSC0ikYlO5Zj6uHj2limraYWQo/gLip+JmMCQuNKQuIAhAlcwYerMh3BsEuWIxBY1n19mwdHScUnmlLWlQuQD1vpqzkFe1RP3SB2MSEH0jFi1BsSPgRyHBAmUBELIzIAxKJk1fzkrBqrhJn0dyl442P/xDhZlVFgHnGDiSS4UpmoHmeeA/RwebzCR9Ot6uBMQ0IQ4Q34eIPSg/XBIEbqA7wuAdEigUuqYX4fXMimDYXtj/An4pfvBsWQbu3jM6jQEQBiBKx8FH4O4GEBqEzbxaeMo4ZGaohhNMd5gWFhEXFrSFAMWtIcEVuGSDbnNwajyOYaxHxb5MQfB6whjABSphYGJFjHZkBlMiAhbnNwht/MC/d6s1VCt4JgGS0dkixAvqebRF9U3ZtPTN8FFHUUzpjCfEe8wsfXjer13zgNYYNTICEJn0dKBoDQpFUvQIyXpV0vfKLYdrCOh0CUKtNxikJcegXSuo/qj6IAhAlAuCjPIgw1hILIP4g9KwQMqUTpfAAOKfWkDxuWeQGnkfcrfx0yEBwQSSm0jlLeyKEKGZllbMYZU2KdSQLCSjJTkzx8sLNXk5FW644BQhFgPYcggeV75PmJd4jHT5yWl5mAB8AQas1Jtv40+uS3ypCrpsWYiAk/Hl+4AMATKFxIARN0zw9gOli1UjG2KmV829tCdF/lCgAUVIKQsqBCIm+xyw0SV8eQnjcwCcSQkRZQzJv6hYc9J9DUuVzwLWIRD2InQudtc7SvFhFgu3JB5IsCvdRBRSx53vYN3FnbzgX1o/tQwN7PbPAY1o+E9wigIdYlyuUCjYvn+lqtvABuAUJx4HnIIAHq5+P3a7G14oCUy7+gYb7XLWqgI9sYgkCEP8YNS5GKCEOhLUvvf2CEP1HwYgCECWFwEMMiDBwkQdGWQY7EcHphQbF+bCGkG3BtkaIuleFbm04+BwuiDCA+XcQcL/Ko5QW1c9kKO5VA0leQJkXWJntcb54az7S8V692ysI0EXVqqrAo9wEiByXK0HB5gsKH54ypNcdBZtPro1zaXhspXQeBpJx0UKkF6QtCx+pVyAhycYkBkTc2F/zqqGLf//r+toZIfpPttk7JQpAlEyBjkIvIiOxAMKQcWZnanA6xenhJQdIoBprSBqIEKxRL9TlUSTbbtAaEgo+D1jxqUT3mdEqUjmMxAHJLKBEBAQckcAQd/cv3uzNRef36ka/GmtH4Zo3VGC1o2H1AETFewDZXVzlwgcAsFrDsXwEDoa7l4kildIDHdbYNYvDC0qn2AerfMarPK5X4x9tzkt3D+EdeAAiIRMWq7fWBYKHgo85FVUHZP7Bg2GOLCBjdyGWWn+CxX5NqheSaXY/facJXTRLPcTidUNC2/g+2sYQRHZKrY+kux6Tipfg5qb3W0WK9KUZKpRnKmIuuJZH2jBHwX0wNY8l+jLHKjIv3epOAmpnKFfv9Msr/6ngUbSZouBRUuUTmk2JSmXzqjbYvBr4AABNq0+qoRO8Oh9OrSrX9Zg4iGleBXTnH3ds4m7/RG4JCq+WiK+gSMnnqwh8AIBlcTGdhl95rGmRsUuUaExbixlostYAybqOkhmLsoDMH3zkofnpWbCIC85LRPExG2md1RSXrOxcUSxNZeKiWGtICfcIzmEbAz9FpADG5HcWCyIsqjNQCdN+5BzLWkZyrVj6eCnGfYtUDHqmWzO5Xu71g3+WN3jxdrsmdrvmTA+dE+H61kDCs1bW4iE7ziO4TXZ3K5lZrvLEeywufIx/1vR6MBNWoN4H+Z6iEMzy8DbhSulU6LCKw0dQrBIuWJSwg5qmudnkJcwK6fUiFpCsOpKSORFlAZlPCBEJIlz40RWpXB6yhAR0cK9zz1g9HXKsIZO18loaXDO30XepjwXuQro1hKK3L5KKNwQizk7CtoESs1os28DI8oygMvv5NJ94Fn8ER23YERVnFSNX7vTwHY+sz+zU7uyOMDREpQ2twNoBCLN4ZAePAvuZJ5erOYQPANBqTXBzOOmHCQDjAGletsJJhfSJlYPgVlFn7mefmZEYOWMCm2Z9FpPxKm5BUQBJu7JeFiwJ09gEth7Te5exeCgLyByKsoAsDnhkCayK20ZsDEju0Tw+LiSoMxboG6hEEHnKoqLWELIt8Ejg+XgAS6jtAb81hGKtISzJhdU/q12FVSS8Wi7rSJV9/mSfFLGcRC0oEUvKrKwqMfun2L+gFYMkHPgrqe5P8uXaZh/iCmZCnrUjsmrxIoexTYk4vnFfuVDwQTOBDwdAapP+OGTBIH8gzngZD6fqRShVbziAXSB85DjXIjEgNOW6aVr5KbBE0fU1iJ+MTWpDyYxEWUDmE0REgMlYtxWeBWtS8TWPFSIlLoSlrDu1h6ScPqgp7Y8hxJ+0KmN8iGX0wpQGL76FJrifGnwed2ws2ymJt4pkOADKc5xVWkjyD9CUQ2cRe33nT67e7c80DuS1zX7ha0ulLnGVFo8E1XJerR6lzlmw1UMEfFDy2MD0OrhljMNBvJAOBEI6COCaa90Y9+c0GdCInPARYl4MCCHUP5dNt5uj08r7Pk+DD2BsASEZaXjB0i0gcb9ltZIoC8gcibKAzA90iCZ9RyUVnAWLiApmkEpO1csYy109PTrICk7ZmyM+xDaHINvykMM9qeA2Xo75NGsIQ97Y9QiICLOKhM9bpHUkboNFGhcWsvx5Zrm22Ydpz+5Yr28OCoAHlcigNguLR57sVgX7RJFWj2MBH65SpDcC+yHf/x3rxjhVL/lCRLj7mWIsHxMQDMaVlDiPfDMmIEKG2M1893hsAZEyl8TYmkg9CMoKogBEySxAhIvNq8kJZFPJglrBTXWN5Rl+UsbnEgUGUxanpu31Kp6n1fpwWmCBma+Mwee5B/w5gJFCQAKoKufzAVM2J9cNqnrhRHh9e5gDOsq6WR0x8ACVqp80nTVmHO9BBYPdcyjuWr3pwYOzu3FaXbfOB4+6Pk4qpSPobhVJ2YsJvEjKeJUGIVlxPsslZYFhTqw+z5i2qsDj6ItywZo/6BAKIgTqiHzjCATL9mnmzN8zFXPJ0n1RbFGHp5wpcomivWOmbp5NXRyXttcy+l4wYjgbSNAa4rP+js/XM90nHEJixXmW96aFXLRETFvldKmihCe/FCiqsUQYbIfkyp0+HrnQrvwo7+wO3QD0FNWIqrsO0lytpjZXZNKh3ASMOPCQBB9lMyBmVNwZ08D0GrhtufNHbiill2rXdakimswvjVPyuql7nfTpHGDaZD0XPiZeWUwQfGSFew4devG3I/SAaCw00SbQbZMR1UOdfB7XqiJB60oUgBxL+BABIsnbEDqiD9qybQB1ARDiHK6us7SkWQXaRs66IdlBxB8fQtwCNwehNCC+2I7E4HOa1PoYowqxUGpeVvxYp4GIcBgpACSloWTa2HHc4ISENnX17mAmZ3FtcyABOhYJPAoq+1TuWsyL1WPW8OGNNLUGYJvBeiDjsiAekGiToBBibrYs5hvDmFe7yUmmRV72rHF9p7gxqmzGq6R1uE1I448scR/+L2PPBWAc4SK0C6qFwEJkHEh4HQUhCkAUhBSGjDR4Id4VfcC2bafow3mVYyeITWPM8VFNSdcr3xqSD0TMURf+oSbgeRW6PSwAISym72NBumFZzlOAVUQKjBQEEiFQUkRpmmdYoZk0feVObyaB6Ne2BnMCHYsAHpBs9agWPqTEexSADwDQa03Yox4ADoLmpdgNQog/0Nx2UvV6QekIpuzl8FlFGGKD0iXCByg9ED0vfETGVcFdKGOsVgI84sBCBaXPoagYkPkAD1luWCBuCgeQxJziJQIVdT20qcg6B1SuIFiccNMAWWZ0jcgdmmYNGQefu/tjrjUk9yGXiJfwp3mFyJiRuOMrENshPaab5vhP4umlyEHfwk6n+oKE1zb6JYLJUe75Kv0uxcR4ZGqOivVpVC7xxnSrx/GEDwBget3X2fvT6k6KEU7S8XJfel5M1h3Hg3B/APv40o7jSmIKT0qAj+lXrhz8ip7C8VlAhOtEUMUJ50aUBWR+ICTtZSm8DhEX74Jl2um9WQGXLCejBkdaut74uSKZKXuTzoFgGz34a31QICc6RWt9BHEjBkTCEzRaodMsZRXxbe4NSgwSrCNpAygr3wTKXYKFE5LT4Ct3eji1Ul1BQk6EG5kC0AVcBBJ5ESu0eOR2twLm2eqRfCsEZGyiEscAcooSGgMvkYiXRiQc20H+uI7x1q61w7OKkOuyNbaksMk44RYrjJ2Qp5LPDpVcKeMDTSTamMDqMb14WQuHsoLMmSgLyHxAiDTS57Yh3gLC7en9Wc6MMTVdi18/kzVEZnrK6D5scwhyr4EXyxHIrpiQnpAlTLqEXbeYf5+hVFyFrCIl+tdKrCNJxyzm+BcuQ25lRpL0Bl+9W20mrLv7BoYml/t8C7N2BLeVbvHw+q7i/Va2DFdHFT4oF3wATlV0QqhaqZfdiiOcccxvFfEKF3pWEkStHm673FfsUCx8ZMiMJQA+nIFLcAfKPAtIVVYQJTMQZQGZX+iAiHUYt4RbQEzTzj42ZLSGNGo6ejCTNp5iDZnefmLnnDc+hAi2MUCwkKAPMNzAwsAx+q4BCwWps0jK3rhbGhOhD5QI2C7Y71ZqHckz6DL5u1hYKX5SVyoGkGsbfTnnQ6JvdJUWDwhJLy7N6lHwvMu7XCWsm7c+Rmwf73zSa02Y45FlXMfDb+nwWz7c/tuzinCfW61nFw8FpftinRwriW9sWCT4wDgNr1ALSC2hk5dlBTmyI4ACECV5QSQvrCSuQ8boUPRBG5aVf4yYEqBer2nTNs6YKSunQjo2iWfcxjYH3kzWBEJC8RzeoTAvfa/zkSWAUtZgvlCfWZgpBMBIcKyeAZDkGSCP6kSX3PHy5s4II9NGo1aNofxaYgFCEnR5jjp4RPdFwq+JBKtHbvgo73I1DT7GQKHpDXDLcAPIwxDir3jum0Ti8DJieYmuAql6ne983KYfZsY7kA4fWRfOSCcn5AlCFwkjSioU5YK1uNCRabt+9/aG6BMYDc0iHUpqp1av6dm7y2QPrdRfU5vPEPlKxF3rx/hihyqdB6eEfKAwqR5CkVS8k/UZ8mbrKuuiVWrDeCAJFUCkufBxWoSq5fN3fE5BwurS8V734j9KnGdks7LXK7h9pICgNFer8kkzplczLxHELtLlqmxxwdLwQUiKrdHqTUSLDQZdqryK58CkSKGv4jmRH27IVyGdgkULARBPuhbl4WNcLLBQxispsJyiJDEyIXgytoDOpUQByJEGEUh6cbzv+699fguALfLADdNCeVeIYEdbnzrLOj02pHy2rPSO1IEPigJGLIiEcIKYZ5EPgkj46Iv0gQkXoxSMiAGS+YUSmeAy77CTXa5uDNxq43L/bM5xc3tQvF8RCh2IhY5slcvnAzykFhUs6HI1D8HmSMK0hNX1essHD9wHSxTNXcXHQMJDEDKOB3GyZXFvGQ/GlnBKuC5iLB/Mcw0WAx/cD07EBPe8ZJTRe0rqVEoUgBxr6ICwl6+/bYNoS+RJ2LYNw+LFNk4YHRs1vdggJDpIPUERIG6Dm0PvMgcLCfqBg0J3Ilhg0O8/5s+2G0jFK0RhFqGLSVCQFx5KjrL4lSvnv6sVxYHc3RvlC0CXAh3x4JFP8S6a2UqMu9XsrR4Zq5rPKNg8D3wAANNqYFrNg4f4oPQJPBDZfiU6sGfytkfA8kGh9ihgjSlpGfIrexrLCXHTAKRkA+mnYwgADVH6lxIFIEcKQipzwQLAiGyhblhkcxhWSaNKqPOq5/Izp1QQEeKWFQIR2+hjqrtV2KqRGNrhult59DF25mIClSmZMCJ8sIlCSSyYKDiRBRrkztL6dSEQ8GpFFdGvbw0LPdJioaOIm5UA8ChsqczDGfNm9aBC51r0HBOxKMN5afVm0KXKGxuidT7CQElhN62x5QM+Ny5/m4F1eY7naPpV1Aqlck8BEM7l9VDE87hgydKdlCgAOdIgIpPime9lviu0c+AcpiWg8wl5LuUPdk0AEYgFEbLNgPVjAhsJ7laByuehmDcWcyspOI5MUS/mAEYkA0kimAQtJgpOikBGPGgkyeHAwtaBId0FKzHWJNXSId7akU8/ni14IDN4zIHVIwAfJRVhEcHmmc/NyYYVcakawwMPWjPgPs8I/+b17xMgSUvVG3TjKg8fjBFYEoEUtGTYnArjbQb1aFSxvqREAciRBw4pgDG1LbLFAgiA0cgU2yABzYZecFCf7pZVBkSsUc83aCChkGDoeyg7lj8LGAu5ZbFwuuFYS45opSshgF0YkEgEAkqBkxCg0ALFWxS5zhQLGPkgY5pc3ZBvBbm+PUh5FkXeO1HWjhIxHoLAQ2xNj0yzN5mU/vKB5pLhI+e5abWm+wsFAJJigsrjICQY8+GzinAfjPohBNx3FGkHm73KuaZpQuEDADinwttOV5ZIhAuWKH1LiSRRaXhnAyJVvjwMtr0h+k6PRgZy196YIs16DR3P9TNvUHbM+pnKZ6Tvh9smyDKCoOFt4jt/lsUaEpiTSr+Vfl0g4solKI1uUlvCmqfZTDRNLVNAUw9pFiNQ6fIMkuTq3T6+85FVae1zItzaHklM/5m3ErjgG0Ek7IkQn1Y3BjwKXoujYfWIWYkx6LUmbHMEAgeD5qzDCN4crj+N7riXHufcJfLV+XA7dF9FdGeZuxm5Fde91L2+2iJgheADAPQ460fJ9y0ahC4yVpAMFK9kXrT2h6qKrgDk2EAHCvxWCFZsa7ShNVeEnlB/YKQo08Wk1ajF8EDe9suASHQ/9qgXsGYErBee+5i7bbjSeVzweejcWMQtK/2Uoj1omexZOWFEOJDMUt0voO8cSyFc35JrAdk6MDE0bak3tnLoqBw8ihwvFdhcVkXzOYUPV7R6C7Y5dGeDfPAADsa0ibrvq/Ph1A7hXoFaGteC8tcO8SDELXboAktAHfYK3PorIGaHDwCo6ZpQ+AAmMSBU6llPPH5DIlRkhRY1DCgAOdIQIsrykdq+bfRu1JdPSwIQcUpwq64n8ECR9ouASPAXbhkg20wIMkeo1oe7PQuCSGzweWT7jOeYUIdQvFUkhTykGDXmEEyOIWgkyY2dISybx8+iCpDXtwdSzqG4jnXUwSO0zcytHvMNH2MA8QLLQ9YMAjk1NlxIoDFdxFlFuAssEQghF1gwsXqMxwhv3Um7eeADCNXZEmRptGwq+byn0Y11KAkqikKLEgmiYkBmCyG5YaIIrAz2X70q+kRM04QVCUQv9842GzUklseI/yHjoJI+05cUH2IbvehlDVYPDDGJW9k2Ul09Ifg89o5lPEd/HARkxYsk7DApmF14l71YNTMWAzLyX1PLJtzeHUk7qps7Q0HnlBI+krOdQsdBZdLp5k2pK6g/LJHhS1ysR54sV7LiPdJX0rQ6GNMRDBj31/nwp9rlwTofYyDjocxYQCRGjULPcrDYIQ/nvs0EH4DPAiLQzdFyM2HK4A8Q7UnQl4rqY0oUgBwZ6BD9ckxt/+CFz20SUVfsBIWFgWEV6swTLxQDGnU9Q5MCBvkpSaEc64c1CR5nadaLGHerAIh4eJKj8nkOhSgzjMgEEkr9uTpF+jhDirxrcn1bHoDcyN12RuiQmsnKU5QKBpbPAXiUCDKfN5errJXN87QbXkWrN13QmKCDHz4pXBvEMxDwUMA5Ahki/Kl6oxXTXQjxp/1NBcL4ZTVdEx5jZdquCxYX39/a3DjIqDfJ1qWUKAA5chBSMZgMiBF/TSiA2BxDwyzXscdIu1nPOIaWSIE5ZSAmAJbRT9iOhRgkLfjc55pFZfq48jAi1zoyBXZmwgdHoRL5/JzD9U15FdGzWUBSoCP3ZRBwzQpbOxYFPHLU9ZBq9ZgOH7G/iICP0Hijjauiww8P5OHIpHZHCEY8q8jk2fHWpZAbU2Bdik3rS0S54AMAaoEsWGL6CmsMIBJMIMStfYlQoVLzKgBREIKq0vAC4Nx6VbRqNBiYGdbK1zm1W7VsOy81KKcPzNw2nOxXbFIccGK9CMdqsJTK5+HbQr5UvqxgF1cMRoAqrSMZyGPuOIDm8G9+LsO1raGU3XWGNg76ViaYTYQO0e9NWhsLAx4oAB7JyunsYj1kuFxlhI/QMeiNpShc+CBkkkZ3jCQIFTD0W0e4r6AhhZb5IITiKq8j8AxOgw+Q37NATL9CRLA9AJHQMdjmviS9qahepkSCqCD0xYCQ0i8d2aOrcPOZi5JeP6vrRPZMVkvNOnIFZJcKVI/ZjgB72J8EGcLJZjJZww8iyUHpQXuI/zvzDSBMYFYplmu8JRb3IIkOZM8z8LPp46MaFuTfhoSVbu8OYVgcdV3sTbjhZdgqGoBd+iSzaFvCL7a84PIY8ChxraSDR4Fzl2r1iMCHv3vXoOkNcNsAEQNjNOnGvQxW45GBTQLLfXBEzM186MY5j7/FZsYCdyeq/EHpCGTUoozXtlmvCZ3UCMZ/iicQPuzuo/rMV0m/KZEkygKy2MCRGUxso/+a6JPr9/Nkr8k2NdVq1KBpLPs2QgLVJ9uNrR8RLd21hnj2ixD4sNgrn2INYT7lhiRVO8+xevXWkbQDStivCvsofzkT35f0C2pzwi0Jgeg3d0aIs3BQ4UdQ0ANBoqwdVVs8imS3yuNuJRA+RAWaVwAfY9EbS541gygEqBSqjhpwoQLGBQbTLSjjz64rVyQoPabY4ZRz0RhDrSZW1RvHfwDhgoRixBju7c+pLqVEAYiCkLy/mYNt4ZmwDMPEMHdF9OmDazQOhAo0W2wQt0f9ECswxxpCQaCgWMDwHWs4+DzAJAlFoUopPIJgJFPsSJUafw7qWPSQj7KXgqYpdeUuxHUJblg3docCip6LurEk4B1Mho5KwUNkdiuEiVBAX1860BwQ6nKVAT4AQKsvee5SjpsUD0EEYlyqKJDNKnA9w65VIBAPBqVTuFK6675FZGc63Xpdi2SQLz32mxO3SRlB6MbOjT0FHwpAlBwRCDm89uVXvSkYQWJZNvojE8WDI+NlqVUvBC5lQYRsC9w2Eq4oC8Whs7DtI4QbMal4Q25ZyQdCs4ORzECCOdHqC9IGLeBf4ZMQI69LAJCb28OSVg4B51cqkxWQ2doxF+AB5M5uRQL7d2GB5iQuyxllByyt3nRdbcdF+HwpdCkYo0FhiAiAREK2Kx6O9fCBlvu7s+cQ0CReMEIzLrNkSRn5Cody0UUIibrdO1/tKPhQAKLkiEDIaPulPnH7VcE9BTq9UYmBNH795aV67rkwESBijzNfRcp+TKwaXmYrYqEah2ziseV31gVNtkeB4HNpMCIOSGZvJREBKbMwlyxWkLroQHTTImzsG/JAWvp7ldF9aaplqkrwqMLdSnKgOVCp1SO4BoNeb7mH7XOpigSTj/EkzoUqDCFOWxQAkvig9GD2LArUFImDD8CpryVaDF8KftEuWAz8toIPBSBKFhg44n7jtvms6JPsdPrFOv6UQWi5VYemsQxDkzgQIW7DtkYT96hYm3VMKXWafB8HFwZxw08zJSvGC4WREkodHQUoqRIUjoYf2Mb+CCNTnBH11u4wpa6ahGslFDrKulnNKXgActytRNb2qBg+wv2ZXl+aHAunCKx50BGTkjceQvxAMXlWo1m0eDAVL8VZS6LntNSoC+8LxhYQh8MEW0A4vz2P+pMSBSAKQkr8RubgOdEn2B8YXj7wQoAQsw0Dw8pSI8ccWXkQsQN1P+IrnzvWCwocZ8DNylfrg3yGEkQgZB6CZAUrfKWhREWRzztwcSLc2BEXiH5zdyQXOIS+J0WsB2X7QznggTQeqMzdSqbVI199j+xn5nzTGkuTZytszQhYJig21iPcDyYHpU9S9RK4D2yCFhXiPLXI4FJLvAVkNI4BkZCDl3PrjoIPBSBKjhiEGN0N4QBiWRYGQyulHy82oK20GokxxqJBhMgGN0cR9yg2tdZH+sDriwbx0iYmK3rzBCMQAwgZoWQ6mCg4qRI00pZe3xoI27tTgFDC/RUOHTmsHQsAHmLjPMS6W1Vr9cgKH8F1Nb0OMD0BQnjIIsFjaoD4YkJ4QlD6xDcLHOEsWf524Fla4q6BpjE06mIBxLK553bFbS6+W+LmHQUfCkCUHDEI2X/ts98iwBLbV1joDUYZ+v98g9tqu46kQEPRIMKNgWPeHkeYs4Rg8Yg1ZJIu2F8pxFvPM4H4QCTgoiVKUZENI0kqqTiddzp2qBy8YuAiubjf1DS4JDYT1s3tkbhzlQwdQBFrxyKAByAcPArUNCln9SgCH1lbix+AHDcshCCE+9LohgPNw2l0eUpQuuNiRT5LCgUqpYesLYCbOSt6rNGMkuVl5Iv/sG0J/GENbin4UACiZMGBI/ybsXNtAMGB6ARg/3CQcbDMPig36rpbvTU5Q40YECHYxiBU6ZyC1hCWxRoCX4xHKBUvwUnlm0vNEQwjlQAJiW2K8mDH0Y6/yH+OGbEt5yUSlQmLE+HmzkDQsy3y2mZ4G6VaO6oGjyoKCsq2eoh1uUqED99Cvd5KRhZfyt2I5cOzkiBhGeDFgoRcswLxIOSrlA4OJKTkXZIAIANf6n3OxVtArGFPBaErAFFyFIGI7JHwQPRutx+NAxEAImvLzeA2EkDENofBHO4sXAQxyRrCfL9GU+xObB4sWKVwSvkKaTASVtqkKeGClf0pGnRx5FjsPLyZtxDMYZuHBvqj8tOeW4cmRhYVe3YlJ2EoBh2CrR0ywANlwUNmkLlvfWlWj2IuV3G78uJAwtfVCxLnvkXj9niwgCDFFBf0rB3cddOCbxlC0D35THEZsQC0fbGUwgBkOAEQGTVAzIMb1+dZh1KiAGShlP55onfL6AuPAzFGFnoDA/npIL3zWg8AiBwQsY1B8NIFVnNS6UaLmGexhky2D6fiTVM0pqsUomAEkq0jEqGkIEfMIpeVtH1WbuiZBMi+vl3eCnJrZzh9fxUmWsgHHRBwgYtaO0qAB1UJHgXreszA6hGFj+nDlKbXwTQ9FUL8z64HE+Higp7Tlv//3IcuFHDbothA93FGrujEwHJLsgVEeAwI9Xdf/IzKgqUARMkRgxAGANb+jS+IPknbttDpj9I7+wLWkHarjkZNn6KgFAcRbhkgboOFUu6yaHlz30KacqdZSuXzDBW8M+GG5GxBVIWb0gzcoyTRAKX8LV4G3+k7FAIgu6N04CAZ55NxSabCj4KO5ZiBxzxaPbK4XMVtqUXcsBCyWIwDzXkQpP1xNz4gGVdWj7OK+K0e/ugtCk0O+GF9qVmHrotV8TinSQpeIvFFCLl9BRjOky6lRAGIElHws/mN33iZiO+K3tneQX96z13ALWttpTl9tCkIIrYZSr2bFHw+towA8bEigeBz//Zplc+Lwch0VyKReluVQDJjODk2Up5sbggAkJvbA0nAURI6hLtYAeXcrKoGjylKfkFr9vxbPSj3hJkeByBheIjEeITiOMbdLHioMnoQWIKpenlMql4XTnxuWCsy3K8C8R8SUvDa5tU5AwMFJQpAjh4IzI7ch0SW8XnhHdNgiKFhZxs0coDIiakAUgxEiNvglhGpN5iaijfQmA9EWChWhCW3l2twzc4oghWmDEBCs4KBoxxkXsW1KS83BdQCub1nSDz3eYCOFPAoeT5ywUO21SMveGSDCWFWjxyQFYkDCarS2YoLekHkKRASk9Y37Oo1DmAnnxvWsgQA6fviP2xLfAA6WaNXFlOvUqIAREFNpt9soyMcQMyRge7AKKZgp2yz1Ky72bByDFYZQCQY+4GAVSNqDfGvNwERRn4rB4UueCj4vKzSURpGJCjlsT5Hi6SMzyu0zHdl9c0DI18AeUhGJsduxxR8jeYNOsS7WWHqoc8zePgUeEHXIh4+8qBMPperiPIUFwfijUF+SIgpLohxhEfIKuJPPc8plOKXh2qLICaLlmMF0RjDSls8gPjHeBk1QLhx+IoCAwUgSuYIGEQfzGDnNeEAwjmF3LByzGRN6fizW0GyggjBtoYpgOFPxct8PBETfD4pdx66W1Ty7pWDkZkASSKULIpFYv6yXc2jcCLc3i3uhnVnb1TAd7ygIyLNGDoEulmJTacrBzyAitytCpx/WZerWAUqJR1v8HuwuCAFwCIeJJyf3bS97joUgpvwtgCBuI2VdiMS2yiia+8PJwBiSUjBaxzcuTInOpaCHAUgRwY25gp0dr/58VdBfEv0zvcOujBtnssAnmUQOLW2BMZKDLIhEPFS7zIWKAzoAUZqKt6kq8sciwiFGUW0gkOFFhVR6sTq9YsMJsdcYu7djRIV0adnwCoBHFMffJHPuyjoKOJmNZ/gUZm7VU6rhwiXqziZxIGkXVN/rIc/4NzvQhUcryJZslJri/in1gBwG+uFJu3SZTA0vLgPIoBs0f039bdf+fSNOQYDBSUKQI4lwAh+EUfEzaHwbFimYeKgOyo8XCX9XK9pvoC68iDCjWEoXpzFDzfhSueR2BCG2FS8fhCZlgGrNJBkW5QNNSqeiU8CEwUns6CMlHsRlRs7xS0gt/ZGhZ69TMBRGXQUdbECirkvIeRmVRV4TFfEZ+duJcDqUQI+gHEcSLaCt+QLIo8tRMiDqXqjkBFGDR+k+CusM2C5WRPeQ/jdr2wZ7le2+U2MDooUGVJWDQUgShbphbBHh38svAOxbOwddnN249lA5OTqUrEBK9LJGeC2639OoSxVjPlsHkm1PjBJxcuS7yYLB61nLzAgB0YWAUiywokCFLGAUSALVZlAdMcCUtJhMDNwSIYOwdYO8YHlZcGjSJzHols9sl9nTaslxIGEWx27W/ldqCZwEoQOxLtbRdYBopXSgXarAQbxgNALxH/Y4rsoS3yRZAUvCkCUzOELdXjn65+WocXtHwxgWva0uafcILK23EQtNqd5vgGDm37rBwV4wvnC4hWCSOVz/1osAVhYhkOVpShVASQzhIBpgHIsQCVDIRIpaW6BW7vDwjUA7sRYQKY+WZVaOURBR1ElHgICyxcFPBbP6hEAeiC+HkgYPhBT18Or3eGDDIxjPigEIVFQCcPMuN0Tyw1wbk+sIiLeBqJABizLEt+vWsPONxQEKABRssBgkVU6Vz67SbYpfMbBHE3csJKqDRcZlBiAkyutcoMZEbg5TL6K46LloeBzeHEicZXP3aD1cIFClk+3ka9ElQOShYCSMqCSCWREuL9krGCYFSpmdLlNi7Cxnz+V7mHfQmdg5eOJSqwcMqCjrLVjvsADswCPObR6BKwXALRaK6VVSkCjJJCgDEHpyRDCNIbVZSf+g9uWsPe90ze8CQcniYt4C8hg64Wvz1ovUqIARIFFRS+QZXQ/JbpN27Kwf9BLDZQsCiKn19uTbLkFBjfbHLolPCbpc1ksiNCk1kes4pBUKwQAo3w3rzIYKQAkQqFkwS0RkdMpCAtHplQJ4cZ2/kD0W7vD6daNyoCjOujIpvsLrrIuGDwSe3Hp4DFnVo/QJnq9mdAqpbZBnHxr8sTA8gCwAMmV0kFYazfA4BQ59FyNBchhb+gb48V3XkR8Z+/lT96qWM9SogDk2MPGzMTYfvmTMtrdO+jBMHmo8y8PIvWahrXlVsbxPrqQW/HB59G75EvFS8GK5szLbcVAkcrp4YroORWKTLlEZWrVwpklI5ioeI4Foa7A/SoSB3J7d5Tx1lNFz33ZVyw7iicvlGTtkAIeCIKHyDgPFAOPWVg9AkpUrREYI2jqPQkldxhnyUoLLAdCVdX994G8bZ2U9WPA4YHK6MXhADjsjXwAIt76Qdz8+nHXxxSAKDlWsvXcf3gF3L4hul3TMLHXGST09+VA5OyJdqFBlrjpmKRZECiC3322DO93ig4+LNQ68xdHZ3nVkFx6UnWKWUYgyQgllHvfCk7mATLStiqSCetm4jYzeK5LQ4cIa8eigce8ulvJsnogQwwVg1ZrxrhcTQEsGgNCXGA5EA5KDy73p+p1pFHTsdSse78TkRA3rP7QCGS9sk3xAe620f/GnHSICkoUgBwJYYtwPLbRF+6GxW2OrZ1OfAbPkiCy1NSx3KrlHutsL/icPMDIbg0JXUDffvzB5wEXrRLKS77NZCrqGZXSjPprcbxY/OJ98wcX5bAQAF4v4IJ1e3dU0f0rXBynNHTIs3YcB/Ao6W4FCLZ6ZFuf1Zs574vPehEJQgcSU/WG4cS37MRqy3PPGrdpW+XdsPzuV0QEW0IBQnP/9h8pXU4BiJJjJqPOLSluWL3+EJ3+KEOHnB9EzpxoI5+/M4Gbo+gKLOxe5QcOFlwSBhTmm5VCtBJ6fpekEnrl9AXVQ4kAMMl3Fkev4ngV55e7Bd/C3sDGXi+7gsOJcHd/WNH1EfFKiIYOSfEdQOnsYJWDByDH3aoyq4d/lwS91shCTKEf/JXRgeTsVkiAkElQOmPA+nILNK6s7rZZ1g2LCL6kMoBlSnC/IuptPv8bz0KJAhAlQkfEuT+ezWd/7ctEfFf0zizDxO7BINtR5QSRteUmGnV9+qjjLuKW4XTCvmqCzO9eFakyON0aEmiDxul8WYkhuYSSUjx3afVQkgNM8qje1Sn1s/qTc3a5NwzJze3sQLF9aGIkzH1DBnAIgA6Igg7kezFK9jqVg0el7lZyrB7+OIzEVLw07Vj8KXknWn9stXPyB6IHg9JPrDShaZNnz++GVcYK0huM3LT6EgHEMj6P0aGEwiJHVpdTAKLkiEDSqGPbo+7HJMxqYHuvMwlGFwwi504sZx6NbWPowAGlAQZFDRleKt40a0goFW/+IuXyYGRmQFKAMrJozAJRYhFnM4SdY6mLE1w5jxvW7d2hwCsg5nUpktctFTqEuVjJc7MSCx459LNK3a0K6I056uWEA82ZpgcLEia5XKVCTxi1QkHp3oJoUPqJ1VYAOvwQUiYOZO9wEDhMy5IR/3E4z+5XShSAHCGFfw7F2Hn1P8ho1xyOsNfpFxt/p4DIidUWGjV96khHxEGWGbRyEEJWDxZTOzDGvSosSal4A3UekMntqKyCNP9AkkX7FaiFS1Do597+Iayx7BvnsYDcygUgpatmlgb87JYiEe9PDsouuD1JAQ95cR7l3K3kWT2SAs29eiBU5Fjiq51PvgPBzFiToPS1dgP1mh60fPhiRLhtFXLD4pwC2a9MS46RYrB99Q+VjqYARMn8PPCVvgSb3/jXzxG3rgqf2bA5Nnc6xSomTwERsHEsSHoj3BpFqIGB+ZrNkIrX+x4DHJFUvEmDO2WO4xahPIkBEprBqyDIblGtt1M1py/suMVdgLiq5klyN3HdlGMQcn+K4X426KjI2iErvmPuwYNy7lqm1SO9fa3WzGH1SIOQEBT5gtIRE5R+cq0dcNsaV1cfJ+dFQTes/c4gMHbLcL8C0ebut377akW9q4INBSBK5pHMrcHhb8hot98b4KA7LHfWCSByYrWFWk1LvTBO8DkF+SAU88FCC6PuVv60Vyy2jWx5MmTCiCAgmTsoKaqhzxAEZgY+1RPWxsEIZsbCZA6s5Kx2KVO5nwl0ZFTGZbtZAfLAA/nBAxDhbiXb6pEOinqtKWa4Jp45KH1lqY5mQw9Ah7PYzaLlBqUXccPyp9InkpN+l5uDzwKjshSvwEIBiJI5gZJCL2Tv1pd+w5lmESumYWFjtytOt/KpC5rGcMaNBYkN7yMOss0YTvDDRMiCEdcQC7pXsdAlZYWy9OWHkUqAJFMzixBVMXMaOBbHTATc3Z9uBeFE2DwYSXyMBDs1RmI6SOC9LUtCcw4elB88qnO3glCrh3+x5gGICH06W1D6qbUln3sVedDh/w4icMvMdVzDkYX+cGI1sUx7eo2TAjLqbnxCgYUCECWzAYO5Ocb9K5+5za3Rl2XsqHPYR7c/EnfUvtm1U6st1Gta7GJuDhMgwgcTcdYQNqksmB587u6REcqlCvfDCJXTUaoAksyWElrwV3jhTCAzkZs70wPRdw4NJyGFsNMtjubpK5CgmA7R0CEovmOuwUOyu5UEq0e4QK2Wlo4393HGBKX7fl9eaqDVqEUyX8VlwspblHD7oBf4bhqW+B6WqLf3zd/4I8zerK7gRwGIApVZvxBmb/c/yDjJ0dDA1l5f/JUjQGPAuZNtxMWJ2NYIFOsq5ffFSkjFm1DQg3ng4fued7DOOgAJtY4IBJI0Hb0YvShZYCjLkt0qi5VEFnBU51qVY4ogc6qyos2Uje+Qk1I3E3gActytCma4mj5yT9bXAm5Y5ceASFC6F5dIOLPeTsx8RYh+zxoHYtscB53JO81tClRCF9abWIPPGt27I0EvnYIIBSBKFhlotr/17z8O4gcSpjqws3uIoYRZFAA4ubKEZr0WGAiI2yDbDgwP/qrl8QYLmlg1gGjwuTc2s5Tgc9FKdjZXLTFAIglKcoGJApR5A4xpsRq3dqbrEHf2DNFkWw44ZgkdJa0dySp4BYHlieAhIMAcmLm7FeUGx+D6Wr0p9n2MgRAQsNpuoV7XPOtGBDoo+t02s72Du4fB4HPTlDNum/3d31UQoQBEyRxBwCxfOHP/1sAedX9NRtujoYHtvZ6Us2EMOH9qOeAGwK2hhx1jWHBKgbBQOZCk4HP/pWeh4PMA1ZRXTArBiAwgKb5VKd22rDKsRABcUL7NfHIrgwvWnUQriZgK7tNXlPQuzgA6ZhbfsUjgkcPdCihn9QgoVLWmhFc3mBmLMeD0+tIETIBgEHooE9Z4OeccnNtTeW3noB84TcuQkX6XjMOXP/EZpYspAFGiIMf77fDml34FEoLRiQib2/swLFuKDrm+3MRSs+adjZP9ajJQsBg3LEKAROLJxjfsh4PNA+l8cxZwW1wgITlPs3BAOerAIuj8BVy2g76F3jBdSXFcsMTARmbgmFvoAIrHSsTsRHZ8x8zAo4jOR5VbPQIKlV4DmCb4PXcRyf14YrUFXWPeeZJXmJAnZsIaf7etdCvIYXcYqPdhWnaxNPrTzsoc/VFv65WuggMFIEoUhU+UiZc/ecM2h5+T0fZgYGBrv4fis3XpcuH0qtfRkjfTw+KDI30QEgGRxMrn6el8ixd7E6yUFgSSclBCct+g0oxBR+yvimuWXaYVGdzYHxa+3dlWlgEcsqBjVtaOMuCRHxrLg0cV7lblrR6hWStoekN8B+g+23Wd4aRX9TwKGf4g9LjvfEocyOZ+kAnMkST3q96mDE8LZfFQAKJk0SHHOLjxL6UcJCdsbB24MyxlB9KorCzVsb7c9BUfDFk2yF/xI5qK11d2MGZYYQnpfEsX85CoxOcDknJQMgMwEckY8/pWz/35ODu8kwIgB30L/ZFd/nmjKoBjnqGjrLWDCqxebGqiUvDI7W4FQKDVI6JU1Rpy3jMinD257H0nf2A6IRgPkhCUnhaIftgbYegDDtvmUoLPQfxg+9lf/5SCAyUKQBYIDKr6beOL//IPiduvyrggw/4IW3u9+J5egC5xz5lVINTJRqqWx7kThNywiLGYQ0kKPs/hR59b66wASKRCyTRN+ggo+0c+K+/0g0xLxTuGk+JGqzBskOTzqw460ru9WVk7yoAHqgcPkVaPWPDId1xyAARYaTfQatYiKXa9gHNfyt2koHTiPDEd7+Zu2PphSzkPbnT/o9G9ayywjqREAYiCD3likNXf/lUpnQ/nuLt1CCsys1J2ls+RmgacWKkhGjgek4rXzWjFyHd5Q4BBvgD2MIsUUj5y61EyNVISCiVU9hhUsPmc0td0ub2bnAnrzt4wp4ecTOtGgZdQInSIt3ZUBx7Bw5uSLW3ewSN2hC327MkAEF3TcHq9HYGNWGtHOAg9BCFxcSCd3giD0WTijogCsSAiZbh77dcXTM9SA5ECECVVvmibz/76vyfiezIOetAfYnOvm21Qyjk+WeYIp9aXUHOLE8YGjo8JIpA912fNCKfijThcsRy3p2whslL0UimUiAWTrMqxApVZXTt/Czd3BoleMHf2Rjlgo4LnWtjq8wgd1YFH6nZSwAO5wAMo425V/Dl0YkCY0Kf3zIll1HQtdA0okAnL/7vzlUcyYYEQm443PB6PhnYut7bM94PbVza/9qvPKhBQogBkAcGgqt/M/esDe7D3v0u5OES4c/cgwwxLfhCxzBE0MFw4vYJArtwEa0iw1odrDfFqfSCxDQoHsIuGkbkBkgxQUjImulplexHBZXbnlrX1ocmx143PsHN3b+h7bmbwzBZ5QKVDR7mJlsLKMi0oeBSI86jC3SpWGAPTa8Ke5JV2EyvtRmgM5VHYQHzmq3BQumUZgfM86A7RH5oBxpNV+8Me7P3aUdCPlCgAUUAi+bedFz7xL4moJ+OCDIYj3N3p5h9k00Z0cs3LDFhpNbDWbgZS6bK0iugsabfBOA9WWiXJsUXuhqtUrkkImGRRr+dTuV/8YBBhe3ZXjlg6XLmzO6yoi5UNHCKhYx6sHQsEHnPqbpWoWAnKhFXTdZxZbyecwiT4fDyxF/d7xE2LCLZlebCxsdMJtGsaphTrB0DG4ZU/+HUFHEoUgCj4mPrbYOPZA3t48K/lXBXC3a19DA2ruOIeGmcsy4C/yuD506tOvnTGkgdBlmANCafi9df8SBlQpRX+K6MZVjrbnwQmVPhwjnO1D5lIVa7RqEXjdgxo9Ec2DgdWBWcoUm8XPaUgJr6tWGpaCAwsPyLgIcPqEVasBMWBnD3Zhq5riWMogXIHpTuA5Fhodg/7GJm2r0mCISn1rm30/+PhrS/sLLhupEQBiIKPqn47uPLpfwFgJOPijIYG7uwcFhwGoiBim4ZrzGDu7JGGsydXECIM39dxBqzg7zH5dt2PrqUkNk2lCBjJsZUQIKEZvA4Z4YSE7GEhHbJmcg5pgEHZ9uIUGwzKbSHWD0HkKrj9aqGjqJtV8fNaBPCYDFjzAR6eYqXXS7dxaq2NdqsxdSIve1C6s2692QZjDJxTJPOVMbLlGD8A9Ldf+P8dER1JiQIQBR9V/Na58cUte3j4a7Ku0N2NfQxGBqZkj8802trm2AIysV6cWGmh3WokB5/7iSJsDYl1uGKFBnsxdTXE62jzo4bTFEChSg71yDlcJe4oP2BMk7t7w0y/SXkeSxWmFIUDM4SOSOdZFqYWAzzmwd0qTlitHIC0mw2cXFvKeCFC8OGDkGCciPNvo+W4dG3t9wLZKIkDhmFKuR7cNr6y8/V//y2o+A8lCkAUkOT57fDaH/9zAkmxy9qmjZt39iODV94hmHMbnFuhch4Odtx7ZgWaxpAafO6/BGFACQSwZx3Fs8FIZUCykFBSBFJSYGXRfbWm0gtlAAt5FyDO2hFnFRHynFWUsIHyvMmzhA6hblZHCDwqtHoEFCu9jqKZsGo1HedOLee8jEHYiGTCcoPSG802mKbDMC1s7wXDOw3DkHZ5zMO7/1IBhxIFIAo+cv928OpnbvFh59dkXZyt3Q4OuqPEUTXLsGGbo5hDd6wadb2GC6dX/eThg4sQbAS++hPvsvx3PBZGRFlHCihVYoMA5ryfnqKtU94/SPjLeQxzTlX9kY2DnhmCkpGY460wQ1xmKwcg0PetzGaS3KwUeJQQVsgNizGGC6dWk+M+UhmExwelexmzgEbbGQdvb3XAfb5W3CYYhpy6H+D25s5X/vUnjoBOpEQBiIIPyb/F9da09+qnfwlEUtLZkM1x/dZOoEOMO5y0YWRSXImFDBbOVuvLTay1W76Qj4zB54yVH8Aou8IgtuJ4AR1dmKJ/FF/jI1vqXNg1uhOyeNzZ7Yu51BIf5OlbJlg5SFiHUHJSo+hep1g7FHiUQ5ACAHL+1AqaDb3EGxgTlO7+3lhagabpOOgM0ekH39PR0JR2qYz+7v9mGLtmgq6hIEQBiJJjCB+Up0PoXvv8hjU8+BVZF6rbGWBrp5cyZqS7Z9mWCcZYCBw8pgAA3HNmGY2aHjxTYn4MQZBKPKTxfRccJZ1jvrU8kFQFJdMUdiVHE8SCKXcNi2O/Z0lgV9mYLtK1SiR0FFOqxblZLQp4zIfuqOWsBXJ6vY3lpZLZsxIyYzHG0FpeA+eE29uHgU1sm8OSVPWciO9tPfvrvypKD1EQogBEyfwCCcl8wXde+tj/SkRdKReGCDdu7cAcB8VNBZEJjFiW6Xa2LBgDwnxxH4xB13Tcf27N99DThDYC4R8Zgs9FwAiQy1WrvOolEEqEKWMKUBYHMKbfm7v7EwC5uzeaWDXLFhmZFXAIA3AR0CHB2pGJKcpcDInggSTwmI8+JI8FZH2lhROrS4Je4WhmrNbyCTCm4e5OJxB4DgDDgSntGlj9/X9h7r82mDddRgGHAhAFHxVZL0S1P7j9zT17sPsvZF2gkWHi9Tt7OcYTN/uVZQDMV5nc50bFQil2l5p1nB/Hg4CF6pn7a33kCD6XASOVAUkJJU8aP6iKH9WDhYDrSsDt7QmA3N4dzCRNdLYWRANHyT5AAHQABawdUtysKgKPOXK3KgMgK+0mzpxYFvy6T4LSNb2G1vIquv0Rdg6CLpGjoQUeAhKBB9HZe/k3fmVW+oqCEAUgSuab+HO3v/u1f/3LRPaurAu1uXmAg94w14DpxH+QBxtOAXMWqFvud6M6ubaE9dWWf6gINu7PzEus4O1eZCApqQxWwg3HOeZixueesgt/1qvNfUM6bBQCDmFuVQImHgRChxhrhwIPYcpVBgBpNxs4569VJZRBnODz9uopcA7c3DwMLSen6rkksfp7/9/+nZcOZwgOonUqJQpAFh4+Fumli2zXP7jRs7qb/0zWxeKc47XXt8F5hqrg7hdum5iYKSiQUndsEZlAiPP53jOrWGrWE4LPx82N3UfYbIJOJQCJeCghMU1UokfQEfmb8WVKkcO+if7I8SffPBgJPwcq+tQLvYQC48CEQ0dZa4cCD1HCNB1gySrWUrOBC2dWQqnjxUq92UZjaQW3tw9hhuI8hn1DWtFBIurtvvi7vyxK78D8TMYqUQByZGCkihdGeFu3vvC//iq3rVdkXaReb4hbW/vTBxkCbPP/396ZB0mS3fX9+/Kou6qrrzl3d/aQGHmRVhsIrbRIGGSQZaFwCNkOBxg77LDkBUfYHAGYsB3hI2wgMJIMBJcRYLANFgQLAQhsGSTQroR2V7s7Iy1CWu0xq5mdo6dn+qwj7+c/uqen787KfC+Pqu8nYqIrKzNfZmVlvnqf+b3fe8HOTfZJPgfEDocQQsAQBu463oFt7XoE9iSf6xp2MwshyUJKFInJqI5ACnRtdxawIR7Awoqj/HRjban8fklZ2IgDT8Rvhx9RjvZoB3YOU03x2NvAMvZPRG9UKzg519o2cIoGARIGWtPzWOu7WF7bmYbh+wGCINJ27NBZ/tXBtfOrRWu7JHyPUEAmQj60Ri+UleX1Q/fmV35C58W6dHkJfcc78kdno/uV2JCFLcO4bRJixzC6O0fRsiwLdx7vwtiKfog9ErMzAUS1jCgr5JAWW6ImnKJaWG++wUSPepv5549f8C3xuD6CgMg0d6r2HCQVj7WaJPojG+EjD12c8MNtzU1D8ThUAvYZCauxFfkQWo/dmJpDKA1cvr664/1ISrjDQF/VJKObS3/5e/99jNo/hAIyVvJRhP8BSPqASgBy4en/+dnIHz6m7YJFEi9fvLHr4Ht/XaMw2P5fPlsisnviQLFjTg9sRjaAWtXG6eNT2zxD7O8eRzVS8h45J3aRqZp6imvmjI1Bgr2wEl+Y+CysuFgd+HD8KOU9FUM2pI5roKoIHdIhU5x69t2sJlU8tn5CdkVAWvUKTsy1tcuHZddQa07h0rXVPaNeuQN/a34QHQS9hZ8eLL7Yz0kwdLahCAVk7GQEBX1Qj9yv9/JnfhyQnq4LtbY2xJWFlUN/qaIw2FmZbx/1aiMbfecPwp5tJTrNCk7PT+3spjXqzOfaoyOahEQqaRZqqq0neVK/LK+fWq6vuFhYdkc8UpayofDZyks6YrfNVVw8ikdyAbk9qeBUq4bjs21odo8N0Zk5joWbvW29CDbwvEDbnB8AIKPgwuUnf/VRje0PqWk/SgcFZCJaAyjhw7nvNksvfeJiOFz9qM6L9tVXl9Ab7O84URhsjPSxeXp7oh7bk893ddESO7poCXTbVZyca+90l80RtVK3SrTNn6G5nZq+CZlhM2LcZiYv/uc56KjXVtxD8j9kAWQj25HptEiH7tyO7d2sKB7JBWSzC9ZMp6F+qN0DqLdnMPSAxZX+rt/LCJ7jaz22u3zxg/B6QcaioLsdRTRh8hJkWx9t+7ffctz3CrOfP1x4rnniwfcJIRq6Ltp638Wx2TaMXf91FATu7RnQb+VxiI3kuw25MG7LhhBbsrG1bpuACCHQqFUgJTB0/P27ZAEQSm4BpQVCc4ExixdFPWOSoq2dBMcPMdep4KVrfXWFZnLmcYuSiouUij6OVPOBZdLPJFNchPFs8wlIzDY2oh9ZYNk11DpzeOXqyo5uVlICw4EHGem7zlHofe7ypz70IQ3SkUc0hFBAxlJA4jTyRxEGFfvFkZF9twn6S1597msWrXr3nboumu+HCKMI01M7HSdwnc0ICHYIxoaPbB9ed5uAbFve+DDG1vwhQgi0GlVIAAMnOLKprFxGyigkmuWEolLkJvoBA0NEEkEosdr3S/VpdDaOx1E6RhYPmcF3VyBsy8SZk10YYT+b6lcYaM+ewivX9g656w59hDq7XgFh//Iz/2J4/cuLu75U1fKADPcjFJCxlJCiRT1SbdN79ekX2ne/7WsN075b10Xr9V20mlXUa5XbYuIMNuqMLanYP7KxJRsHRER2RFAg0G5UIYRAf+jFbg5ra2ILXbdgjuqd0flMkrDIPEo9ZPXawC/PJ81EOFRKB8Wj6DRrFdxzegbVio3h+lImx2xNH8eVZW8jgr8N3wvguYHWY4fO6q8uPPnLf5BSDBgNoYCQjARkd6M+8+iFShkRUn6+Pv+avwcIW9eFW1ntY362Dcs0IGUE3x3e+q+fnTJxoGxgU1Jub7vVLWtXBKVZq8AQYiP/RMT5SnU0frMSkgI010UJznHSlEWW4ByVFUvpUCodEyoeADA/3cQdx7swjY3flOH6svbPXW10sOrZWO3tzL2KggjOwNP7lEbh1Wuf+x/fHzkrviYxoHRQQIgmEck1epFCWHYsuytfXW+ceINvVlvfoOuCRRJYW9/IB4GMEPjuDtnYLRU7ox9ib3esTdmAMDZ33ykxzVoFFdvE+sC9XUUlaCgLpbdM1m1yUawnpqznXrTGuizxuRdANg4uSbXYSXVnmpt4TEb7zjINnDnZxcxUY8dIV05/5XZXYR2NOLsK3+ri+vKupHMpMex72q++u3ThX6+99Mmv5CgU0FQ2oYCMtXyokoEsheXA81m/9txzU2fe+k3CMOd1XTjPD+D7IWZn2ggDH/LW6FfiqOjHYV20sCUg2xPVAaBetdGoVbDWd/fOu5Xwf+21Cklm7W5RnieN7jE5J5q5cIyzdIxwLhMa7bhFq1HFPadnUKvu7QDgDtYRRXq6QAnDhKjP48rN3p4r7/RdRJHe7yAKnMcuP/Zff3oEyaB0EApIQZpFhYhejLjNwfuEvjRrU1+sdE//HQGhbYjn/sBFrWKh1WogDLwDulTh8ORzsTP5fHf0Y/vXVLFNdJpVrA+8gyt0MepXr6t9nKeUTEqLnxTCiKT+42cjHMWQjttnwW5WcTEMgVNzHZya78Aw9q/73OE6olBPTpTZmMflpcGe952BhzCIND9/cn31+T95xFm52BuhkS8z3Cap0BAKyERISGGiFym32VoeLj5/o33yjTAqzYd0XryV1SGmuy3YJiBldGDy+YFCsjv5fJ/ox3Ys08R0p4aBG+wZYSR5O1xndKRIUkI5oWAUXzZSCUfppYPOHpTCAAAoN0lEQVTiMSqtegX3nJpBq1E9dDvfHSDc7C6stPFWn8WVZX9PZN51AvheoP3ze6uX//3ic7/zdA6SAU3bEArIRAlIVoIgsix37eoXzk/d9dZvEIZ5Qmd75ObqAPOzbQgZjdz96qDk88MayYYQ6LZrm8P0+sm/7dyFpEhSQkmhYOQjG+UVDpXiQekYudFkGjg938HJ+Q5M8+hAv+8OEHiOYvmYxtW1aE9E3nN97SNeAUDkDz/x6qc++OGcJEOn4BAKyERJSFEiHOrKDX0phXiqNnPv+4QQFW2VYCSxuu5irlvfNvdH+uTzo76wVr2CetVCf+ghknL0RrNIt2HmUlJIL6ColEoqRj6lLAcWlhovYcmlg+Kxg+lOHXefnEajHv9nzXeHCLyhupOwm1joGQjDnV2sfD+AO9QvH1JGy8tf+sNHvNUrg4JKBhJsQyggEykgxZSIlPu4S6+sN4/fv2bW2t+k8wIGQYSBG2KmXUmQfH6r+5VxZPRjN9WKhel2Ha4XwvODdA3jwgpJGcVk3OVFjtnpyhwOLzVebqnnU7CLVa40ajbuOjGN2anGgbkeB/5GecPbQ8anJDLruD6w9kQ+Aj+EO8hm4k9n+cKPLH3xY88pEIaiyQuhgEykhGSSn5HxPli/dP5LnXve+gZh2Gd0XkDXC+F7Iaba1c3uVdtkI1HyeTwMY6NLlm2Z6Dve3lGytAtJnlIS4ygMUkwGUtlGmk5Dp3AUUzpunxWjHWmo2CZOz0/h5HwHtpWsueR7Dnx3kF4+jBoWnQqiXbnlQRBiqHmuj61zcHuPXnn8pz6iuPGftbxI3twUELKzmVaErlVKxOP2cohosP7ZxvHXvQfCaOq8iAM3QOB76HYah4+GNWLyeRzqVRvTnTr8IIJ7aPKfSHeHlEJKRjgaBWWMBCPb3/L8ZKO4wkHpUIdlGjg+28Kdx6f2HVp3FALfhe/0U5URiipuuNU98uH7IZxhNvIho+D5q5/75e+NnPUgY6mA4uPwBqeAEE0SkVIalJUBAPB6Vx2rPnvenjrxXp1D8wIC/aEHRAHarRo2DiU2c0NuRUS2dbUaIfk81oNkCEy1amjUKhi4PsJY46+LdHeMgo1Frre8LgEjetrSsmCnmNXki1LfJyuUdLBdZpoGjs+0cOfxLpr1SqLI+B558F14KQTEiyq46VUhpdglNpvykcn0OnKw9sqnP9B/9dz1ESVChYjo7KpFKCBEgQAUSjy2Lw+u/9VC68TrfbPaeljrxRMG1nsOLEOg1awAxs7kc7FP8nna6MduqraJmU4dlmFg6AWQUo749WchJEUWEwVnMcnCUrhGtqozkGNyLXKUjgN3YTvMtswt8Wg11IjHloAEHrxhL9G+w6iKZa+2p1IL/ADDjHI+AMBbuvgji+c/+lTGEpFVVy1CAaF8jJt4bF9ev3jufOfMW84K075X60U0DKyu9WGZJlrNCoRxK/qxtUGq5PN4IiTQqNmY6TQgpYTjBQlrO5H+jlK8kyj8I1SCQ2Ty01fc31ep47xlUa+VVFY8pUM91YqFk7Nt3HFsSlnEYzeB58JzRheQfljHqr93tC3PDeAMs5OP0Fn7zcuP/9SvKJKGIokIoYCQhCJSCvHYVo3B613/bPPE698thNHWevnEhoSYhol2s7oZ6TC2JGQj6LFtHhBNZ2IIgXajiplOHZBIISJ5S0nZxaSgMjPGjUKp87PKol/nokoHxeMW7UZ1awbzetWG0Pi4B74zUhcsKYG1sIFesDf3xBlmM8/H1rmE3rPXPvvffjj0+4Fi8aCIEApIgVs9YyIet5eD/g3XrLefqXbu+NsQwtJ2ETd/TVbWhzCFQLtdu52YviP5fO/l1/E7ZBi3RUQIAdcPR+yapbmhLPQXwDSO8UMq3EpfW1lmcyWk6utK6VCNZRqY7TZw1/EuZrsNVCtWJscNvPgCEkkDS34TbmjusZLh0Efgh9k93zK8vPSFP3j/cOmFdY3ikWeOCKGAkH3aaqpGsTpoOVPx2L48vP78YnX2zAW7Mfsune1SIQxARljtORBSotOqQxijJJ+rlxHDEGjVK5idaqBimfCCcM9kUoWREmXFiCzPmGQqF4oauDK/M091DKn6jCkd6n8HgE6zihNzHZyen0K7UY01e7lKfM+JNQpWgApu+A2EkdglJRLDvocwiLJ7/qXs9776xPtXXv7zSxmJh8xQZggFhIwgI7qWcxGR/uVzF1qnH5SG3XhI74+PAKTEWt9D4IeY6mxOIjVy8rlQ2kgWQqBetTE71UCrUYUQ2IyK6L6VilicyPuTUCyyatCXTjT0CAelQz/NWgXz3QbuPN7FdGcj2iFyqjiCGAIylA0se5U9vwFhGMHpeXsmHtRM6N544QcWP/9bT5dUPJh4TgEhBRaPg0Qk7Tkg7vLaK8882z7z0D2GWXmNRgPZzPWQ6A19DAcuuu0GDNPc6oaV9OtR9VtWsUx0mlXMdRuoVSxICfhBmPGtVvwiVRU8DvIiC1RKNsXKfK6w1FGq6iR7tql2S8fpY1OY6zbRqFVGnrVcB77TP3gmdNPGatjCurc3KuN7IYZDX2F33Xh46wsfvPrZX/y9XY12GXM5rmhkIR6UDgoIKZGIxBWTg5ZHKD/E8NpfPda64+sfFoZ5XJ+D3D780Aux2nPQadVg25ailqma6IgQArWKhW67hrmpBmpVC1JKBEGUQw0qSl38+ClHgRrockw+x+7jSp2fhtKhA8MQ6DRrODbdxOljU5jtNtCoVWAaRqHO0x32EHjO7gofqHSwOKxgT065lHCcAJ7rZ36uwXD1Ny5/6oM/k6KhXwTRoIhQQIjClpMYw2VE/iAMnfXH68fOfqsQRicLCfH9ECtrQzTr1Y0kxP2iICLd16ZGRmx023XMTTXQrNmwTIEwimJOcDgGDXr2sxpjj5H5f8giCgel44h6EWjUbEx3Gjg+08Kp+Sl02zXUqnYhIh0HCshgHaHvbi3b1QYcMYXr6yF2V+dRFGEw8BFmGgXfIHR7v/fqJz/0H4CwKKJA8aCAkJxbe6UXjcOkylu/2jeE8enq9N3vEkI0dEqIgAQgEEQRbq4OULEMNOr24fkgCkaIEinPu1qx0G5UMTvVxEynjnrVgmUIRDJCGEUFaq2LiTw0haLIDWaZQW8zXSN9TXbbyRACjVoF3VYN89MtnJ6f2sibq1dQsc3ccjpGxemtIAp9WJUarOYsFnoG1veZx8P3AzgDDzKH/2SK/OEnLj32U/8K4TBC8u5VRV4mBW3gknJIiCjYstKyZl/3nrPte972axCirfdyyh23/Ym5Du462YVVMeM9FiL946byoQvDCAPHx9D1MXB8OH6wmUMiWNWU7VRL9TMpi3lOMotPrWvUr8ltJwmxMSlgrWKjXrXQqNqo12wtEwNmzfrSNVRqLaw4wOJyb0+iuZQSTsZD7O44fuA9eeUzP/s9fn/RQbK8j/1ERRZsmfCnlqT4jsooFiOVPf913/nm5okHfgFANcsL3GnWcO+dM2g0KgckppdHSICNML7jBXDcAK4fwvUDuH4Az49YHZExMaGsZEOncEymdFimgVrVRr1ioVbdkI48R6nSzcDxcXlxFc4+EwgGQQhn6EHmVDXL0Du3+MyvPzK48XKvADKhq2zCX3xSIgnJUlp2rDv+lvd/S332vg8DItNMQtsycfepGczONGAcOk680Pw0CW0PZhRFcL0Qnh/ADyL4YQgvCBGEcmM5CFl9USqKed4yyytE4UiDIQRs24RtmahYJir2xl/b3nhtmcZEPHFhGOHazR6W1gZ77wIJuI4H38uvzo0C75kbz/7692yTjyLKA+WDAkIK8l2NjWgctnziLY+8qzp7z0+IHHKU5qebuPPkNGo1K+YwveUVkr0/ihJBGG1KSYQglAjDCGEYIYgiRJFEGMptryNEUpb8kaI8TJpoKBeOMZcOQwgYhoBpGrAMA6a5/bUBc3OdbU2WYBzGyvoQV2+sI9hnolnfC+G6+UU9EshHWcWE8BeYaJCQsRCNQyXk4UfeXZ2+58fzkJBaxcLdp2fQnaofEQ3JQ0iylZIjf8ikRBTJrb9SbkRaJLAxYpeUCCMJiY33cev9beyeDT7a3F4FZo6j44jNhluelYWR9+ffIfHZSoZpiK3/RFAqGzGFoyz3noC4fa4CW9+ZYRhj2y1KFwPHx9Ubaxg4e5PMw1DCdbKd0XzfuzNwn7zy1C/9c3/lyjClMKiWBeZ9UEBICb6vQiSO6972xEMfeHd17r5cJAQAZrsN3HVqGvWanWrSwmyePsEHmhAdshFTOMjk4gchrt3sYWV974SDUgKe68PzgtxvlSgYPn71qV/+vk350CUIRRATUgI4DG85JSTpDOTKh9HVtC0AoHf52Rcb02deNhsz3yIyzgkBgKHj4+byAJZhoGZbCaIheQoJpYRQNtTLBts35DZhGOH6Ug+vLqxiuGviQAkg8AIMB/lHPQAg9Hq/v/Cpn/shv7/oxmj0x5WAUbZNMqxvkrIIBYRkICI6xCJz0ThcQs69XJs585LdmH0HACvrixxFEstrQ/SH7lZCpVDatUKkWp3meBQTMtGiQeEgacRjuYdLC6voD709d0gQRHD6Lny/GAN7BMPlj7z6yQ//aBj2wxgNeV1ionJfgHkfFBCSu4SolIXcROOwdf3L5y7YjblzlfbxvwEhqnlcaMcLcGO5D9cNULMt2KahWERG0AIBrcelmJD8RSMv2aBwkMPFY3Glj4sLKxvisetWCYMIztCH5/ooyPgcobt27ceuPPbhjwBhmu5OZRITQgEhGYtI0UVDJFwHABgsfPGKYVU/XZ264x0QRjOvCz1wfNxY6SMMJWoVE6ZlZDBZVl5SQjEhukVDZnEQygZJhR+EWFzq49L1VfQG+4lHCGfgw3ODXGYyP+DeHg6XXv7ha3/xC78/ojSMKgV5iwkfYgoIyVk8ii4aSLhu6/Xwxgs3o8D/09rs3W8XwuzmVq1LifW+i8XlPnwvRKNiw7IMZDdkjFC6GeWE6G37y6wPSNkgSnDcAFdvruPy4ir6zt6oRuiHcJxN8SjQkOQyiq70Lj35zxaf/d9PIr9IR5Z5I4QCQnKWENWCIBSVo0xC3JWL61H/5v+tHzv7oDDMk3le+CiS6A1c3FjuI/Aj1CoWTDOLiEiRpYSCMnmCkWHjXirfkJCdd44E1voOri6u4drNdTje3hnMfS/Y6GrlFSnisfm7FLhPLz/36AdWXnrs4oiiUEQxibMvoYCQnCWkFPkcMdYduZ3XW3AGV89/rHnijfOGVf1ruVf40a2ISA+e429NxiUMUZBbo2hicvCBKSoTLBeJD8k2CElPEEa4uTrApYVVLK8N4QXhLjGR8LwQ7sCD74eFinjcInTXPrrw2M/98HDllVEnGEwjDUnEBCnL4YM/Jg1XMn4SomJ+jjzXxd7u1Nv/5T+0O6d+SBRIpoUAuu06Tsy10WnXYVpGuR97UdzzZgWWtHkui3xyFA2Sze0nJdb6LlbWh1gfuPsmjodhBN8NCjOi1QEfxHHWXv2xa5/5+UcTiIMu+VC9jiNeUUBICSSkLKIRV0IO3ef4133Xw/Xj9/8khDFVtC+kUbMx221gbrqFWtWCMI3xqg5EmR6N8nwUqXCrckkGRYPoZ+j6WF4bYqXnIAz3ztEhI8D3A/heiCiKiv14Rf6Lqxee/MGV5//oxQTCURb52G8doYCQMZCQXKMYKoRk+t53nOm89ps/KMzK64r4pRhCYKpVw/xMC91ODZZtZpi0nmNVwRpm/JGZ70hIIulY7TlY6zlwD4hmBH4I3wsRhGEpbs/QWf/da8/82o/6q3tmNk8rHCpEIWkZlA8KCBlDCSlsV6qUEgIAwm7MVU+89f0/ZNa631HkL8eyDEy1apibbmGqXYNlmSV/EgVrIcoFBYMU69aVwNDxsNZ3sdp34O0nHXIj9yPwQwQFzevY/7PJnrt88T9de+IXP6ZBOPKUjzhiQiggpATf61hGO456ffyh939rffa+/wgh2kX/oizLQLddw3Sngal2HZVK2SIjGVc1rLFyFAoKBik2twYEWRu4WB+4+3avgpQIQonADzalo2SPcOA+sfLCn/y71QufuZyxcOQpH6xw2CoglJDcJSRWWZ373n66e9+3/qRhVV9fmi9MAM16FdNTDUx36mg2KgUZSWvMqqMyX1I5NgchJP2dKiUGjo/e0EN/4GHgevsKhYwkgiBCEIQIg/JJx+anGLpr1z589dO/+FHAi1JIBuWDUEAIJUSjkAB207rj4e/+gNWcfwQCdtm+PMsy0G5UMdWuodOuo9WojGl0hNUXhYKQ+MLRH3roOz4GQw+R3H/g6GhTOIIgRBSW+xmIQvfZlRcf/7drL33iYkaSQfkg/AUnhZSQrIRESVkzZ999tn33w/9ZmPbZMn+RpiHQblbRatXQalTRblZh25zKZzyrQv7mkkmXDcDzAzhugIHroT/04Xj+/hEOSERBhDCUCPxw/65X5bwI6+76lZ+5+tQv/RY8L8xIMlQLB+WDUED4PY9xtOOI17bdtY49/P5HrNbsBwSENS5frG2baDYqaNQraFRtNBoV1Ko2rEIP90sIIbcJwwiOF2Do+hi6AVxv4190QF8pGUmEYYQwiBCGIcJIjltTVUZe74+Xnv/j/9K7dO6mBrFQKS+UD0IBIblKiC65UCokM/e/53XtO978b4RVfXBcv2hDCFhVC82ajUa9gnrNRqNqw7ZN2JYJw+BjTwjJuEUtJTw/3PgXhPD9EMNN0fCD/YfFlQAQSoRRtCEcoUQURqUZrSrRdQqDC4PrX/rRxXO/+UTOYpGVpFA+KCCEEqJNCDKNdhz92jZOPPyB91a7p39ACLM7MV+8KWAKAcsyUK3YqFYsVCoWKraFim3AtkxUbBOWacAwDKabEEJiy0WwKQh+cFswbr32/BDBYd2ipEQYATKKEEUSURQhCuVmZENOykVc93vXP3L9mV/7X/5gxUM2EY88hIPyQSgglJDxjnYctb42f3937g3v/X6r1vl2ABPdZ0kIbERGDAOGEDAMAcs0YFkGbNOEZRswLQOWYcI0BUzDgGkImKYBIQQ2dt2QFtMQENgoQ2yWRUgWRJHM9X/Hoyi/Y0tsNthH3S+SW12dNtr7G6+351GE0a0oxO1oRHBrOYwO7Cq1/dxkJCGj299RFEWIIkDG2H+svQMyiJzV31n50v/5+fWrX1g6pEFeBLHIQlIIBYRMqIQUSUgyeT33td/+tY3TD/6gYVXfxFvjqBtHAIaAISTEpnAIITajJTv/ilshFAGYhgFhCghsvhbb5UfA2BVuMVPksOSdgBpG+R1fSuTamNvemCVj1EiWt9qGYktQpASkjDbWyVtSsSkwUm6uv/2X7FNX+MNP9S498aHlL/+/CyhOxCNr4aB8UEAIJWR8ox1xXh9/0z/+5tr8fd8nDPte3h4Z34z79PdiFzBCMhaNbc1ACckmoSYi33l6uPiln108/9vPKJKCPMVCVVmEAkIoIWMX7Yi/rW2bJ9/0T99T7d75vTDMed4ihBBClAhe4J53brzw8wvP/sYTOciF7tdpBYpQQMiE3gc6RaAQEY5RyrM7x+vzb/j7f7fSPv5PKCKEEEKSEoXuucHCl3/hxvmPPpGhaBRBLOKUSygghPfChEU7YuxnN6bsuQe+429Vuqe/Wxj2HbxNCCGExPIOf/jpwcJf/crNL/zOOcWSoEMIdErGQa8JBYQQZSJQumhHnPV2Y8qee/AfvLfSOfWPhGGd4a1CCCFkH9xguPqx/qWnfn35xU9+NaVIqJaCrMSC8kEoICQXCcnqdZYysvHXts35B77zbbWZu7/LtOsP8RkihBAiZXgt7C89uvLSJx7tXf78zRykQ7Ws6HxNCBtP5ND7Qme0I08ZUbJ+5uw7X9s4/abvtKqdb4MQVd42hBAyWd4RBcMn3KWLv73w+d/+FPxBqEAU8pSONGUw2ZxQQEimEpLV6yy3HWmf2vw9nemvec+7K6359wmzcpa3DiGEjLF1yPBGMFz5o/6rz/zuyot/9lUFgqFLElQLCke6IhQQkuk9MvHRjrjvTb3mna9pnX7g2+z6zPtgGFO8fQghZCy0wwu94ZP+2uU/vHnu0T/z/VVfoWAUWTpG3Y9drggFhCiXkKxeZ7mtUgG59dpqH6vNnP22t1e6p99l2c23s4sWIYSUjigKnPP++o2PL7/w8Y87N15cTSgbSRr5uiRBtaAw34NQQEhuElIWGdEiG0e9V5++qzH1NX/zHXb75DtNu/FWCNi8nQghpKjS4Z7zeot/uv7KZz7Rv3L+hgJxUCUlRZQOygehgJDM7peijl6VS7Qjxntb62rdO5tTr/2Wb7DbJ/66VW29DcLs8LYihJA8kV7kD572e0uPrX31Lz65KR3QLBtJGvZZSIcqKSGEAkK03DeMdhwhG0e+Z9etufvf82Bt+sw3GtXOWwyzch+fSUIIyYAoXAyc9U/7vSuP33z+408F69eHCUSgCFJStKgIIRQQUggJyUtGiiggh65rnnxgrnnH17+50j72kFlpPiQM6xhvM0IISY+U0SDyh88Gg+WnnMWvPL38wp+/APhxGuhFF5AspIPyQSggpJD3z6RGO5QKyO6/U/d+4131+de+0WzMvdGqtN4gTPtuPrOEEBJHOGQ/CoZ/GTlr54bLFz639PyffBH+MFQsGVkISFo5yEpQCKGAkNwkJC8ZyUtAkm4/kojc2rY689rO1Jmvf8BqH7/fspuvE3b9rDDMWd6ChJCJF44wuBIFg+f8wdIX3KULn19++fEX4Q+jI8RBh3gUQUCykg7KB6GAkELcS4x2ZCAi299rnHpgvnXs/rNW+9hZo9K6z7Rq98K07xCAyVuSEDKOriEj/0roDZ+PvN7z/tq15wfXnvty//qXl2OIxigCUWQBSSsVqgSFEAoIKdT9NI7RDq3drRJse2AZVq1lt06/+Uxl+s57rHr3HtNunBRm5ZQwKycZMSGElMY0ouBGFLgXIm/4cuisvOL1F18evHr+ZWf1Ym9E0VAtHmUUEFXSQfkgFBBS6PuK0Y58RWTfv1ZtqtI49fqTldbJk1Zt+qRRbZ407OoJw6qdFKZ9Qgizy9uXEJKVYsgovClD/3IUOJdDd3A5dFcvB73Fy/3FL15yly6lFY0kUpFULsooJUw0JxQQMrb3FqMd6eVCm5DsEZTmTLXWvbNrN45NG7WprlVpdIVdmzKs2rRhVbswrSnDsLrCsKZg2tMCos5bnRCy3SpkFK5JGa4jCtdkFKzJKFyTkbcWuoPrkddf9IdLi/7Kq9d6i1+5icAJFApGGuEYZZ9JFBBCKCCklBKSRCbyko0sJENJd6uE+0LVvpbVtIzWTN2udupGpVEV1VbDsuo1YVhVo1JvCtOqCaNiC8tuCWFVhTAqACBMuyXl7TINIQxpWI0dN48QNoRR01OXyWR1n8zoOKy7R/9m9FxmOeK3IjM5ziifVxxV9u31IgoHUkYRAMgoWN9cHckg6G8cNAogwyEAyDBwZeCuB25/LfLW10Jnbc3pL6x5N19ZSyENWYqGavEoooCokhJC+CNGSi8i7G6VU3RDo6yMuk7Ve7peH7U8yrYq3otTV4sRn8Wyi4RMuF4qfO+w5aTbqn6t671RhCGtGOj+y25ZjHqQHLB4CUhGjQpxRIV21Poyft5Rr40oyHd01Pkctk2cdaO8t195ul7jgHVxtj1sOcl7h72PA65ZHNE46hkskmSoEA4dMpJmOUsRUS0nqoQkbzGZ9G5ZcaWEEAoIGZtG+ThKlSoROUoEkgrKUeWN8jniSEkSGTlKMpCTeIwqGmlFJO77R6076HkTJXlGVURBpIL3pcblvEUk7j5JJUWlZGQhGLrEo6wCQoh2OFcAyYMidQORCdflJV9JfrzTlh1n27iNOTlCoy9uYynp6yTr4i7vV95R7yV5f/c6eUQjW46wve7nTqY8d6S8dnLE7yqNbCS9D3XIRxrBUCUKqgRB9V/V+5RNSgjJDEZASNEa/WX8LOPc3SrOuafpdhW3i1VWEY88u13FjXLE6W41agRElrB+kArX5d0dS0dERNX6LKMg4yIeZRQQQjKFERBC1DSIVEYcZMrzTFNunH1GXZcm+qGyUZZ0uzTLSd4b5X/3d687quFd1ghInM+ZJjoy6nsqltPepzpFpOhJ6VkIhi7xGFUUdAsIIbnACAgpSwNf1XFEgnVJtlER5Yibv5HmWHkmnWcd/ThqO8Tc76BlgPkfRZL+LPJA4mwjFa/LIwqSVAayEpIyjJKVVDJ0CQghFBBC9mlUjduIWHl1u0oiLWmFQ0eCeZaJ5iq7XamQjrgyMqqUxJWTovzHQxopSfu+6u5YWYhI1sP1qs4TyUtQ8oyO6BKQ3esIyR3OA0KKfF/qmstD9fwcKufeyGIyQVVzfaTZXuX6w14n3U7Fctr30q4rc10/KXkgcUUha/lQIRZZy0UWgpGmrDy7ZSURfkK0whwQMomozunIY5QrlWXH2TZuo0xl7keaUbDSbhd3mfkf6e7HccoDSSIbuvNCyjZpIbtl6RMQQgoFu2CRsotCFucwSZMKFnVywTjdq+KOcKWj25WuSQdHnXBwHPI/VP5HgY48kKSyGke6kwh3WlnXISccJSu/oXwpHqQUsAsWKdv9mrT7ErtbxS9r1HWq3svi9SjrVCwfVs+qej9NnZ73b0CZ8kBUi4dqEcly0sKij5I1Dt2y0q4jhAJCiIZ7Vodk5CUiOv6q2la1jBRRQtJKiY730q4bh3q+THkgKmWjSPKhWzp0yERef4vSLYsQCgghGYuIKnHQGc3IUzTyEI5Jin6okI40wiFSPEdFl4xR9kkiJEWcnLBIIsJRstIJhyrxOGobQigghBRURPKWirJ3typj9EO3eOiSDlXCMckRkFGlIy/xKIqIFDUKolIedIiFyjIpHoQCQkhJRWTSulupEo6sIx1FEg8VkqFbOlRHQIpS/6vOA1EVAUkqHrpko2zyoVM2VAtCnsIxyj4UD0IBIWQCRSRvMclDSsZNPLKIdowiF2XN/4gz+laWcqI7D0SHeCQVjHEQEd2yUQbhoHgQNtYIGdN7e5K6W2UtHHlOLlj2blc6oh9J6vNxjYAkFZIyTE5YRPkYVQTyEJKkZRYtaZ0QCgghYyoiOoUka9EoStJ5UcUjy25X45L/kfWcImXPA9ElG0UUEY6Spa9bFiEUEEImTETyEhJd++qSkbwlRKd4FEE6xjX/I6m4FC0PZFTRKLKI6JSTPEbJKnO3LEIoIIRQRFKJSl6SknQbVe/plpCk22UpIqNum1ZGdNXvccsrYhREVx6IavFIKhhZyUfchn2a94raLStLaSGEAkLImN/7k9TdSkWeh0qxKIJ4FGXSwUnN/0gqLWXIA0kjF3mISFZdtLIQkrJ2yyKEAkLIBIpI3kKiax8VMpJWTPIWjzIlnRcx/2PUslQ2qMqWBzKqTKQRkyKKCEfJii8cFA9CASGEz0Liv1l0txq3yQXLKh7jkP9RxLq/yDOi5yUeeYgIJy3M9i8hFBBCiFZxGOdRrpJGNFSKR9bdrvLscpV1BCRpOaoaWbojIFmIh0rZGFUU4u6vMmLCUbIoHoRQQAgpoIjo2idLGVEhISpfpxWNMs5+nqQeL2q9X+Q8kKzEI42Y5PF6nKIgFA9CKCCETJSMjMsoV+MqHpOc/5G2nLJEQTg5Yf7yoVM2spALSgchFBBCSiUiWUrJpIpHWScdZAQk3fZFzAPRJRvjIiLjMkoWIYQCQkiuIqJbTrIQjiJJiE7xyDP6EadOzjICour3QWZYRpHyQEYVjTKKyLiOkpW2KxchhAJCSKFkZBySzvMSjzy7XTH6kQ2TEgVhd6zxSkonhFBACCm0iKiWkyyEY1KjH3HfUyUd45b/kVQq0paTRR5IHEnQISeMgugTkqQSQwihgBBSqGeq7KNcZTW54CR3u2IEJJ2slCUCklY8iioiWQ/XW5RuWYQQCgghhX++ijLKVRKJKLJ4FLnbFfM/0olFmjLGOQ8kqWDkLSLjMEoWIYQCQsjYyUjZks51S4gq8Sjr6FcqhaRs9b3qKEhRhuYtwuSEechHltKhSjYoHYRQQAgZaxHJSjh0RD90SIiK7VQspxGRpNKRtjuWqjpd1+9CUaIgnJyw2PIxqjzoEBJCCAWEkImRkTKOcjVu4sH8j/xhHsj4iUgZ8kMIIRQQQigjOchIUrHIQjzK1O2K+R9qxCJNGWXLA9ElG1mISFZREEoHIRQQQkgJZKTIEqJ6Hx3LOqWD+R9qZaUseSCjioYuMVG1T1nnCiGEUEAIITGez6JGP0bdrwziUcQuV1lFQHT/JsiM9s8qAlIU8chDRFRGTHRFQSgehFBACCEZykheEqLydZZSEve9UeRCZ8I5IyCjb69bOuJIgg45Kfos6apEg9JBCAWEEFJSGUm7z7iJh+puV4x+qJeLpPsXPQ8krXiMm4ioioIQQigghJAMn+NJjX4UUUSSykjcepkRkNG3n5Q8kDLKRxI5oXQQQgEhhJRARsogIWnEo6yTDjIComf/MuaBqJSLIoqIyvWEEAoIIaTgz/c4iUfZJx1k/oceUSlqHogO8VAlG2UTEUIIBYQQUtLnvUgSkqd4MP8jv98C5oHoEY8yiAijHIQQCgghfPYLJx7jPOkg8z/0Scq45YGolI24klAEESGEUEAIIRNWFxRVPIrU7Yr5H9nLRdL9JyEPJI2Y5CUiFA5C2OgghJCRBaGs4pG3dDD/Q6+olCkPRLVolElECCFsaBBCiDYh0SEeWUU7VEw6yOiHOrlIun+eeSBxJEHVNjpzPygchBAKCCGkVEKiQ0JULOt4L410MAKSXlJ0RUBUyEiZktJVCAshhFBACCGZC0lRxaMoSeeMgGSzfxnyQHSLh24RIYQQCgghpLBSktcQvKpFRLWMqBSScavfVUdBshgJS6V4ZCUbo8gHIYRQQAghpatrxmnSwbwTzoXC76XocpFk3ywT08dxckJCCKGAEELGsv4pQrerPKWD+R/qJIV5IOnEhBBCKCCEkImuk8Z10sFJz/9Q1fidtDyQtHJB2SCEUEAIISSllOQhIqplJG5dLFJcs7IjFW87aXkghBBCASGEkIKKiSoRSbNulLq5zPkfKhrKeUZARhEMlTJC0SCEUEAIIaRkYhJ3m6LISJK6epIjIHG3zysPJK5EUDQIIRQQQggZw/puUvM/ilb3lzUKklVSOiGEUEAIIWRC5US1jMSthxkBUb990fJACCGEAkIIISSxWDAColcwkuybZR4IJYMQQigghBCSW13K/I98JCWPPBBCCCEUEEIIKVWdm8VQu0Wt92UG+0lN50AIIYQCQgghE1tPMwJCmSCEEAoIIYQQ1vsUBkIIIYQQQgghhBBCCCGEEEIIIYQQQgghhBBCCCGEEEIIIYQQQgghhBBCCCGEEEIIIYQQQgghhBBCCCGEEEIIIYQQQgghhBBCCCGEEEIIIYQQQgghhBBCCCGEEEIIIYQQQgghhBBCCCGEEEIIIYQQQgghhBBCCCGEEEIIIYQQQgghhBBCCCGEEEIIIYQQQgghhBBCCCGEEEIIIYQQQgghhBBCCCGEEEIIIYQQQgghhBBCCCGEEEIIIYQQQgghhBBCCCGEEEIIIYQQQgghhBBCCCGEEEIIIYQQQgghhBBCCCGEEEIIIYQQQgghhBBCCCGEEEIIIYQQQgghhBBCCCGEEEIIIYQQQgghhBBCCCGEEEIIIYQo4P8DthiyLH5eFYsAAAAldEVYdGRhdGU6Y3JlYXRlADIwMjItMDQtMDhUMDc6NTM6MDUrMDA6MDANnANhAAAAJXRFWHRkYXRlOm1vZGlmeQAyMDIyLTA0LTA4VDA3OjUzOjA1KzAwOjAwfMG73QAAAABJRU5ErkJggg==;" parent="1" vertex="1">
          <mxGeometry x="-20" y="290" width="180" height="180" as="geometry" />
        </mxCell>
        <mxCell id="_jPTGavj7HlBa1q7HC59-2" value="" style="endArrow=none;html=1;rounded=0;" parent="1" source="_jPTGavj7HlBa1q7HC59-1" edge="1">
          <mxGeometry width="50" height="50" relative="1" as="geometry">
            <mxPoint x="390" y="440" as="sourcePoint" />
            <mxPoint x="300" y="140" as="targetPoint" />
            <Array as="points">
              <mxPoint x="220" y="210" />
            </Array>
          </mxGeometry>
        </mxCell>
        <mxCell id="_jPTGavj7HlBa1q7HC59-3" value="" style="ellipse;whiteSpace=wrap;html=1;fillColor=#d80073;fontColor=#ffffff;strokeColor=#A50040;" parent="1" vertex="1">
          <mxGeometry x="300" y="90" width="220" height="80" as="geometry" />
        </mxCell>
        <mxCell id="_jPTGavj7HlBa1q7HC59-5" value="Registration and Profile Management" style="text;strokeColor=none;align=center;fillColor=none;html=1;verticalAlign=middle;whiteSpace=wrap;rounded=0;fontStyle=1;fontSize=15;" parent="1" vertex="1">
          <mxGeometry x="310" y="90" width="190" height="80" as="geometry" />
        </mxCell>
        <mxCell id="q4RxkXpsxiXpvTRgqcOd-1" value="" style="endArrow=none;html=1;rounded=0;" edge="1" parent="1" source="_jPTGavj7HlBa1q7HC59-1" target="q4RxkXpsxiXpvTRgqcOd-2">
          <mxGeometry width="50" height="50" relative="1" as="geometry">
            <mxPoint x="390" y="450" as="sourcePoint" />
            <mxPoint x="320" y="270" as="targetPoint" />
            <Array as="points">
              <mxPoint x="190" y="340" />
            </Array>
          </mxGeometry>
        </mxCell>
        <mxCell id="q4RxkXpsxiXpvTRgqcOd-2" value="" style="ellipse;whiteSpace=wrap;html=1;fillColor=#d80073;fontColor=#ffffff;strokeColor=#A50040;" vertex="1" parent="1">
          <mxGeometry x="310" y="220" width="210" height="80" as="geometry" />
        </mxCell>
        <mxCell id="q4RxkXpsxiXpvTRgqcOd-3" value="Place Shipment Orders" style="text;strokeColor=none;align=center;fillColor=none;html=1;verticalAlign=middle;whiteSpace=wrap;rounded=0;fontSize=15;fontStyle=1" vertex="1" parent="1">
          <mxGeometry x="320" y="245" width="200" height="30" as="geometry" />
        </mxCell>
        <mxCell id="q4RxkXpsxiXpvTRgqcOd-4" value="" style="ellipse;whiteSpace=wrap;html=1;fillColor=#d80073;fontColor=#ffffff;strokeColor=#A50040;" vertex="1" parent="1">
          <mxGeometry x="315" y="390" width="210" height="80" as="geometry" />
        </mxCell>
        <mxCell id="q4RxkXpsxiXpvTRgqcOd-5" value="" style="endArrow=none;html=1;rounded=0;entryX=0;entryY=0.5;entryDx=0;entryDy=0;exitX=1;exitY=0.75;exitDx=0;exitDy=0;" edge="1" parent="1" source="_jPTGavj7HlBa1q7HC59-1" target="q4RxkXpsxiXpvTRgqcOd-4">
          <mxGeometry width="50" height="50" relative="1" as="geometry">
            <mxPoint x="132" y="433" as="sourcePoint" />
            <mxPoint x="310" y="370" as="targetPoint" />
            <Array as="points" />
          </mxGeometry>
        </mxCell>
        <mxCell id="q4RxkXpsxiXpvTRgqcOd-6" value="&lt;b&gt;&lt;font style=&quot;font-size: 15px;&quot;&gt;Shipment Tracking&lt;/font&gt;&lt;/b&gt;" style="text;strokeColor=none;align=center;fillColor=none;html=1;verticalAlign=middle;whiteSpace=wrap;rounded=0;" vertex="1" parent="1">
          <mxGeometry x="330" y="390" width="180" height="80" as="geometry" />
        </mxCell>
        <mxCell id="q4RxkXpsxiXpvTRgqcOd-7" value="" style="endArrow=none;html=1;rounded=0;" edge="1" parent="1" source="_jPTGavj7HlBa1q7HC59-1">
          <mxGeometry width="50" height="50" relative="1" as="geometry">
            <mxPoint x="142" y="443" as="sourcePoint" />
            <mxPoint x="330" y="550" as="targetPoint" />
            <Array as="points">
              <mxPoint x="220" y="520" />
            </Array>
          </mxGeometry>
        </mxCell>
        <mxCell id="q4RxkXpsxiXpvTRgqcOd-8" value="" style="ellipse;whiteSpace=wrap;html=1;fillColor=#d80073;fontColor=#ffffff;strokeColor=#A50040;" vertex="1" parent="1">
          <mxGeometry x="330" y="510" width="210" height="80" as="geometry" />
        </mxCell>
        <mxCell id="q4RxkXpsxiXpvTRgqcOd-9" value="&lt;b&gt;&lt;font style=&quot;font-size: 15px;&quot;&gt;Billing and Payments&lt;/font&gt;&lt;/b&gt;" style="text;strokeColor=none;align=center;fillColor=none;html=1;verticalAlign=middle;whiteSpace=wrap;rounded=0;" vertex="1" parent="1">
          <mxGeometry x="362.5" y="532.5" width="157.5" height="35" as="geometry" />
        </mxCell>
      </root>
    </mxGraphModel>
  </diagram>
</mxfile>
